<?xml version="1.0" encoding="UTF-8" standalone="no"?>
<svg
   xmlns:dc="http://purl.org/dc/elements/1.1/"
   xmlns:cc="http://creativecommons.org/ns#"
   xmlns:rdf="http://www.w3.org/1999/02/22-rdf-syntax-ns#"
   xmlns:svg="http://www.w3.org/2000/svg"
   xmlns="http://www.w3.org/2000/svg"
   xmlns:sodipodi="http://sodipodi.sourceforge.net/DTD/sodipodi-0.dtd"
   xmlns:inkscape="http://www.inkscape.org/namespaces/inkscape"
   width="7.0260048in"
   height="3.4731021in"
   viewBox="0 0 178.46052 88.216793"
   version="1.1"
   id="svg8"
   inkscape:version="1.0.2 (e86c870879, 2021-01-15)"
   sodipodi:docname="approximation.svg">
  <defs
     id="defs2">
    <marker
       style="overflow:visible"
       id="marker1968"
       refX="0"
       refY="0"
       orient="auto"
       inkscape:stockid="Arrow1Mend"
       inkscape:isstock="true">
      <path
         transform="matrix(-0.4,0,0,-0.4,-4,0)"
         style="fill:#3f3f3f;fill-opacity:1;fill-rule:evenodd;stroke:#3f3f3f;stroke-width:1pt;stroke-opacity:1"
         d="M 0,0 5,-5 -12.5,0 5,5 Z"
         id="path1966" />
    </marker>
    <marker
       style="overflow:visible"
       id="marker1958"
       refX="0"
       refY="0"
       orient="auto"
       inkscape:stockid="Arrow1Mend"
       inkscape:isstock="true">
      <path
         transform="matrix(-0.4,0,0,-0.4,-4,0)"
         style="fill:#3f3f3f;fill-opacity:1;fill-rule:evenodd;stroke:#3f3f3f;stroke-width:1pt;stroke-opacity:1"
         d="M 0,0 5,-5 -12.5,0 5,5 Z"
         id="path1956" />
    </marker>
    <marker
       style="overflow:visible"
       id="marker1792"
       refX="0"
       refY="0"
       orient="auto"
       inkscape:stockid="Arrow1Mend"
       inkscape:isstock="true"
       inkscape:collect="always">
      <path
         transform="matrix(-0.4,0,0,-0.4,-4,0)"
         style="fill:#3f3f3f;fill-opacity:1;fill-rule:evenodd;stroke:#3f3f3f;stroke-width:1pt;stroke-opacity:1"
         d="M 0,0 5,-5 -12.5,0 5,5 Z"
         id="path1790" />
    </marker>
    <marker
       style="overflow:visible"
       id="Arrow1Mend"
       refX="0"
       refY="0"
       orient="auto"
       inkscape:stockid="Arrow1Mend"
       inkscape:isstock="true"
       inkscape:collect="always">
      <path
         transform="matrix(-0.4,0,0,-0.4,-4,0)"
         style="fill:#3f3f3f;fill-opacity:1;fill-rule:evenodd;stroke:#3f3f3f;stroke-width:1pt;stroke-opacity:1"
         d="M 0,0 5,-5 -12.5,0 5,5 Z"
         id="path1465" />
    </marker>
  </defs>
  <sodipodi:namedview
     id="base"
     pagecolor="#ffffff"
     bordercolor="#666666"
     borderopacity="1.0"
     inkscape:pageopacity="0.0"
     inkscape:pageshadow="2"
     inkscape:zoom="1.7738298"
     inkscape:cx="675.10071"
     inkscape:cy="230.22017"
     inkscape:document-units="in"
     inkscape:current-layer="layer3"
     inkscape:document-rotation="0"
     showgrid="true"
     units="in"
     inkscape:snap-grids="false"
     showguides="true"
     inkscape:guide-bbox="true"
     inkscape:snap-to-guides="false"
     inkscape:window-width="1536"
     inkscape:window-height="834"
     inkscape:window-x="0"
     inkscape:window-y="0"
     inkscape:window-maximized="1"
     inkscape:object-nodes="true"
     inkscape:snap-smooth-nodes="false"
     fit-margin-top="0.15"
     lock-margins="true"
     fit-margin-left="0.15"
     fit-margin-right="0.15"
     fit-margin-bottom="0.15">
    <inkscape:grid
       type="xygrid"
       id="grid1402"
       units="in"
       spacingx="12.7"
       spacingy="12.7"
       empspacing="4"
       visible="true"
       enabled="false"
       originx="-1.1412516"
       originy="-2.8582315" />
    <sodipodi:guide
       position="62.23276,18.326921"
       orientation="1,0"
       id="guide1406" />
    <sodipodi:guide
       position="50.127611,22.24183"
       orientation="1,0"
       id="guide1408" />
    <sodipodi:guide
       position="113.26427,15.121155"
       orientation="1,0"
       id="guide1410" />
    <sodipodi:guide
       position="125.84413,12.272885"
       orientation="1,0"
       id="guide1412" />
    <sodipodi:guide
       position="180.05962,42.59793"
       orientation="0,-1"
       id="guide1414" />
    <inkscape:grid
       type="xygrid"
       id="grid2141"
       units="in"
       spacingx="1.5875"
       spacingy="1.5875"
       empspacing="8"
       enabled="false"
       originx="-1.1412516"
       originy="-2.8582315" />
    <inkscape:grid
       type="xygrid"
       id="grid2145"
       units="in"
       spacingx="5.08"
       spacingy="5.08"
       empspacing="5"
       originx="-1.1412516"
       originy="-2.8582315" />
  </sodipodi:namedview>
  <metadata
     id="metadata5">
    <rdf:RDF>
      <cc:Work
         rdf:about="">
        <dc:format>image/svg+xml</dc:format>
        <dc:type
           rdf:resource="http://purl.org/dc/dcmitype/StillImage" />
        <dc:title />
      </cc:Work>
    </rdf:RDF>
  </metadata>
  <g
     inkscape:label="Layer 1"
     inkscape:groupmode="layer"
     id="layer1"
     transform="translate(-1.1412516,-2.8582314)">
    <path
       id="path1428"
       style="font-variation-settings:normal;opacity:1;vector-effect:none;fill:none;fill-opacity:1;stroke:#808080;stroke-width:0.75;stroke-linecap:square;stroke-linejoin:miter;stroke-miterlimit:4.33333;stroke-dasharray:2.25, 2.25;stroke-dashoffset:0;stroke-opacity:1;stop-color:#000000;stop-opacity:1"
       d="M 46.045085,42.819319 28.658196,27.234902 M 23.175877,22.34571 6.3036247,7.1977943 M 45.779589,7.413191 6.2796403,42.434181"
       sodipodi:nodetypes="cccccc" />
    <path
       style="font-variation-settings:normal;opacity:1;vector-effect:none;fill:none;fill-opacity:1;stroke:#808080;stroke-width:0.75;stroke-linecap:square;stroke-linejoin:miter;stroke-miterlimit:4.33333;stroke-dasharray:2.25, 2.25;stroke-dashoffset:0;stroke-opacity:1;stop-color:#000000;stop-opacity:1"
       d="m 5.8716139,52.242654 c 25.3380401,-0.103671 39.2574011,8.996142 39.2574011,17.188194 0,8.192052 -12.375126,17.657451 -39.3785412,17.451311"
       id="path1418"
       sodipodi:nodetypes="czc" />
    <path
       style="font-variation-settings:normal;opacity:1;vector-effect:none;fill:none;fill-opacity:1;stroke:#808080;stroke-width:0.75;stroke-linecap:square;stroke-linejoin:miter;stroke-miterlimit:4.33333;stroke-dasharray:2.25, 2.25;stroke-dashoffset:0;stroke-opacity:1;stop-color:#000000;stop-opacity:1"
       d="m 69.367907,52.242654 c 25.33804,-0.103671 39.257393,8.996142 39.257393,17.188194 0,8.192052 -12.375118,17.657451 -39.378533,17.451311"
       id="path1420"
       sodipodi:nodetypes="czc" />
    <path
       style="font-variation-settings:normal;opacity:1;vector-effect:none;fill:none;fill-opacity:1;stroke:#808080;stroke-width:0.75;stroke-linecap:square;stroke-linejoin:miter;stroke-miterlimit:4.33333;stroke-dasharray:2.25, 2.25;stroke-dashoffset:0;stroke-opacity:1;stop-color:#000000;stop-opacity:1"
       d="m 132.8679,52.242654 c 25.33804,-0.103671 39.2574,8.996142 39.2574,17.188194 0,8.192052 -12.37512,17.657451 -39.37854,17.451311"
       id="path1422"
       sodipodi:nodetypes="czc" />
    <path
       id="path1431"
       style="font-variation-settings:normal;opacity:1;vector-effect:none;fill:none;fill-opacity:1;stroke:#808080;stroke-width:0.75;stroke-linecap:square;stroke-linejoin:miter;stroke-miterlimit:4.33333;stroke-dasharray:2.25, 2.25;stroke-dashoffset:0;stroke-opacity:1;stop-color:#000000;stop-opacity:1"
       d="M 109.54079,42.819319 92.153903,27.234902 M 86.671586,22.34571 69.799333,7.1977943 M 109.27529,7.413191 69.775349,42.434181"
       sodipodi:nodetypes="cccccc" />
    <path
       id="path1433"
       style="font-variation-settings:normal;opacity:1;vector-effect:none;fill:none;fill-opacity:1;stroke:#808080;stroke-width:0.75;stroke-linecap:square;stroke-linejoin:miter;stroke-miterlimit:4.33333;stroke-dasharray:2.25, 2.25;stroke-dashoffset:0;stroke-opacity:1;stop-color:#000000;stop-opacity:1"
       d="M 173.04079,42.819319 155.6539,27.234902 M 150.17158,22.34571 133.29933,7.1977943 m 39.47596,0.2153967 -39.49994,35.02099"
       sodipodi:nodetypes="cccccc" />
  </g>
  <g
     inkscape:groupmode="layer"
     id="layer2"
     inkscape:label="Layer 2"
     transform="translate(-1.1412516,-2.8582314)">
    <path
       style="font-variation-settings:normal;opacity:1;vector-effect:none;fill:none;fill-opacity:1;stroke:#3f3f3f;stroke-width:0.75;stroke-linecap:butt;stroke-linejoin:miter;stroke-miterlimit:4.33333;stroke-dasharray:none;stroke-dashoffset:0;stroke-opacity:1;marker-end:url(#Arrow1Mend);stop-color:#000000;stop-opacity:1"
       d="M 50.8,25.4 H 63.5"
       id="path1454" />
    <path
       style="font-variation-settings:normal;opacity:1;vector-effect:none;fill:none;fill-opacity:1;stroke:#3f3f3f;stroke-width:0.75;stroke-linecap:butt;stroke-linejoin:miter;stroke-miterlimit:4.33333;stroke-dasharray:none;stroke-dashoffset:0;stroke-opacity:1;marker-end:url(#marker1792);stop-color:#000000;stop-opacity:1"
       d="M 114.3,25.4 H 127"
       id="path1744" />
    <path
       style="font-variation-settings:normal;opacity:1;vector-effect:none;fill:none;fill-opacity:1;stroke:#3f3f3f;stroke-width:0.75;stroke-linecap:butt;stroke-linejoin:miter;stroke-miterlimit:4.33333;stroke-dasharray:none;stroke-dashoffset:0;stroke-opacity:1;marker-end:url(#marker1968);stop-color:#000000;stop-opacity:1"
       d="M 50.8,69.847583 H 63.5"
       id="path1876" />
    <path
       style="font-variation-settings:normal;opacity:1;vector-effect:none;fill:none;fill-opacity:1;stroke:#3f3f3f;stroke-width:0.75;stroke-linecap:butt;stroke-linejoin:miter;stroke-miterlimit:4.33333;stroke-dasharray:none;stroke-dashoffset:0;stroke-opacity:1;marker-end:url(#marker1958);stop-color:#000000;stop-opacity:1"
       d="M 114.3,69.847583 H 127"
       id="path1878" />
  </g>
  <g
     inkscape:groupmode="layer"
     id="layer3"
     inkscape:label="Layer 3"
     transform="translate(-1.1412516,-2.8582314)">
    <path
       style="font-variation-settings:normal;opacity:1;vector-effect:none;fill:none;fill-opacity:1;stroke:#000000;stroke-width:0.75;stroke-linecap:square;stroke-linejoin:miter;stroke-miterlimit:4.33333;stroke-dasharray:none;stroke-dashoffset:0;stroke-opacity:1;stop-color:#000000;stop-opacity:1"
       d="M 6.2796403,42.434181 C 20.491556,40.53429 26.505715,32.723192 33.814271,35.545531 26.585546,32.821832 25.593457,17.371141 18.549002,14.653013 c 7.025891,2.70386 12.07248,-4.330731 27.230587,-7.239822"
       id="path2147"
       sodipodi:nodetypes="cccc" />
    <path
       style="font-variation-settings:normal;opacity:1;vector-effect:none;fill:none;fill-opacity:1;stroke:#000000;stroke-width:0.75;stroke-linecap:square;stroke-linejoin:miter;stroke-miterlimit:4.33333;stroke-dasharray:none;stroke-dashoffset:0;stroke-opacity:1;stop-color:#000000;stop-opacity:1"
       d="M 8.1355292,7.0452964 C 7.1534355,9.0992766 10.277302,12.465834 5.9326691,15.16927 11.132828,12.080739 19.573446,19.083027 23.175877,22.34571 m 5.482319,4.889192 c 3.575654,3.225988 14.743683,12.148158 18.44165,9.251715 -3.407873,2.590858 -1.390798,4.554329 -2.613405,6.958027"
       id="path2149"
       sodipodi:nodetypes="cccccc" />
    <path
       style="font-variation-settings:normal;opacity:1;vector-effect:none;fill:none;fill-opacity:1;stroke:#000000;stroke-width:0.75;stroke-linecap:square;stroke-linejoin:miter;stroke-miterlimit:4.33333;stroke-dasharray:none;stroke-dashoffset:0;stroke-opacity:1;stop-color:#000000;stop-opacity:1"
       d="m 69.799333,7.1977943 c 3.556727,-0.186003 8.859982,3.9079927 11.784385,3.6531887 -2.491728,0.782877 -1.827422,6.99511 -5.178653,8.437155 1.314951,-0.451909 8.092554,0.740822 10.444715,3.208287 m 5.783727,5.313256 c 3.355196,3.155162 7.419683,3.360258 8.850683,2.707479 -2.925289,1.298363 -1.887537,8.323702 -5.651316,10.034249 3.664707,-1.723949 10.316876,3.097202 13.707916,2.26791"
       id="path2151"
       sodipodi:nodetypes="cccccccc" />
    <path
       style="font-variation-settings:normal;opacity:1;vector-effect:none;fill:none;fill-opacity:1;stroke:#000000;stroke-width:0.75;stroke-linecap:square;stroke-linejoin:miter;stroke-miterlimit:4.33333;stroke-dasharray:none;stroke-dashoffset:0;stroke-opacity:1;stop-color:#000000;stop-opacity:1"
       d="m 72.484511,42.324329 c -2.214858,-1.918107 -0.913285,-6.509875 -4.03194,-9.023331 3.109728,2.483904 21.662127,-0.797906 25.943774,2.599645 -4.263177,-3.412943 -5.360837,-18.061808 -9.975252,-21.21494 4.603641,3.174065 22.396047,-0.348387 25.540867,2.355309 -3.48405,-2.831447 -0.75617,-6.379777 -3.25485,-9.6554266"
       id="path2153"
       sodipodi:nodetypes="cccccc" />
    <path
       style="font-variation-settings:normal;opacity:1;vector-effect:none;fill:none;fill-opacity:1;stroke:#000000;stroke-width:0.75;stroke-linecap:square;stroke-linejoin:miter;stroke-miterlimit:4.33333;stroke-dasharray:none;stroke-dashoffset:0;stroke-opacity:1;stop-color:#000000;stop-opacity:1"
       d="m 150.69775,22.807101 c -1.42915,-1.499208 -5.52374,-1.747421 -8.23079,-1.18792 2.76591,-0.793854 0.33003,-7.308189 3.48818,-8.056751 -4.4862,1.106169 -11.49713,-2.47973 -14.46527,-1.052387 3.37942,-1.361971 0.73202,-4.3981695 1.80946,-5.3122487 m 22.47624,20.0111707 c 2.08981,2.254034 6.1787,2.315782 7.96546,1.883661 -1.96729,0.287364 -1.01778,6.100616 -4.46944,8.008611 3.66044,-1.693485 10.47178,1.281388 14.98624,-0.164589 -2.08011,0.671753 -0.40862,4.708446 -1.21704,5.882671"
       id="path2155"
       sodipodi:nodetypes="cccccccccc" />
    <path
       style="font-variation-settings:normal;opacity:1;vector-effect:none;fill:none;fill-opacity:1;stroke:#000000;stroke-width:0.75;stroke-linecap:square;stroke-linejoin:miter;stroke-miterlimit:4.33333;stroke-dasharray:none;stroke-dashoffset:0;stroke-opacity:1;stop-color:#000000;stop-opacity:1"
       d="m 172.77529,7.413191 c -0.96387,-0.7827588 -8.68746,2.94185 -11.91377,1.603366 3.16778,1.399429 2.42599,9.47571 4.67316,10.816579 -2.1767,-1.365678 -11.22435,1.081395 -14.02147,-0.847136 2.80368,1.915813 0.52532,10.263305 3.11559,12.336977 -2.60149,-2.064319 -11.63484,0.195868 -13.7585,-1.781982 2.29546,2.156067 -0.26851,7.953289 3.42935,10.599612 -3.48358,-2.527571 -10.38479,2.877062 -11.0243,2.293574"
       id="path2157"
       sodipodi:nodetypes="cccccccc" />
    <path
       style="font-variation-settings:normal;opacity:1;vector-effect:none;fill:none;fill-opacity:1;stroke:#000000;stroke-width:0.75;stroke-linecap:square;stroke-linejoin:miter;stroke-miterlimit:4.33333;stroke-dasharray:none;stroke-dashoffset:0;stroke-opacity:1;stop-color:#000000;stop-opacity:1"
       d="M 6.9299473,52.248385 C 25.529305,51.851544 34.562209,69.561536 46.133713,69.722336 34.585267,69.699278 25.536804,86.947362 6.808807,86.887892"
       id="path2159"
       sodipodi:nodetypes="ccc" />
    <path
       style="font-variation-settings:normal;opacity:1;vector-effect:none;fill:none;fill-opacity:1;stroke:#000000;stroke-width:0.75;stroke-linecap:square;stroke-linejoin:miter;stroke-miterlimit:4.33333;stroke-dasharray:none;stroke-dashoffset:0;stroke-opacity:1;stop-color:#000000;stop-opacity:1"
       d="m 70.425132,52.248385 c 21.970806,0 32.859718,11.47261 39.083508,11.47261 -5.91301,0 -6.69123,5.914859 -13.285024,5.82323 6.618064,0.01322 6.884624,6.199944 13.189164,6.199944 -6.2736,0 -14.926329,11.005763 -39.108788,11.143723"
       id="path2161"
       sodipodi:nodetypes="ccccc" />
    <path
       style="font-variation-settings:normal;opacity:1;vector-effect:none;fill:none;fill-opacity:1;stroke:#000000;stroke-width:0.75;stroke-linecap:square;stroke-linejoin:miter;stroke-miterlimit:4.33333;stroke-dasharray:none;stroke-dashoffset:0;stroke-opacity:1;stop-color:#000000;stop-opacity:1"
       d="m 133.92513,52.248385 c 24.90921,-0.03542 33.1563,8.074774 36.8782,6.86713 -2.9537,1.120655 -2.3305,4.205771 -5.94697,4.737332 3.7859,-0.529368 6.52496,5.330846 10.88027,5.391368 -4.45043,-0.0089 -6.3967,5.671522 -10.64238,5.185683 4.31875,0.580566 3.14306,4.006051 6.4068,5.299075 -3.39381,-1.38419 -9.04285,7.158919 -37.69706,7.158919"
       id="path2165"
       sodipodi:nodetypes="ccccccc" />
  </g>
</svg>
