<?xml version="1.0" encoding="UTF-8" standalone="no"?>
<svg
   xmlns:dc="http://purl.org/dc/elements/1.1/"
   xmlns:cc="http://creativecommons.org/ns#"
   xmlns:rdf="http://www.w3.org/1999/02/22-rdf-syntax-ns#"
   xmlns:svg="http://www.w3.org/2000/svg"
   xmlns="http://www.w3.org/2000/svg"
   xmlns:sodipodi="http://sodipodi.sourceforge.net/DTD/sodipodi-0.dtd"
   xmlns:inkscape="http://www.inkscape.org/namespaces/inkscape"
   width="100mm"
   height="100mm"
   viewBox="0 0 100 100"
   version="1.1"
   id="svg4"
   sodipodi:docname="chekanov 1.svg"
   inkscape:version="1.0.1 (3bc2e813f5, 2020-09-07)">
  <metadata
     id="metadata10">
    <rdf:RDF>
      <cc:Work
         rdf:about="">
        <dc:format>image/svg+xml</dc:format>
        <dc:type
           rdf:resource="http://purl.org/dc/dcmitype/StillImage" />
      </cc:Work>
    </rdf:RDF>
  </metadata>
  <defs
     id="defs8" />
  <sodipodi:namedview
     pagecolor="#ffffff"
     bordercolor="#666666"
     borderopacity="1"
     objecttolerance="10"
     gridtolerance="10"
     guidetolerance="10"
     inkscape:pageopacity="0"
     inkscape:pageshadow="2"
     inkscape:window-width="1291"
     inkscape:window-height="812"
     id="namedview6"
     showgrid="false"
     inkscape:zoom="0.93165285"
     inkscape:cx="292.23322"
     inkscape:cy="192.4926"
     inkscape:window-x="0"
     inkscape:window-y="0"
     inkscape:window-maximized="1"
     inkscape:current-layer="svg4" />
  <path
     style="fill:none;stroke:#000000;stroke-width:0.99999999;stroke-linecap:butt;stroke-linejoin:miter;stroke-opacity:1;stroke-miterlimit:4;stroke-dasharray:none"
     d="M 97.478748,25.944857       C 79.905428,25.944857 64.785159,44.538149 52.595920,44.538149         68.713272,44.538149 58.740707,64.833219 73.529893,64.833219         84.192256,64.833219 78.043181,43.803402 97.534238,43.803402         77.595312,43.803402 73.475077,25.588698 48.825144,25.588698         25.396688,25.588698 20.138876,43.567832 3.1980395,43.567832         20.320433,43.567832 22.440493,56.375364 50.554120,56.375364       c 19.061152,0         27.570973,5.2663080 47.262338,5.2663080         -5.691463,0        -11.717073,1.484593 -18.137932,8.0884000         -4.803548,5.359290 -9.9818250,10.68315 -16.814000,13.393750         -7.082470,3.024220 -15.192410,2.956350 -22.551502,1.0614700       C 29.401505,80.191538 23.731702,73.014217 15.941032,66.232269         12.786539,64.058109 10.955285,61.464432 3.3059805,61.464432         20.939170,61.464432 24.690079,44.282146 43.477328,44.282146         23.097656,44.282146 21.178478,31.575342 3.1953855,31.575342         9.3095299,31.575342 17.369416,29.430052 26.979335,21.171532         36.589254,12.91301  49.695366,13.130083 49.695366,13.130083         67.806975,13.130083 80.419407,25.944857 97.478748,25.944857       Z"
     id="path2" />
</svg>
