<?xml version="1.0" encoding="UTF-8" standalone="no"?>
<svg
   xmlns:dc="http://purl.org/dc/elements/1.1/"
   xmlns:cc="http://creativecommons.org/ns#"
   xmlns:rdf="http://www.w3.org/1999/02/22-rdf-syntax-ns#"
   xmlns:svg="http://www.w3.org/2000/svg"
   xmlns="http://www.w3.org/2000/svg"
   xmlns:sodipodi="http://sodipodi.sourceforge.net/DTD/sodipodi-0.dtd"
   xmlns:inkscape="http://www.inkscape.org/namespaces/inkscape"
   width="100mm"
   height="100mm"
   viewBox="0 0 100 100"
   version="1.1"
   id="svg4"
   sodipodi:docname="chekanov 1.svg"
   inkscape:version="1.0.2 (e86c870879, 2021-01-15)">
  <metadata
     id="metadata10">
    <rdf:RDF>
      <cc:Work
         rdf:about="">
        <dc:format>image/svg+xml</dc:format>
        <dc:type
           rdf:resource="http://purl.org/dc/dcmitype/StillImage" />
      </cc:Work>
    </rdf:RDF>
  </metadata>
  <defs
     id="defs8" />
  <sodipodi:namedview
     pagecolor="#ffffff"
     bordercolor="#666666"
     borderopacity="1"
     objecttolerance="10"
     gridtolerance="10"
     guidetolerance="10"
     inkscape:pageopacity="0"
     inkscape:pageshadow="2"
     inkscape:window-width="1536"
     inkscape:window-height="864"
     id="namedview6"
     showgrid="false"
     inkscape:zoom="2.4742071"
     inkscape:cx="207.10881"
     inkscape:cy="136.49124"
     inkscape:window-x="0"
     inkscape:window-y="0"
     inkscape:window-maximized="1"
     inkscape:current-layer="svg4"
     inkscape:document-rotation="0" />
  <path
     style="fill:none;stroke:#000000;stroke-width:1;stroke-linecap:butt;stroke-linejoin:miter;stroke-miterlimit:4;stroke-dasharray:none;stroke-opacity:1"
     d="m 19.219735,37.891405 c -4.197573,3.700824 -8.871743,5.676427 -16.0216955,5.676427 17.1223935,0 19.2424535,12.807532 47.3560805,12.807532 5.453189,0 7.959343,0.301782 12.19423,0.917218 m 3.299877,0.361728 c 4.749114,0.618008 17.710352,3.987362 31.768231,3.987362 -5.691463,0 -11.717073,1.484593 -18.137932,8.0884 -4.803548,5.35929 -9.981825,10.68315 -16.814,13.39375 -7.08247,3.02422 -15.19241,2.95635 -22.551502,1.06147 C 29.401505,80.191538 23.731702,73.014217 15.941032,66.232269 12.786539,64.058109 10.955285,61.464432 3.3059805,61.464432 c 10.1477985,0 13.7428205,-4.241761 20.2070635,-9.0732 m 3.169735,-2.382433 c 4.768264,-3.563848 8.819253,-5.726653 16.794549,-5.726653 -20.379672,0 -22.29885,-12.706804 -40.2819425,-12.706804 6.1141444,0 14.1740305,-2.14529 23.7839495,-10.40381 9.609919,-8.258522 22.716031,-8.041449 22.716031,-8.041449 18.111609,0 30.724041,12.814774 47.783382,12.814774 -7.899246,0 -14.835329,3.515879 -21.699875,7.652117 m -2.712299,1.667965 c -8.406893,5.065581 -13.760505,9.27321 -20.470654,9.27321 16.117352,0 6.144787,20.29507 20.933973,20.29507 3.572971,0 4.765986,-0.943186 5.791422,-3.284704 m 1.216744,-2.959697 c 2.76751,-6.230925 4.036599,-14.785416 16.996179,-14.785416 -19.938926,0 -24.059161,-18.214704 -48.709094,-18.214704 -13.540376,0 -20.632526,4.728399 -26.792072,10.303742"
     id="path2"
     sodipodi:nodetypes="ccsccccccccccccscccccscccsc" />
</svg>
