<?xml version="1.0" encoding="UTF-8" standalone="no"?>
<svg
   xmlns:dc="http://purl.org/dc/elements/1.1/"
   xmlns:cc="http://creativecommons.org/ns#"
   xmlns:rdf="http://www.w3.org/1999/02/22-rdf-syntax-ns#"
   xmlns:svg="http://www.w3.org/2000/svg"
   xmlns="http://www.w3.org/2000/svg"
   xmlns:sodipodi="http://sodipodi.sourceforge.net/DTD/sodipodi-0.dtd"
   xmlns:inkscape="http://www.inkscape.org/namespaces/inkscape"
   width="100mm"
   height="100mm"
   viewBox="0 0 100 100"
   version="1.1"
   id="svg8"
   sodipodi:docname="chekanov 2.svg"
   inkscape:version="1.0.2 (e86c870879, 2021-01-15)">
  <metadata
     id="metadata9">
    <rdf:RDF>
      <cc:Work
         rdf:about="">
        <dc:format>image/svg+xml</dc:format>
        <dc:type
           rdf:resource="http://purl.org/dc/dcmitype/StillImage" />
      </cc:Work>
    </rdf:RDF>
  </metadata>
  <defs
     id="defs7" />
  <sodipodi:namedview
     pagecolor="#ffffff"
     bordercolor="#666666"
     borderopacity="1"
     objecttolerance="10"
     gridtolerance="10"
     guidetolerance="10"
     inkscape:pageopacity="0"
     inkscape:pageshadow="2"
     inkscape:window-width="1111"
     inkscape:window-height="812"
     id="namedview5"
     showgrid="false"
     inkscape:zoom="1.8880326"
     inkscape:cx="212.14181"
     inkscape:cy="208.64057"
     inkscape:window-x="0"
     inkscape:window-y="0"
     inkscape:window-maximized="1"
     inkscape:current-layer="svg8"
     inkscape:document-rotation="0" />
  <path
     style="fill:none;stroke:#000000;stroke-width:1;stroke-linecap:butt;stroke-linejoin:miter;stroke-miterlimit:4;stroke-dasharray:none;stroke-opacity:1"
     d="m 18.786471,50.628701 c -6.210712,7.181612 -10.0937625,11.21511 -16.6325192,11.21511 17.8723372,0 22.8977732,22.22494 43.8784962,22.22494 23.220326,0 34.398409,-22.281175 50.945177,-22.281175 -10.709393,0 -18.095759,-5.475723 -41.239521,-5.475723 m -5.154027,-0.04021 c -21.8129,0 -33.156691,-11.285116 -48.195051,-11.285116 15.312615,0 23.4837,-28.026918 44.222852,-28.026918 25.176289,0 30.219056,11.262946 50.469098,11.262946 -6.673383,0 -14.040366,2.021287 -23.849162,4.595392 m -5.834198,1.437834 c -11.15302,2.926867 -18.943213,5.014149 -26.044728,5.014149 12.474681,0 41.704145,11.302101 55.817401,11.302101 -7.141131,0 -9.986126,3.606914 -13.273544,7.774546 m -1.959777,2.636608 c -3.350597,4.247727 -5.184927,6.421089 -12.733222,6.421089 -16.874072,0 -11.216376,-16.71162 -27.686034,-16.71162 9.044909,0 15.324731,-1.730837 25.546003,-4.656666 m 5.779608,-1.624681 c 9.717236,-2.781548 17.648742,-5.140705 24.433421,-5.140705 -20.020675,0 -34.428048,-11.195698 -49.835805,-11.195698 -9.968115,0 -17.936069,10.356406 -26.065701,19.756916"
     id="path2"
     sodipodi:nodetypes="ccsccccscccccccsccccsc" />
</svg>
