<?xml version="1.0" encoding="UTF-8" standalone="no"?>
<svg
   xmlns:dc="http://purl.org/dc/elements/1.1/"
   xmlns:cc="http://creativecommons.org/ns#"
   xmlns:rdf="http://www.w3.org/1999/02/22-rdf-syntax-ns#"
   xmlns:svg="http://www.w3.org/2000/svg"
   xmlns="http://www.w3.org/2000/svg"
   xmlns:xlink="http://www.w3.org/1999/xlink"
   xmlns:sodipodi="http://sodipodi.sourceforge.net/DTD/sodipodi-0.dtd"
   xmlns:inkscape="http://www.inkscape.org/namespaces/inkscape"
   width="12.130014in"
   height="1.833075in"
   viewBox="0 0 308.10235 46.560104"
   version="1.1"
   id="svg8"
   inkscape:version="1.0.2 (e86c870879, 2021-01-15)"
   sodipodi:docname="cobordism-movie-g0-short.svg">
  <defs
     id="defs2">
    <linearGradient
       inkscape:collect="always"
       id="linearGradient2442">
      <stop
         style="stop-color:#030d22;stop-opacity:1"
         offset="0"
         id="stop2438" />
      <stop
         style="stop-color:#124aba;stop-opacity:1"
         offset="1"
         id="stop2440" />
    </linearGradient>
    <marker
       style="overflow:visible"
       id="marker1128"
       refX="0"
       refY="0"
       orient="auto"
       inkscape:stockid="Arrow1Mend"
       inkscape:isstock="true">
      <path
         transform="matrix(-0.4,0,0,-0.4,-4,0)"
         style="fill:#808080;fill-opacity:1;fill-rule:evenodd;stroke:#808080;stroke-width:1pt;stroke-opacity:1"
         d="M 0,0 5,-5 -12.5,0 5,5 Z"
         id="path1126" />
    </marker>
    <marker
       style="overflow:visible"
       id="marker1118"
       refX="0"
       refY="0"
       orient="auto"
       inkscape:stockid="Arrow2Mend"
       inkscape:isstock="true">
      <path
         transform="scale(-0.6)"
         d="M 8.7185878,4.0337352 -2.2072895,0.01601326 8.7185884,-4.0017078 c -1.7454984,2.3720609 -1.7354408,5.6174519 -6e-7,8.035443 z"
         style="fill:#000000;fill-opacity:0.968907;fill-rule:evenodd;stroke:#000000;stroke-width:0.625;stroke-linejoin:round;stroke-opacity:0.968907"
         id="path1116" />
    </marker>
    <marker
       style="overflow:visible"
       id="marker5624"
       refX="0"
       refY="0"
       orient="auto"
       inkscape:stockid="Arrow1Mend"
       inkscape:isstock="true">
      <path
         transform="matrix(-0.4,0,0,-0.4,-4,0)"
         style="fill:#808080;fill-opacity:1;fill-rule:evenodd;stroke:#808080;stroke-width:1pt;stroke-opacity:1"
         d="M 0,0 5,-5 -12.5,0 5,5 Z"
         id="path5622" />
    </marker>
    <marker
       style="overflow:visible"
       id="marker5412"
       refX="0"
       refY="0"
       orient="auto"
       inkscape:stockid="Arrow1Mend"
       inkscape:isstock="true">
      <path
         transform="matrix(-0.4,0,0,-0.4,-4,0)"
         style="fill:#808080;fill-opacity:1;fill-rule:evenodd;stroke:#808080;stroke-width:1pt;stroke-opacity:1"
         d="M 0,0 5,-5 -12.5,0 5,5 Z"
         id="path5410" />
    </marker>
    <marker
       style="overflow:visible"
       id="marker5222"
       refX="0"
       refY="0"
       orient="auto"
       inkscape:stockid="Arrow1Mend"
       inkscape:isstock="true">
      <path
         transform="matrix(-0.4,0,0,-0.4,-4,0)"
         style="fill:#808080;fill-opacity:1;fill-rule:evenodd;stroke:#808080;stroke-width:1pt;stroke-opacity:1"
         d="M 0,0 5,-5 -12.5,0 5,5 Z"
         id="path5220" />
    </marker>
    <marker
       style="overflow:visible"
       id="marker5038"
       refX="0"
       refY="0"
       orient="auto"
       inkscape:stockid="Arrow1Mend"
       inkscape:isstock="true">
      <path
         transform="matrix(-0.4,0,0,-0.4,-4,0)"
         style="fill:#808080;fill-opacity:1;fill-rule:evenodd;stroke:#808080;stroke-width:1pt;stroke-opacity:1"
         d="M 0,0 5,-5 -12.5,0 5,5 Z"
         id="path5036" />
    </marker>
    <marker
       style="overflow:visible"
       id="marker4584"
       refX="0"
       refY="0"
       orient="auto"
       inkscape:stockid="Arrow1Mend"
       inkscape:isstock="true">
      <path
         transform="matrix(-0.4,0,0,-0.4,-4,0)"
         style="fill:#000000;fill-opacity:0.968907;fill-rule:evenodd;stroke:#000000;stroke-width:1pt;stroke-opacity:0.968907"
         d="M 0,0 5,-5 -12.5,0 5,5 Z"
         id="path4582" />
    </marker>
    <marker
       style="overflow:visible"
       id="marker4574"
       refX="0"
       refY="0"
       orient="auto"
       inkscape:stockid="Arrow1Mend"
       inkscape:isstock="true">
      <path
         transform="matrix(-0.4,0,0,-0.4,-4,0)"
         style="fill:#000000;fill-opacity:0.968907;fill-rule:evenodd;stroke:#000000;stroke-width:1pt;stroke-opacity:0.968907"
         d="M 0,0 5,-5 -12.5,0 5,5 Z"
         id="path4572" />
    </marker>
    <marker
       style="overflow:visible"
       id="marker4396"
       refX="0"
       refY="0"
       orient="auto"
       inkscape:stockid="Arrow1Mend"
       inkscape:isstock="true">
      <path
         transform="matrix(-0.4,0,0,-0.4,-4,0)"
         style="fill:#000000;fill-opacity:0.968907;fill-rule:evenodd;stroke:#000000;stroke-width:1pt;stroke-opacity:0.968907"
         d="M 0,0 5,-5 -12.5,0 5,5 Z"
         id="path4394" />
    </marker>
    <marker
       style="overflow:visible"
       id="marker4230"
       refX="0"
       refY="0"
       orient="auto"
       inkscape:stockid="Arrow1Mend"
       inkscape:isstock="true">
      <path
         transform="matrix(-0.4,0,0,-0.4,-4,0)"
         style="fill:#000000;fill-opacity:0.968907;fill-rule:evenodd;stroke:#000000;stroke-width:1pt;stroke-opacity:0.968907"
         d="M 0,0 5,-5 -12.5,0 5,5 Z"
         id="path4228" />
    </marker>
    <marker
       style="overflow:visible"
       id="marker4070"
       refX="0"
       refY="0"
       orient="auto"
       inkscape:stockid="Arrow1Mend"
       inkscape:isstock="true">
      <path
         transform="matrix(-0.4,0,0,-0.4,-4,0)"
         style="fill:#000000;fill-opacity:0.968907;fill-rule:evenodd;stroke:#000000;stroke-width:1pt;stroke-opacity:0.968907"
         d="M 0,0 5,-5 -12.5,0 5,5 Z"
         id="path4068" />
    </marker>
    <marker
       style="overflow:visible"
       id="marker3656"
       refX="0"
       refY="0"
       orient="auto"
       inkscape:stockid="Arrow1Send"
       inkscape:isstock="true">
      <path
         transform="matrix(-0.2,0,0,-0.2,-1.2,0)"
         style="fill:#000000;fill-opacity:0.968907;fill-rule:evenodd;stroke:#000000;stroke-width:1pt;stroke-opacity:0.968907"
         d="M 0,0 5,-5 -12.5,0 5,5 Z"
         id="path3654" />
    </marker>
    <marker
       style="overflow:visible"
       id="marker3640"
       refX="0"
       refY="0"
       orient="auto"
       inkscape:stockid="Arrow1Send"
       inkscape:isstock="true">
      <path
         transform="matrix(-0.2,0,0,-0.2,-1.2,0)"
         style="fill:#000000;fill-opacity:0.968907;fill-rule:evenodd;stroke:#000000;stroke-width:1pt;stroke-opacity:0.968907"
         d="M 0,0 5,-5 -12.5,0 5,5 Z"
         id="path3638" />
    </marker>
    <marker
       style="overflow:visible"
       id="marker3624"
       refX="0"
       refY="0"
       orient="auto"
       inkscape:stockid="Arrow1Send"
       inkscape:isstock="true">
      <path
         transform="matrix(-0.2,0,0,-0.2,-1.2,0)"
         style="fill:#000000;fill-opacity:0.968907;fill-rule:evenodd;stroke:#000000;stroke-width:1pt;stroke-opacity:0.968907"
         d="M 0,0 5,-5 -12.5,0 5,5 Z"
         id="path3622" />
    </marker>
    <marker
       style="overflow:visible"
       id="marker3476"
       refX="0"
       refY="0"
       orient="auto"
       inkscape:stockid="Arrow1Send"
       inkscape:isstock="true">
      <path
         transform="matrix(-0.2,0,0,-0.2,-1.2,0)"
         style="fill:#000000;fill-opacity:0.968907;fill-rule:evenodd;stroke:#000000;stroke-width:1pt;stroke-opacity:0.968907"
         d="M 0,0 5,-5 -12.5,0 5,5 Z"
         id="path3474" />
    </marker>
    <marker
       style="overflow:visible"
       id="marker3328"
       refX="0"
       refY="0"
       orient="auto"
       inkscape:stockid="Arrow1Send"
       inkscape:isstock="true">
      <path
         transform="matrix(-0.2,0,0,-0.2,-1.2,0)"
         style="fill:#000000;fill-opacity:0.968907;fill-rule:evenodd;stroke:#000000;stroke-width:1pt;stroke-opacity:0.968907"
         d="M 0,0 5,-5 -12.5,0 5,5 Z"
         id="path3326" />
    </marker>
    <marker
       style="overflow:visible"
       id="marker2911"
       refX="0"
       refY="0"
       orient="auto"
       inkscape:stockid="Arrow1Send"
       inkscape:isstock="true">
      <path
         transform="matrix(-0.2,0,0,-0.2,-1.2,0)"
         style="fill:#000000;fill-opacity:0.968907;fill-rule:evenodd;stroke:#000000;stroke-width:1pt;stroke-opacity:0.968907"
         d="M 0,0 5,-5 -12.5,0 5,5 Z"
         id="path2909" />
    </marker>
    <marker
       style="overflow:visible"
       id="marker2585"
       refX="0"
       refY="0"
       orient="auto"
       inkscape:stockid="Arrow1Send"
       inkscape:isstock="true">
      <path
         transform="matrix(-0.2,0,0,-0.2,-1.2,0)"
         style="fill:#000000;fill-opacity:0.968907;fill-rule:evenodd;stroke:#000000;stroke-width:1pt;stroke-opacity:0.968907"
         d="M 0,0 5,-5 -12.5,0 5,5 Z"
         id="path2583" />
    </marker>
    <marker
       style="overflow:visible"
       id="marker2343"
       refX="0"
       refY="0"
       orient="auto"
       inkscape:stockid="Arrow1Send"
       inkscape:isstock="true">
      <path
         transform="matrix(-0.2,0,0,-0.2,-1.2,0)"
         style="fill:#000000;fill-opacity:0.968907;fill-rule:evenodd;stroke:#000000;stroke-width:1pt;stroke-opacity:0.968907"
         d="M 0,0 5,-5 -12.5,0 5,5 Z"
         id="path2341" />
    </marker>
    <marker
       style="overflow:visible"
       id="marker2231"
       refX="0"
       refY="0"
       orient="auto"
       inkscape:stockid="Arrow1Send"
       inkscape:isstock="true">
      <path
         transform="matrix(-0.2,0,0,-0.2,-1.2,0)"
         style="fill:#000000;fill-opacity:0.968907;fill-rule:evenodd;stroke:#000000;stroke-width:1pt;stroke-opacity:0.968907"
         d="M 0,0 5,-5 -12.5,0 5,5 Z"
         id="path2229" />
    </marker>
    <marker
       style="overflow:visible"
       id="marker2053"
       refX="0"
       refY="0"
       orient="auto"
       inkscape:stockid="Arrow1Mend"
       inkscape:isstock="true">
      <path
         transform="matrix(-0.4,0,0,-0.4,-4,0)"
         style="fill:#000000;fill-opacity:0.968907;fill-rule:evenodd;stroke:#000000;stroke-width:1pt;stroke-opacity:0.968907"
         d="M 0,0 5,-5 -12.5,0 5,5 Z"
         id="path2051" />
    </marker>
    <marker
       style="overflow:visible"
       id="marker1959"
       refX="0"
       refY="0"
       orient="auto"
       inkscape:stockid="Arrow1Mend"
       inkscape:isstock="true">
      <path
         transform="matrix(-0.4,0,0,-0.4,-4,0)"
         style="fill:#000000;fill-opacity:0.968907;fill-rule:evenodd;stroke:#000000;stroke-width:1pt;stroke-opacity:0.968907"
         d="M 0,0 5,-5 -12.5,0 5,5 Z"
         id="path1957" />
    </marker>
    <marker
       style="overflow:visible"
       id="marker1871"
       refX="0"
       refY="0"
       orient="auto"
       inkscape:stockid="Arrow1Mend"
       inkscape:isstock="true">
      <path
         transform="matrix(-0.4,0,0,-0.4,-4,0)"
         style="fill:#000000;fill-opacity:0.968907;fill-rule:evenodd;stroke:#000000;stroke-width:1pt;stroke-opacity:0.968907"
         d="M 0,0 5,-5 -12.5,0 5,5 Z"
         id="path1869" />
    </marker>
    <marker
       style="overflow:visible"
       id="marker1651"
       refX="0"
       refY="0"
       orient="auto"
       inkscape:stockid="Arrow1Lend"
       inkscape:isstock="true">
      <path
         transform="matrix(-0.8,0,0,-0.8,-10,0)"
         style="fill:#000000;fill-opacity:0.968907;fill-rule:evenodd;stroke:#000000;stroke-width:1pt;stroke-opacity:0.968907"
         d="M 0,0 5,-5 -12.5,0 5,5 Z"
         id="path1649" />
    </marker>
    <marker
       style="overflow:visible"
       id="marker1641"
       refX="0"
       refY="0"
       orient="auto"
       inkscape:stockid="Arrow1Lend"
       inkscape:isstock="true">
      <path
         transform="matrix(-0.8,0,0,-0.8,-10,0)"
         style="fill:#000000;fill-opacity:0.968907;fill-rule:evenodd;stroke:#000000;stroke-width:1pt;stroke-opacity:0.968907"
         d="M 0,0 5,-5 -12.5,0 5,5 Z"
         id="path1639" />
    </marker>
    <marker
       style="overflow:visible"
       id="marker1577"
       refX="0"
       refY="0"
       orient="auto"
       inkscape:stockid="Arrow1Lend"
       inkscape:isstock="true">
      <path
         transform="matrix(-0.8,0,0,-0.8,-10,0)"
         style="fill:#000000;fill-opacity:0.968907;fill-rule:evenodd;stroke:#000000;stroke-width:1pt;stroke-opacity:0.968907"
         d="M 0,0 5,-5 -12.5,0 5,5 Z"
         id="path1575" />
    </marker>
    <marker
       style="overflow:visible"
       id="marker1519"
       refX="0"
       refY="0"
       orient="auto"
       inkscape:stockid="Arrow1Lend"
       inkscape:isstock="true">
      <path
         transform="matrix(-0.8,0,0,-0.8,-10,0)"
         style="fill:#000000;fill-opacity:0.968907;fill-rule:evenodd;stroke:#000000;stroke-width:1pt;stroke-opacity:0.968907"
         d="M 0,0 5,-5 -12.5,0 5,5 Z"
         id="path1517" />
    </marker>
    <marker
       style="overflow:visible"
       id="marker1467"
       refX="0"
       refY="0"
       orient="auto"
       inkscape:stockid="Arrow1Lend"
       inkscape:isstock="true">
      <path
         transform="matrix(-0.8,0,0,-0.8,-10,0)"
         style="fill:#000000;fill-opacity:0.968907;fill-rule:evenodd;stroke:#000000;stroke-width:1pt;stroke-opacity:0.968907"
         d="M 0,0 5,-5 -12.5,0 5,5 Z"
         id="path1465" />
    </marker>
    <marker
       style="overflow:visible"
       id="marker1293"
       refX="0"
       refY="0"
       orient="auto"
       inkscape:stockid="Arrow1Mstart"
       inkscape:isstock="true">
      <path
         transform="matrix(0.4,0,0,0.4,4,0)"
         style="fill:#000000;fill-opacity:0.968907;fill-rule:evenodd;stroke:#000000;stroke-width:1pt;stroke-opacity:0.968907"
         d="M 0,0 5,-5 -12.5,0 5,5 Z"
         id="path1291" />
    </marker>
    <marker
       style="overflow:visible"
       id="marker1283"
       refX="0"
       refY="0"
       orient="auto"
       inkscape:stockid="Arrow1Mstart"
       inkscape:isstock="true">
      <path
         transform="matrix(0.4,0,0,0.4,4,0)"
         style="fill:#000000;fill-opacity:0.968907;fill-rule:evenodd;stroke:#000000;stroke-width:1pt;stroke-opacity:0.968907"
         d="M 0,0 5,-5 -12.5,0 5,5 Z"
         id="path1281" />
    </marker>
    <marker
       style="overflow:visible"
       id="marker1249"
       refX="0"
       refY="0"
       orient="auto"
       inkscape:stockid="Arrow1Mstart"
       inkscape:isstock="true">
      <path
         transform="matrix(0.4,0,0,0.4,4,0)"
         style="fill:#000000;fill-opacity:0.968907;fill-rule:evenodd;stroke:#000000;stroke-width:1pt;stroke-opacity:0.968907"
         d="M 0,0 5,-5 -12.5,0 5,5 Z"
         id="path1247" />
    </marker>
    <marker
       style="overflow:visible"
       id="marker1221"
       refX="0"
       refY="0"
       orient="auto"
       inkscape:stockid="Arrow1Mstart"
       inkscape:isstock="true">
      <path
         transform="matrix(0.4,0,0,0.4,4,0)"
         style="fill:#000000;fill-opacity:0.968907;fill-rule:evenodd;stroke:#000000;stroke-width:1pt;stroke-opacity:0.968907"
         d="M 0,0 5,-5 -12.5,0 5,5 Z"
         id="path1219" />
    </marker>
    <marker
       style="overflow:visible"
       id="marker1199"
       refX="0"
       refY="0"
       orient="auto"
       inkscape:stockid="Arrow1Mstart"
       inkscape:isstock="true">
      <path
         transform="matrix(0.4,0,0,0.4,4,0)"
         style="fill:#000000;fill-opacity:0.968907;fill-rule:evenodd;stroke:#000000;stroke-width:1pt;stroke-opacity:0.968907"
         d="M 0,0 5,-5 -12.5,0 5,5 Z"
         id="path1197" />
    </marker>
    <linearGradient
       inkscape:collect="always"
       xlink:href="#linearGradient2442"
       id="linearGradient2444"
       x1="249.68968"
       y1="26.574268"
       x2="279.69424"
       y2="31.664148"
       gradientUnits="userSpaceOnUse" />
    <linearGradient
       inkscape:collect="always"
       xlink:href="#linearGradient2442"
       id="linearGradient2452"
       x1="254.9631"
       y1="23.336786"
       x2="274.51547"
       y2="27.340126"
       gradientUnits="userSpaceOnUse" />
  </defs>
  <sodipodi:namedview
     id="base"
     pagecolor="#ffffff"
     bordercolor="#000000"
     borderopacity="1"
     inkscape:pageopacity="0.0"
     inkscape:pageshadow="2"
     inkscape:zoom="3.3713767"
     inkscape:cx="673.65871"
     inkscape:cy="133.2776"
     inkscape:document-units="in"
     inkscape:current-layer="layer2"
     inkscape:document-rotation="0"
     showgrid="true"
     units="mm"
     showguides="true"
     inkscape:pagecheckerboard="false"
     showborder="true"
     inkscape:showpageshadow="true"
     borderlayer="true"
     inkscape:window-width="1536"
     inkscape:window-height="834"
     inkscape:window-x="0"
     inkscape:window-y="0"
     inkscape:window-maximized="1"
     inkscape:snap-grids="true"
     fit-margin-top="0.15"
     fit-margin-left="0.05"
     fit-margin-bottom="0.1"
     fit-margin-right="0.05"
     inkscape:snap-global="false"
     lock-margins="true">
    <inkscape:grid
       type="xygrid"
       id="grid10"
       dotted="false"
       units="in"
       spacingx="25.4"
       spacingy="16.933164"
       empspacing="3"
       visible="true"
       snapvisiblegridlinesonly="true"
       empcolor="#3f3fff"
       empopacity="0.41568627"
       originx="1.261547"
       originy="0.11064851"
       enabled="false" />
  </sodipodi:namedview>
  <metadata
     id="metadata5">
    <rdf:RDF>
      <cc:Work
         rdf:about="">
        <dc:format>image/svg+xml</dc:format>
        <dc:type
           rdf:resource="http://purl.org/dc/dcmitype/StillImage" />
        <dc:title />
      </cc:Work>
    </rdf:RDF>
  </metadata>
  <g
     inkscape:label="Layer 1"
     inkscape:groupmode="layer"
     id="layer1"
     transform="translate(1.2615455,0.11065132)">
    <path
       style="font-variation-settings:normal;vector-effect:none;fill:none;fill-opacity:1;stroke:#124aba;stroke-width:0.9;stroke-linecap:square;stroke-linejoin:miter;stroke-miterlimit:3;stroke-dasharray:none;stroke-dashoffset:0;stroke-opacity:1;paint-order:normal;stop-color:#000000"
       d="m 132.31085,43.459452 c -6.31062,1.9e-4 -12.70457,-8.467597 -16.93444,-8.466581 4.22987,-10e-4 10.62255,-8.466583 16.93317,-8.466582 6.31062,1e-6 12.69568,8.466582 16.93316,8.466582 -4.23748,0 -10.62127,8.466391 -16.93189,8.466581 z"
       id="path18"
       sodipodi:nodetypes="zczcz" />
    <g
       id="g2273"
       transform="translate(-0.02871713,-2.047412)"
       style="stroke-width:0.889;stroke-miterlimit:3;stroke-dasharray:none">
      <path
         style="font-variation-settings:normal;opacity:1;vector-effect:none;fill:none;fill-opacity:1;stroke:#124aba;stroke-width:0.889;stroke-linecap:square;stroke-linejoin:miter;stroke-miterlimit:3;stroke-dasharray:none;stroke-dashoffset:0;stroke-opacity:1;paint-order:normal;stop-color:#000000;stop-opacity:1"
         d="m 206.87788,25.960425 c 0.28114,-0.288181 1.90855,-0.910703 3.27422,-0.623715 6.1853,1.299809 11.28797,9.384966 15.52545,9.384966 -4.23748,0 -9.28669,8.368977 -15.59731,8.369167 -6.31062,1.9e-4 -12.70457,-8.46759 -16.93444,-8.46658 3.56693,-0.02943 5.9269,-2.53657 8.7624,-4.770845 m 2.26578,-1.686841 0.39519,-0.320398"
         id="path98"
         sodipodi:nodetypes="csczcccc" />
      <path
         style="font-variation-settings:normal;opacity:1;vector-effect:none;fill:none;fill-opacity:1;stroke:#000000;stroke-width:0.889;stroke-linecap:square;stroke-linejoin:miter;stroke-miterlimit:3;stroke-dasharray:none;stroke-dashoffset:0;stroke-opacity:1;paint-order:normal;stop-color:#000000;stop-opacity:1"
         d="m 192.99843,18.681793 -0.27179,0.302356 m -1.9585,2.186956 c -0.98195,1.303445 -4.86658,4.185496 -8.55109,4.160842 -7.90345,-0.05288 -11.54994,-6.439189 -17.8949,-6.438681 6.34496,-5.08e-4 12.69977,-12.7020056 29.63243,-12.7020056 16.93265,0 27.53035,15.3276906 31.76352,15.3276906 -2.68378,0 -4.55163,3.526623 -6.95113,6.573051 m -1.98209,2.729673 c -0.90919,1.271875 -3.22004,2.0641 -6.3188,2.0641 -1.47814,0 -3.55306,-0.595388 -5.22906,-1.923364 -1.676,-1.327976 -2.95977,-1.893074 -3.98904,-6.649549 m -25.44821,1.062475 c -2.22929,3.056689 -3.67249,4.302086 -5.16049,4.302086 2.11658,0 4.26553,4.561513 6.38211,4.561513 -8.4582,10e-4 -8.91417,-4.435448 -13.15546,-4.435448 2.05199,-0.0582 5.68614,-0.869667 8.94484,-5.988264 m 1.63804,-2.475309 c 3.10315,-4.244047 7.7894,-6.396696 11.47999,-6.296118 2.26439,0.06171 4.08058,0.321047 5.22686,0.83303 1.14628,0.511984 2.13163,0.957008 2.95962,2.01729 1.496,1.915691 0.26772,3.980762 1.17791,4.874175 m 20.88114,3.866143 c 1.46414,-2.317659 2.39455,-5.24669 3.84712,-5.24669 -2.11658,0 -10.06054,-7.505635 -15.62892,-8.324469 -3.17728,-0.467221 -7.69008,1.634201 -9.39459,3.598484"
         id="path100"
         sodipodi:nodetypes="cccsczcccczcccccccszscccsc" />
    </g>
    <g
       id="g2331">
      <path
         style="font-variation-settings:normal;opacity:1;vector-effect:none;fill:none;fill-opacity:1;stroke:#000000;stroke-width:0.9;stroke-linecap:square;stroke-linejoin:miter;stroke-miterlimit:3;stroke-dasharray:none;stroke-dashoffset:0;stroke-opacity:1;paint-order:normal;stop-color:#000000;stop-opacity:1"
         d="m 45.419576,26.242507 c 0.365806,-0.254392 0.95111,-0.682409 1.233793,-1.227152 m 1.218781,-2.969106 c 0.709766,-1.600127 6.440533,-4.183319 8.745276,-4.218746 -4.23317,0 -12.160714,-7.8684827 -18.510464,-7.8684827 -6.34974,0 -12.69949,14.8160737 -21.165818,14.8160737 -8.4663271,0 -10.5877329,-6.349746 -16.93265354,-6.349238 C 6.3534111,18.425348 8.4748169,12.075602 25.407472,5.7258577 42.340132,-0.62388823 62.967166,17.827503 67.200336,17.827503 c -4.184938,0.0038 -11.288993,10.490989 -22.715322,4.551196 m -6.19347,0.863768 c -0.381311,0.248001 -0.823573,0.566267 -1.227859,0.956771 m -2.41198,2.182717 c -3.332595,2.768069 -8.653821,3.416493 -9.38549,3.416493 1.662469,0 3.324939,4.987414 6.649878,4.987414 -6.649886,0 -9.970827,-4.987414 -14.962234,-4.987015 5.427182,-0.01938 16.023588,-8.352116 18.980543,-4.45142 0.616468,0.81322 1.652554,1.641444 2.409236,1.888867"
         id="path887"
         sodipodi:nodetypes="cccczzczccccccccsc" />
      <path
         style="font-variation-settings:normal;opacity:1;vector-effect:none;fill:none;fill-opacity:1;stroke:#000000;stroke-width:0.889;stroke-linecap:butt;stroke-linejoin:miter;stroke-miterlimit:4.33333;stroke-dasharray:0.889, 0.889;stroke-dashoffset:0;stroke-opacity:1;stop-color:#000000;stop-opacity:1"
         d="m 38.520901,25.283897 6.065427,-0.984839"
         id="path2317"
         sodipodi:nodetypes="cc" />
    </g>
    <text
       xml:space="preserve"
       style="font-size:14.2146px;line-height:1.25;font-family:'Source Serif Pro';-inkscape-font-specification:'Source Serif Pro';text-align:center;letter-spacing:0px;text-anchor:middle;fill:#4d4d4d;fill-opacity:1;stroke-width:0.266525"
       x="42.191376"
       y="-27.528763"
       id="text2321"
       transform="matrix(0.13412578,0.82932114,-1.176594,0.18061939,0,0)"><tspan
         sodipodi:role="line"
         id="tspan2319"
         x="42.191376"
         y="-27.528763"
         style="font-style:normal;font-variant:normal;font-weight:normal;font-stretch:normal;font-size:14.2146px;font-family:'Source Serif Pro';-inkscape-font-specification:'Source Serif Pro';fill:#4d4d4d;fill-opacity:1;stroke-width:0.266525">}</tspan></text>
    <text
       xml:space="preserve"
       style="font-size:8.53249px;line-height:1.25;font-family:'Source Serif Pro';-inkscape-font-specification:'Source Serif Pro';text-align:center;letter-spacing:0px;text-anchor:middle;fill:#4d4d4d;fill-opacity:1;stroke-width:0.35552"
       x="43.664532"
       y="36.189552"
       id="text2325"><tspan
         sodipodi:role="line"
         id="tspan2323"
         x="43.664532"
         y="36.189552"
         style="fill:#4d4d4d;fill-opacity:1;stroke-width:0.35552"><tspan
   style="font-style:italic;font-variant:normal;font-weight:normal;font-stretch:normal;font-family:'Source Serif Pro';-inkscape-font-specification:'Source Serif Pro Italic';fill:#4d4d4d;fill-opacity:1;stroke-width:0.35552"
   id="tspan2327">n</tspan>+1</tspan></text>
    <g
       id="g2369"
       transform="translate(82.041999)">
      <g
         id="g2383">
        <path
           style="font-variation-settings:normal;opacity:1;vector-effect:none;fill:none;fill-opacity:1;stroke:#000000;stroke-width:0.9;stroke-linecap:square;stroke-linejoin:miter;stroke-miterlimit:3;stroke-dasharray:none;stroke-dashoffset:0;stroke-opacity:1;paint-order:normal;stop-color:#000000;stop-opacity:1"
           d="m 45.094431,25.734468 c 0.365806,-0.254392 0.95111,-0.682409 1.233793,-1.227152 m 1.218781,-2.969106 c 0.709766,-1.600127 6.765678,-3.67528 9.070421,-3.710707 -4.23317,0 -12.160714,-7.8684827 -18.510464,-7.8684827 -6.34974,0 -12.69949,14.8160737 -21.165818,14.8160737 -8.4663271,0 -10.5877329,-6.349746 -16.93265354,-6.349238 C 6.3534111,18.425348 8.4748169,12.075602 25.407472,5.7258577 42.340132,-0.62388823 62.967166,17.827503 67.200336,17.827503 c -4.184938,0.0038 -11.614138,9.98295 -23.040467,4.043157 m -6.19347,0.863768 c -0.381311,0.248001 -0.823573,0.566267 -1.227859,0.956771 m -2.41198,2.182717 c -3.332595,2.768069 -8.653821,3.416493 -9.38549,3.416493 1.662469,0 3.324939,4.987414 6.649878,4.987414 -6.649886,0 -9.970827,-4.987414 -14.962234,-4.987015 5.427182,-0.01938 16.023588,-8.352116 18.980543,-4.45142 0.616468,0.81322 1.652554,1.641444 2.409236,1.888867"
           id="path2365"
           sodipodi:nodetypes="cccczzczccccccccsc" />
        <path
           style="font-variation-settings:normal;opacity:1;vector-effect:none;fill:none;fill-opacity:1;stroke:#000000;stroke-width:0.889;stroke-linecap:butt;stroke-linejoin:miter;stroke-miterlimit:4.33333;stroke-dasharray:0.889, 0.889;stroke-dashoffset:0;stroke-opacity:1;stop-color:#000000;stop-opacity:1"
           d="m 38.195756,24.775858 6.065427,-0.984839"
           id="path2367"
           sodipodi:nodetypes="cc" />
      </g>
    </g>
    <g
       id="g2397"
       style="stroke-width:1.37793;stroke-miterlimit:3;stroke-dasharray:none"
       transform="matrix(0.4318821,0.47929129,-0.47929129,0.4318821,191.32884,-9.2619599)">
      <path
         style="font-variation-settings:normal;opacity:1;vector-effect:none;fill:none;fill-opacity:1;stroke:#000000;stroke-width:1.37793;stroke-linecap:square;stroke-linejoin:miter;stroke-miterlimit:3;stroke-dasharray:none;stroke-dashoffset:0;stroke-opacity:1;paint-order:normal;stop-color:#000000;stop-opacity:1"
         d="m 47.009079,25.665423 c 0.261566,-0.08801 1.108741,-0.734424 1.260396,-1.062251 m 1.68263,-3.612149 c 0.709766,-1.600127 2.710459,-2.114767 5.776266,-2.340084 1.783664,0.0041 4.4324,0.03392 6.465037,-1.376317 2.237417,-1.552315 3.774047,-4.630012 3.642347,-6.348031 M 38.197639,22.529046 c -0.381311,0.248001 -0.770789,0.573164 -1.018426,0.817371 m -2.904401,2.981382 c -1.968202,1.860828 -3.211313,1.830803 -4.581551,2.169314 -3.032069,0.749058 -6.261306,3.262652 -7.952099,6.033779 -2.26128,3.706125 -1.892502,9.51675 -1.466807,12.7776"
         id="path2393"
         sodipodi:nodetypes="ccccsccccssc" />
      <path
         style="font-variation-settings:normal;opacity:1;vector-effect:none;fill:none;fill-opacity:1;stroke:#000000;stroke-width:1.18109;stroke-linecap:butt;stroke-linejoin:miter;stroke-miterlimit:3;stroke-dasharray:1.18109, 1.18109;stroke-dashoffset:0;stroke-opacity:1;stop-color:#000000;stop-opacity:1"
         d="m 38.195756,24.775858 8.493135,-1.297882"
         id="path2395"
         sodipodi:nodetypes="cc" />
    </g>
    <path
       style="font-variation-settings:normal;vector-effect:none;fill:none;fill-opacity:1;stroke:url(#linearGradient2444);stroke-width:0.889;stroke-linecap:square;stroke-linejoin:miter;stroke-miterlimit:3;stroke-dasharray:none;stroke-dashoffset:0;stroke-opacity:1;paint-order:normal;stop-color:#000000"
       d="m 287.15287,24.601769 c 0.28114,-0.288181 1.90855,-0.910703 3.27422,-0.623715 6.1853,1.299809 10.90623,9.328198 15.14371,9.328198 -4.23748,0 -8.43931,9.308111 -25.50222,9.262675 -17.0629,-0.04544 -26.49641,-13.748627 -36.60206,-13.574112 1.31387,0 5.99165,-1.913122 9.25035,-7.031719 m 31.7321,4.844825 0.39519,-0.320398"
       id="path2404"
       sodipodi:nodetypes="csczcccc" />
    <path
       style="font-variation-settings:normal;vector-effect:none;fill:none;fill-opacity:1;stroke:#000000;stroke-width:0.889;stroke-linecap:square;stroke-linejoin:miter;stroke-miterlimit:3;stroke-dasharray:none;stroke-dashoffset:0;stroke-opacity:1;paint-order:normal;stop-color:#000000"
       d="m 295.14789,24.271627 c 1.46414,-2.317659 2.94754,-4.931294 4.40011,-4.931294 -2.11658,0 -9.855,-7.651972 -15.57103,-8.563127 -3.21759,-0.512895 -7.74754,1.782147 -9.45205,3.74643"
       id="path2428"
       sodipodi:nodetypes="ccsc" />
    <path
       style="font-variation-settings:normal;vector-effect:none;fill:none;fill-opacity:1;stroke:#000000;stroke-width:0.889;stroke-linecap:square;stroke-linejoin:miter;stroke-miterlimit:3;stroke-dasharray:none;stroke-dashoffset:0;stroke-opacity:1;paint-order:normal;stop-color:#000000"
       d="m 254.43183,19.458131 c 2.14561,-3.451597 7.33293,-6.562324 11.02352,-6.461746 2.26439,0.06171 4.08058,0.321047 5.22686,0.83303 1.14628,0.511984 2.13163,0.957008 2.95962,2.01729 1.496,1.915691 0.26772,3.980762 1.17791,4.874175"
       id="path2426" />
    <path
       style="font-variation-settings:normal;vector-effect:none;fill:none;fill-opacity:1;stroke:url(#linearGradient2452);stroke-width:0.889;stroke-linecap:square;stroke-linejoin:miter;stroke-miterlimit:3;stroke-dasharray:none;stroke-dashoffset:0;stroke-opacity:1;paint-order:normal;stop-color:#000000"
       d="m 255.32632,23.327925 c -2.22929,3.056689 -2.94097,4.521037 -5.12813,4.630429 3.74775,-0.02973 11.85982,6.347689 19.62954,6.242358 7.76973,-0.105331 9.29068,-3.125732 12.12618,-5.360007"
       id="path2424"
       sodipodi:nodetypes="ccsc" />
    <path
       style="font-variation-settings:normal;vector-effect:none;fill:none;fill-opacity:1;stroke:#000000;stroke-width:0.889;stroke-linecap:square;stroke-linejoin:miter;stroke-miterlimit:3;stroke-dasharray:none;stroke-dashoffset:0;stroke-opacity:1;paint-order:normal;stop-color:#000000"
       d="m 296.15887,29.196773 c -0.90919,1.271875 -2.71377,1.953752 -5.81253,1.953752 -1.47814,0 -3.15833,-0.218794 -4.83433,-1.54677 -1.676,-1.327976 -2.95977,-1.893074 -3.98904,-6.649549"
       id="path2422"
       sodipodi:nodetypes="cssc" />
    <path
       style="font-variation-settings:normal;vector-effect:none;fill:none;fill-opacity:1;stroke:#000000;stroke-width:0.889;stroke-linecap:square;stroke-linejoin:miter;stroke-miterlimit:3;stroke-dasharray:none;stroke-dashoffset:0;stroke-opacity:1;paint-order:normal;stop-color:#000000"
       d="m 270.29469,19.123693 c -0.98195,1.303445 -4.86658,4.185496 -8.55109,4.160842 -7.90345,-0.05288 -11.54994,-6.439189 -17.8949,-6.438681 6.34496,-5.08e-4 12.69977,-12.7020056 29.63243,-12.7020056 16.93265,0 27.53035,15.3276906 31.76352,15.3276906 -2.68378,0 -4.52477,3.985635 -6.92427,7.032063"
       id="path2420"
       sodipodi:nodetypes="cscscc" />
    <path
       style="font-variation-settings:normal;vector-effect:none;fill:none;fill-opacity:1;stroke:#000000;stroke-width:0.889;stroke-linecap:square;stroke-linejoin:miter;stroke-miterlimit:3;stroke-dasharray:none;stroke-dashoffset:0;stroke-opacity:1;paint-order:normal;stop-color:#000000"
       d="m 272.52498,16.634381 -0.27179,0.302356"
       id="path2406" />
    <g
       id="g2414"
       style="stroke-width:1.37793;stroke-miterlimit:3;stroke-dasharray:none"
       transform="matrix(0.4318821,0.47929129,-0.47929129,0.4318821,270.88411,-9.2619599)">
      <path
         style="font-variation-settings:normal;opacity:1;vector-effect:none;fill:none;fill-opacity:1;stroke:#000000;stroke-width:1.37793;stroke-linecap:square;stroke-linejoin:miter;stroke-miterlimit:3;stroke-dasharray:none;stroke-dashoffset:0;stroke-opacity:1;paint-order:normal;stop-color:#000000;stop-opacity:1"
         d="m 48.578724,25.51825 c 0.261566,-0.08801 1.108741,-0.734424 1.260396,-1.062251 m 1.68263,-3.612149 c 0.709766,-1.600127 2.710459,-2.114767 5.776266,-2.340084 2.169052,0.005 4.912157,-1.308255 6.331625,-2.854141 0.892979,-0.972509 1.830773,-2.380418 1.481366,-3.925358 M 38.197639,22.529046 c -0.381311,0.248001 -0.770789,0.573164 -1.018426,0.817371 m -2.904401,2.981382 c -1.968202,1.860828 -3.211313,1.830803 -4.581551,2.169314 -3.032069,0.749058 -6.261306,3.262652 -7.952099,6.033779 -2.26128,3.706125 -2.462792,9.836595 -1.466807,12.7776"
         id="path2410"
         sodipodi:nodetypes="ccccsccccssc" />
      <path
         style="font-variation-settings:normal;opacity:1;vector-effect:none;fill:none;fill-opacity:1;stroke:#000000;stroke-width:1.18109;stroke-linecap:butt;stroke-linejoin:miter;stroke-miterlimit:3;stroke-dasharray:1.18109, 1.18109;stroke-dashoffset:0;stroke-opacity:1;stop-color:#000000;stop-opacity:1"
         d="m 39.160672,24.366115 9.097864,-1.035312"
         id="path2412"
         sodipodi:nodetypes="cc" />
    </g>
  </g>
  <g
     inkscape:groupmode="layer"
     id="layer2"
     inkscape:label="Arrows"
     transform="translate(1.2615455,0.11065132)">
    <path
       style="font-variation-settings:normal;opacity:1;vector-effect:none;fill:none;fill-opacity:1;stroke:#808080;stroke-width:0.6;stroke-linecap:square;stroke-linejoin:miter;stroke-miterlimit:4.33333;stroke-dasharray:none;stroke-dashoffset:0;stroke-opacity:1;marker-end:url(#marker5412);stop-color:#000000;stop-opacity:1"
       d="M 66.672289,23.722929 H 83.604945"
       id="path905" />
    <path
       style="font-variation-settings:normal;opacity:1;vector-effect:none;fill:none;fill-opacity:1;stroke:#808080;stroke-width:0.6;stroke-linecap:square;stroke-linejoin:miter;stroke-miterlimit:4.33333;stroke-dasharray:none;stroke-dashoffset:0;stroke-opacity:1;marker-end:url(#marker5222);stop-color:#000000;stop-opacity:1"
       d="M 144.45674,23.722929 H 161.3894"
       id="path907" />
    <path
       style="font-variation-settings:normal;opacity:1;vector-effect:none;fill:none;fill-opacity:1;stroke:#808080;stroke-width:0.6;stroke-linecap:square;stroke-linejoin:miter;stroke-miterlimit:4.33333;stroke-dasharray:none;stroke-dashoffset:0;stroke-opacity:1;marker-end:url(#marker5624);stop-color:#000000;stop-opacity:1"
       d="m 226.74956,23.722929 h 16.93266"
       id="path911" />
    <path
       style="font-variation-settings:normal;opacity:1;vector-effect:none;fill:none;fill-opacity:1;stroke:#808080;stroke-width:0.762;stroke-linecap:butt;stroke-linejoin:miter;stroke-miterlimit:4.33333;stroke-dasharray:1.524, 1.524;stroke-dashoffset:0;stroke-opacity:1;stop-color:#000000;stop-opacity:1"
       d="m 179.84356,32.379323 11.64388,0.163073"
       id="path3810"
       sodipodi:nodetypes="cc" />
  </g>
</svg>
