<?xml version="1.0" encoding="UTF-8" standalone="no"?>
<svg
   xmlns:dc="http://purl.org/dc/elements/1.1/"
   xmlns:cc="http://creativecommons.org/ns#"
   xmlns:rdf="http://www.w3.org/1999/02/22-rdf-syntax-ns#"
   xmlns:svg="http://www.w3.org/2000/svg"
   xmlns="http://www.w3.org/2000/svg"
   xmlns:xlink="http://www.w3.org/1999/xlink"
   xmlns:sodipodi="http://sodipodi.sourceforge.net/DTD/sodipodi-0.dtd"
   xmlns:inkscape="http://www.inkscape.org/namespaces/inkscape"
   width="12.135932in"
   height="1.8591551in"
   viewBox="0 0 308.25266 47.222537"
   version="1.1"
   id="svg8"
   inkscape:version="1.0.2 (e86c870879, 2021-01-15)"
   sodipodi:docname="cobordism-movie--2-short.svg">
  <defs
     id="defs2">
    <linearGradient
       inkscape:collect="always"
       id="linearGradient3422">
      <stop
         style="stop-color:#000000;stop-opacity:1;"
         offset="0"
         id="stop3418" />
      <stop
         style="stop-color:#124aba;stop-opacity:1"
         offset="1"
         id="stop3420" />
    </linearGradient>
    <marker
       style="overflow:visible"
       id="marker1128"
       refX="0"
       refY="0"
       orient="auto"
       inkscape:stockid="Arrow1Mend"
       inkscape:isstock="true">
      <path
         transform="matrix(-0.4,0,0,-0.4,-4,0)"
         style="fill:#808080;fill-opacity:1;fill-rule:evenodd;stroke:#808080;stroke-width:1pt;stroke-opacity:1"
         d="M 0,0 5,-5 -12.5,0 5,5 Z"
         id="path1126" />
    </marker>
    <marker
       style="overflow:visible"
       id="marker1118"
       refX="0"
       refY="0"
       orient="auto"
       inkscape:stockid="Arrow2Mend"
       inkscape:isstock="true">
      <path
         transform="scale(-0.6)"
         d="M 8.7185878,4.0337352 -2.2072895,0.01601326 8.7185884,-4.0017078 c -1.7454984,2.3720609 -1.7354408,5.6174519 -6e-7,8.035443 z"
         style="fill:#000000;fill-opacity:0.968907;fill-rule:evenodd;stroke:#000000;stroke-width:0.625;stroke-linejoin:round;stroke-opacity:0.968907"
         id="path1116" />
    </marker>
    <marker
       style="overflow:visible"
       id="marker5624"
       refX="0"
       refY="0"
       orient="auto"
       inkscape:stockid="Arrow1Mend"
       inkscape:isstock="true">
      <path
         transform="matrix(-0.4,0,0,-0.4,-4,0)"
         style="fill:#808080;fill-opacity:1;fill-rule:evenodd;stroke:#808080;stroke-width:1pt;stroke-opacity:1"
         d="M 0,0 5,-5 -12.5,0 5,5 Z"
         id="path5622" />
    </marker>
    <marker
       style="overflow:visible"
       id="marker5412"
       refX="0"
       refY="0"
       orient="auto"
       inkscape:stockid="Arrow1Mend"
       inkscape:isstock="true">
      <path
         transform="matrix(-0.4,0,0,-0.4,-4,0)"
         style="fill:#808080;fill-opacity:1;fill-rule:evenodd;stroke:#808080;stroke-width:1pt;stroke-opacity:1"
         d="M 0,0 5,-5 -12.5,0 5,5 Z"
         id="path5410" />
    </marker>
    <marker
       style="overflow:visible"
       id="marker5222"
       refX="0"
       refY="0"
       orient="auto"
       inkscape:stockid="Arrow1Mend"
       inkscape:isstock="true">
      <path
         transform="matrix(-0.4,0,0,-0.4,-4,0)"
         style="fill:#808080;fill-opacity:1;fill-rule:evenodd;stroke:#808080;stroke-width:1pt;stroke-opacity:1"
         d="M 0,0 5,-5 -12.5,0 5,5 Z"
         id="path5220" />
    </marker>
    <marker
       style="overflow:visible"
       id="marker5038"
       refX="0"
       refY="0"
       orient="auto"
       inkscape:stockid="Arrow1Mend"
       inkscape:isstock="true">
      <path
         transform="matrix(-0.4,0,0,-0.4,-4,0)"
         style="fill:#808080;fill-opacity:1;fill-rule:evenodd;stroke:#808080;stroke-width:1pt;stroke-opacity:1"
         d="M 0,0 5,-5 -12.5,0 5,5 Z"
         id="path5036" />
    </marker>
    <marker
       style="overflow:visible"
       id="marker4584"
       refX="0"
       refY="0"
       orient="auto"
       inkscape:stockid="Arrow1Mend"
       inkscape:isstock="true">
      <path
         transform="matrix(-0.4,0,0,-0.4,-4,0)"
         style="fill:#000000;fill-opacity:0.968907;fill-rule:evenodd;stroke:#000000;stroke-width:1pt;stroke-opacity:0.968907"
         d="M 0,0 5,-5 -12.5,0 5,5 Z"
         id="path4582" />
    </marker>
    <marker
       style="overflow:visible"
       id="marker4574"
       refX="0"
       refY="0"
       orient="auto"
       inkscape:stockid="Arrow1Mend"
       inkscape:isstock="true">
      <path
         transform="matrix(-0.4,0,0,-0.4,-4,0)"
         style="fill:#000000;fill-opacity:0.968907;fill-rule:evenodd;stroke:#000000;stroke-width:1pt;stroke-opacity:0.968907"
         d="M 0,0 5,-5 -12.5,0 5,5 Z"
         id="path4572" />
    </marker>
    <marker
       style="overflow:visible"
       id="marker4396"
       refX="0"
       refY="0"
       orient="auto"
       inkscape:stockid="Arrow1Mend"
       inkscape:isstock="true">
      <path
         transform="matrix(-0.4,0,0,-0.4,-4,0)"
         style="fill:#000000;fill-opacity:0.968907;fill-rule:evenodd;stroke:#000000;stroke-width:1pt;stroke-opacity:0.968907"
         d="M 0,0 5,-5 -12.5,0 5,5 Z"
         id="path4394" />
    </marker>
    <marker
       style="overflow:visible"
       id="marker4230"
       refX="0"
       refY="0"
       orient="auto"
       inkscape:stockid="Arrow1Mend"
       inkscape:isstock="true">
      <path
         transform="matrix(-0.4,0,0,-0.4,-4,0)"
         style="fill:#000000;fill-opacity:0.968907;fill-rule:evenodd;stroke:#000000;stroke-width:1pt;stroke-opacity:0.968907"
         d="M 0,0 5,-5 -12.5,0 5,5 Z"
         id="path4228" />
    </marker>
    <marker
       style="overflow:visible"
       id="marker4070"
       refX="0"
       refY="0"
       orient="auto"
       inkscape:stockid="Arrow1Mend"
       inkscape:isstock="true">
      <path
         transform="matrix(-0.4,0,0,-0.4,-4,0)"
         style="fill:#000000;fill-opacity:0.968907;fill-rule:evenodd;stroke:#000000;stroke-width:1pt;stroke-opacity:0.968907"
         d="M 0,0 5,-5 -12.5,0 5,5 Z"
         id="path4068" />
    </marker>
    <marker
       style="overflow:visible"
       id="marker3656"
       refX="0"
       refY="0"
       orient="auto"
       inkscape:stockid="Arrow1Send"
       inkscape:isstock="true">
      <path
         transform="matrix(-0.2,0,0,-0.2,-1.2,0)"
         style="fill:#000000;fill-opacity:0.968907;fill-rule:evenodd;stroke:#000000;stroke-width:1pt;stroke-opacity:0.968907"
         d="M 0,0 5,-5 -12.5,0 5,5 Z"
         id="path3654" />
    </marker>
    <marker
       style="overflow:visible"
       id="marker3640"
       refX="0"
       refY="0"
       orient="auto"
       inkscape:stockid="Arrow1Send"
       inkscape:isstock="true">
      <path
         transform="matrix(-0.2,0,0,-0.2,-1.2,0)"
         style="fill:#000000;fill-opacity:0.968907;fill-rule:evenodd;stroke:#000000;stroke-width:1pt;stroke-opacity:0.968907"
         d="M 0,0 5,-5 -12.5,0 5,5 Z"
         id="path3638" />
    </marker>
    <marker
       style="overflow:visible"
       id="marker3624"
       refX="0"
       refY="0"
       orient="auto"
       inkscape:stockid="Arrow1Send"
       inkscape:isstock="true">
      <path
         transform="matrix(-0.2,0,0,-0.2,-1.2,0)"
         style="fill:#000000;fill-opacity:0.968907;fill-rule:evenodd;stroke:#000000;stroke-width:1pt;stroke-opacity:0.968907"
         d="M 0,0 5,-5 -12.5,0 5,5 Z"
         id="path3622" />
    </marker>
    <marker
       style="overflow:visible"
       id="marker3476"
       refX="0"
       refY="0"
       orient="auto"
       inkscape:stockid="Arrow1Send"
       inkscape:isstock="true">
      <path
         transform="matrix(-0.2,0,0,-0.2,-1.2,0)"
         style="fill:#000000;fill-opacity:0.968907;fill-rule:evenodd;stroke:#000000;stroke-width:1pt;stroke-opacity:0.968907"
         d="M 0,0 5,-5 -12.5,0 5,5 Z"
         id="path3474" />
    </marker>
    <marker
       style="overflow:visible"
       id="marker3328"
       refX="0"
       refY="0"
       orient="auto"
       inkscape:stockid="Arrow1Send"
       inkscape:isstock="true">
      <path
         transform="matrix(-0.2,0,0,-0.2,-1.2,0)"
         style="fill:#000000;fill-opacity:0.968907;fill-rule:evenodd;stroke:#000000;stroke-width:1pt;stroke-opacity:0.968907"
         d="M 0,0 5,-5 -12.5,0 5,5 Z"
         id="path3326" />
    </marker>
    <marker
       style="overflow:visible"
       id="marker2911"
       refX="0"
       refY="0"
       orient="auto"
       inkscape:stockid="Arrow1Send"
       inkscape:isstock="true">
      <path
         transform="matrix(-0.2,0,0,-0.2,-1.2,0)"
         style="fill:#000000;fill-opacity:0.968907;fill-rule:evenodd;stroke:#000000;stroke-width:1pt;stroke-opacity:0.968907"
         d="M 0,0 5,-5 -12.5,0 5,5 Z"
         id="path2909" />
    </marker>
    <marker
       style="overflow:visible"
       id="marker2585"
       refX="0"
       refY="0"
       orient="auto"
       inkscape:stockid="Arrow1Send"
       inkscape:isstock="true">
      <path
         transform="matrix(-0.2,0,0,-0.2,-1.2,0)"
         style="fill:#000000;fill-opacity:0.968907;fill-rule:evenodd;stroke:#000000;stroke-width:1pt;stroke-opacity:0.968907"
         d="M 0,0 5,-5 -12.5,0 5,5 Z"
         id="path2583" />
    </marker>
    <marker
       style="overflow:visible"
       id="marker2343"
       refX="0"
       refY="0"
       orient="auto"
       inkscape:stockid="Arrow1Send"
       inkscape:isstock="true">
      <path
         transform="matrix(-0.2,0,0,-0.2,-1.2,0)"
         style="fill:#000000;fill-opacity:0.968907;fill-rule:evenodd;stroke:#000000;stroke-width:1pt;stroke-opacity:0.968907"
         d="M 0,0 5,-5 -12.5,0 5,5 Z"
         id="path2341" />
    </marker>
    <marker
       style="overflow:visible"
       id="marker2231"
       refX="0"
       refY="0"
       orient="auto"
       inkscape:stockid="Arrow1Send"
       inkscape:isstock="true">
      <path
         transform="matrix(-0.2,0,0,-0.2,-1.2,0)"
         style="fill:#000000;fill-opacity:0.968907;fill-rule:evenodd;stroke:#000000;stroke-width:1pt;stroke-opacity:0.968907"
         d="M 0,0 5,-5 -12.5,0 5,5 Z"
         id="path2229" />
    </marker>
    <marker
       style="overflow:visible"
       id="marker2053"
       refX="0"
       refY="0"
       orient="auto"
       inkscape:stockid="Arrow1Mend"
       inkscape:isstock="true">
      <path
         transform="matrix(-0.4,0,0,-0.4,-4,0)"
         style="fill:#000000;fill-opacity:0.968907;fill-rule:evenodd;stroke:#000000;stroke-width:1pt;stroke-opacity:0.968907"
         d="M 0,0 5,-5 -12.5,0 5,5 Z"
         id="path2051" />
    </marker>
    <marker
       style="overflow:visible"
       id="marker1959"
       refX="0"
       refY="0"
       orient="auto"
       inkscape:stockid="Arrow1Mend"
       inkscape:isstock="true">
      <path
         transform="matrix(-0.4,0,0,-0.4,-4,0)"
         style="fill:#000000;fill-opacity:0.968907;fill-rule:evenodd;stroke:#000000;stroke-width:1pt;stroke-opacity:0.968907"
         d="M 0,0 5,-5 -12.5,0 5,5 Z"
         id="path1957" />
    </marker>
    <marker
       style="overflow:visible"
       id="marker1871"
       refX="0"
       refY="0"
       orient="auto"
       inkscape:stockid="Arrow1Mend"
       inkscape:isstock="true">
      <path
         transform="matrix(-0.4,0,0,-0.4,-4,0)"
         style="fill:#000000;fill-opacity:0.968907;fill-rule:evenodd;stroke:#000000;stroke-width:1pt;stroke-opacity:0.968907"
         d="M 0,0 5,-5 -12.5,0 5,5 Z"
         id="path1869" />
    </marker>
    <marker
       style="overflow:visible"
       id="marker1651"
       refX="0"
       refY="0"
       orient="auto"
       inkscape:stockid="Arrow1Lend"
       inkscape:isstock="true">
      <path
         transform="matrix(-0.8,0,0,-0.8,-10,0)"
         style="fill:#000000;fill-opacity:0.968907;fill-rule:evenodd;stroke:#000000;stroke-width:1pt;stroke-opacity:0.968907"
         d="M 0,0 5,-5 -12.5,0 5,5 Z"
         id="path1649" />
    </marker>
    <marker
       style="overflow:visible"
       id="marker1641"
       refX="0"
       refY="0"
       orient="auto"
       inkscape:stockid="Arrow1Lend"
       inkscape:isstock="true">
      <path
         transform="matrix(-0.8,0,0,-0.8,-10,0)"
         style="fill:#000000;fill-opacity:0.968907;fill-rule:evenodd;stroke:#000000;stroke-width:1pt;stroke-opacity:0.968907"
         d="M 0,0 5,-5 -12.5,0 5,5 Z"
         id="path1639" />
    </marker>
    <marker
       style="overflow:visible"
       id="marker1577"
       refX="0"
       refY="0"
       orient="auto"
       inkscape:stockid="Arrow1Lend"
       inkscape:isstock="true">
      <path
         transform="matrix(-0.8,0,0,-0.8,-10,0)"
         style="fill:#000000;fill-opacity:0.968907;fill-rule:evenodd;stroke:#000000;stroke-width:1pt;stroke-opacity:0.968907"
         d="M 0,0 5,-5 -12.5,0 5,5 Z"
         id="path1575" />
    </marker>
    <marker
       style="overflow:visible"
       id="marker1519"
       refX="0"
       refY="0"
       orient="auto"
       inkscape:stockid="Arrow1Lend"
       inkscape:isstock="true">
      <path
         transform="matrix(-0.8,0,0,-0.8,-10,0)"
         style="fill:#000000;fill-opacity:0.968907;fill-rule:evenodd;stroke:#000000;stroke-width:1pt;stroke-opacity:0.968907"
         d="M 0,0 5,-5 -12.5,0 5,5 Z"
         id="path1517" />
    </marker>
    <marker
       style="overflow:visible"
       id="marker1467"
       refX="0"
       refY="0"
       orient="auto"
       inkscape:stockid="Arrow1Lend"
       inkscape:isstock="true">
      <path
         transform="matrix(-0.8,0,0,-0.8,-10,0)"
         style="fill:#000000;fill-opacity:0.968907;fill-rule:evenodd;stroke:#000000;stroke-width:1pt;stroke-opacity:0.968907"
         d="M 0,0 5,-5 -12.5,0 5,5 Z"
         id="path1465" />
    </marker>
    <marker
       style="overflow:visible"
       id="marker1293"
       refX="0"
       refY="0"
       orient="auto"
       inkscape:stockid="Arrow1Mstart"
       inkscape:isstock="true">
      <path
         transform="matrix(0.4,0,0,0.4,4,0)"
         style="fill:#000000;fill-opacity:0.968907;fill-rule:evenodd;stroke:#000000;stroke-width:1pt;stroke-opacity:0.968907"
         d="M 0,0 5,-5 -12.5,0 5,5 Z"
         id="path1291" />
    </marker>
    <marker
       style="overflow:visible"
       id="marker1283"
       refX="0"
       refY="0"
       orient="auto"
       inkscape:stockid="Arrow1Mstart"
       inkscape:isstock="true">
      <path
         transform="matrix(0.4,0,0,0.4,4,0)"
         style="fill:#000000;fill-opacity:0.968907;fill-rule:evenodd;stroke:#000000;stroke-width:1pt;stroke-opacity:0.968907"
         d="M 0,0 5,-5 -12.5,0 5,5 Z"
         id="path1281" />
    </marker>
    <marker
       style="overflow:visible"
       id="marker1249"
       refX="0"
       refY="0"
       orient="auto"
       inkscape:stockid="Arrow1Mstart"
       inkscape:isstock="true">
      <path
         transform="matrix(0.4,0,0,0.4,4,0)"
         style="fill:#000000;fill-opacity:0.968907;fill-rule:evenodd;stroke:#000000;stroke-width:1pt;stroke-opacity:0.968907"
         d="M 0,0 5,-5 -12.5,0 5,5 Z"
         id="path1247" />
    </marker>
    <marker
       style="overflow:visible"
       id="marker1221"
       refX="0"
       refY="0"
       orient="auto"
       inkscape:stockid="Arrow1Mstart"
       inkscape:isstock="true">
      <path
         transform="matrix(0.4,0,0,0.4,4,0)"
         style="fill:#000000;fill-opacity:0.968907;fill-rule:evenodd;stroke:#000000;stroke-width:1pt;stroke-opacity:0.968907"
         d="M 0,0 5,-5 -12.5,0 5,5 Z"
         id="path1219" />
    </marker>
    <marker
       style="overflow:visible"
       id="marker1199"
       refX="0"
       refY="0"
       orient="auto"
       inkscape:stockid="Arrow1Mstart"
       inkscape:isstock="true">
      <path
         transform="matrix(0.4,0,0,0.4,4,0)"
         style="fill:#000000;fill-opacity:0.968907;fill-rule:evenodd;stroke:#000000;stroke-width:1pt;stroke-opacity:0.968907"
         d="M 0,0 5,-5 -12.5,0 5,5 Z"
         id="path1197" />
    </marker>
    <linearGradient
       inkscape:collect="always"
       xlink:href="#linearGradient3422"
       id="linearGradient3424"
       x1="257.0311"
       y1="33.234322"
       x2="281.26852"
       y2="33.684502"
       gradientUnits="userSpaceOnUse" />
    <linearGradient
       inkscape:collect="always"
       xlink:href="#linearGradient3422"
       id="linearGradient4301"
       x1="258.4259"
       y1="28.837143"
       x2="280.67981"
       y2="28.756212"
       gradientUnits="userSpaceOnUse" />
  </defs>
  <sodipodi:namedview
     id="base"
     pagecolor="#ffffff"
     bordercolor="#000000"
     borderopacity="1"
     inkscape:pageopacity="0.0"
     inkscape:pageshadow="2"
     inkscape:zoom="1.9516243"
     inkscape:cx="584.74124"
     inkscape:cy="41.865348"
     inkscape:document-units="in"
     inkscape:current-layer="layer2"
     inkscape:document-rotation="0"
     showgrid="true"
     units="mm"
     showguides="true"
     inkscape:pagecheckerboard="false"
     showborder="true"
     inkscape:showpageshadow="true"
     borderlayer="true"
     inkscape:window-width="1536"
     inkscape:window-height="834"
     inkscape:window-x="0"
     inkscape:window-y="0"
     inkscape:window-maximized="1"
     inkscape:snap-grids="true"
     fit-margin-top="0.15"
     fit-margin-left="0.05"
     fit-margin-bottom="0.1"
     fit-margin-right="0.05"
     inkscape:snap-global="false"
     lock-margins="true">
    <inkscape:grid
       type="xygrid"
       id="grid10"
       dotted="false"
       units="in"
       spacingx="25.4"
       spacingy="16.933164"
       empspacing="3"
       visible="true"
       snapvisiblegridlinesonly="true"
       empcolor="#3f3fff"
       empopacity="0.41568627"
       originx="1.2615473"
       originy="0.40693408"
       enabled="false" />
  </sodipodi:namedview>
  <metadata
     id="metadata5">
    <rdf:RDF>
      <cc:Work
         rdf:about="">
        <dc:format>image/svg+xml</dc:format>
        <dc:type
           rdf:resource="http://purl.org/dc/dcmitype/StillImage" />
        <dc:title />
      </cc:Work>
    </rdf:RDF>
  </metadata>
  <g
     inkscape:label="Layer 1"
     inkscape:groupmode="layer"
     id="layer1"
     transform="translate(1.2615456,0.40693688)">
    <path
       style="font-variation-settings:normal;vector-effect:none;fill:none;fill-opacity:1;stroke:#000000;stroke-width:0.9;stroke-linecap:square;stroke-linejoin:miter;stroke-miterlimit:3;stroke-dasharray:none;stroke-dashoffset:0;stroke-opacity:1;paint-order:normal;stop-color:#000000"
       d="m 296.79167,25.025548 c 1.46414,-2.317659 6.27159,-4.02507 8.29209,-3.99461 -6.71217,-0.467778 -14.3191,-8.948724 -22.69784,-8.959861 -2.73015,0 -4.65286,1.123644 -6.16516,3.158403"
       id="path3412"
       sodipodi:nodetypes="cccc" />
    <g
       id="g2269"
       transform="translate(-2.144651e-5,-2.047412)">
      <path
         style="font-variation-settings:normal;opacity:1;vector-effect:none;fill:none;fill-opacity:1;stroke:url(#linearGradient3424);stroke-width:0.889;stroke-linecap:butt;stroke-linejoin:miter;stroke-miterlimit:3;stroke-dasharray:none;stroke-dashoffset:0;stroke-opacity:1;paint-order:normal;stop-color:#000000;stop-opacity:1"
         d="m 284.40555,24.830569 c 0.21763,-0.24189 3.3458,-1.376084 7.18538,0.510168 3.92022,1.925864 9.89274,8.367103 14.13022,8.367103 -4.23748,0 -8.72015,9.663033 -25.74564,9.500897 -17.0255,-0.162136 -26.89476,-14.816096 -36.76975,-14.881362 2.63028,-0.102585 6.50377,-2.308916 8.41748,-4.819926 m 30.30185,3.397315 0.76159,-0.764965"
         id="path94"
         sodipodi:nodetypes="csczcccc" />
      <path
         style="font-variation-settings:normal;opacity:1;vector-effect:none;fill:none;fill-opacity:1;stroke:#000000;stroke-width:0.9;stroke-linecap:square;stroke-linejoin:miter;stroke-miterlimit:3;stroke-dasharray:none;stroke-dashoffset:0;stroke-opacity:1;paint-order:normal;stop-color:#000000;stop-opacity:1"
         d="m 253.56983,21.170852 c 2.55597,-3.754178 6.19304,-5.61341 10.87012,-6.071556 10.82697,-1.060563 18.28226,11.611857 23.69746,13.364621 1.70391,0.551513 3.43891,-0.399007 3.99518,-1.090963"
         id="path3369"
         sodipodi:nodetypes="cssc" />
      <path
         style="font-variation-settings:normal;opacity:1;vector-effect:none;fill:none;fill-opacity:1;stroke:url(#linearGradient4301);stroke-width:0.9;stroke-linecap:square;stroke-linejoin:miter;stroke-miterlimit:3;stroke-dasharray:none;stroke-dashoffset:0;stroke-opacity:1;paint-order:normal;stop-color:#000000;stop-opacity:1"
         d="m 254.10478,25.246745 c -0.82492,1.055363 -1.49862,2.450579 -3.24616,2.461432 3.29153,0.574427 12.46534,6.446371 18.95969,6.462366 6.49434,0.016 7.48847,-2.940514 10.22511,-5.641974"
         id="path3367"
         sodipodi:nodetypes="ccsc" />
      <path
         style="font-variation-settings:normal;opacity:1;vector-effect:none;fill:none;fill-opacity:1;stroke:#000000;stroke-width:0.9;stroke-linecap:square;stroke-linejoin:miter;stroke-miterlimit:3;stroke-dasharray:none;stroke-dashoffset:0;stroke-opacity:1;paint-order:normal;stop-color:#000000;stop-opacity:1"
         d="m 295.05388,29.481439 c -1.48363,2.145716 -4.59179,2.264212 -6.27351,2.111319 -2.21342,-0.201232 -4.8999,-1.525585 -7.59943,-3.96501 -4.82117,-4.356644 -10.52426,-9.854259 -15.17836,-9.614831 -7.16132,0.36841 -8.31477,2.496059 -9.90425,4.561917"
         id="path3365"
         sodipodi:nodetypes="csssc" />
      <path
         style="font-variation-settings:normal;opacity:1;vector-effect:none;fill:none;fill-opacity:1;stroke:#000000;stroke-width:0.9;stroke-linecap:square;stroke-linejoin:miter;stroke-miterlimit:3;stroke-dasharray:none;stroke-dashoffset:0;stroke-opacity:1;paint-order:normal;stop-color:#000000;stop-opacity:1"
         d="m 274.23328,19.635718 -0.17726,0.234631"
         id="path96"
         sodipodi:nodetypes="cc" />
    </g>
    <g
       id="g2277"
       transform="translate(1.7185887,3.9334417)">
      <path
         style="font-variation-settings:normal;opacity:1;vector-effect:none;fill:none;fill-opacity:1;stroke:#124aba;stroke-width:0.9;stroke-linecap:square;stroke-linejoin:miter;stroke-miterlimit:3;stroke-dasharray:none;stroke-dashoffset:0;stroke-opacity:1;paint-order:normal;stop-color:#000000;stop-opacity:1"
         d="m 127,39.892158 c -6.31062,1.9e-4 -12.70457,-8.467597 -16.93444,-8.466581 4.22987,-0.001 10.62255,-8.466583 16.93317,-8.466582 6.31062,10e-7 12.69568,8.466582 16.93316,8.466582 -4.23748,0 -10.62127,8.466391 -16.93189,8.466581 z"
         id="path18"
         sodipodi:nodetypes="zczcz" />
    </g>
    <path
       style="font-variation-settings:normal;opacity:1;vector-effect:none;fill:none;fill-opacity:1;stroke:#000000;stroke-width:0.9;stroke-linecap:square;stroke-linejoin:miter;stroke-miterlimit:3;stroke-dasharray:none;stroke-dashoffset:0;stroke-opacity:1;paint-order:normal;stop-color:#000000;stop-opacity:1"
       d="m 52.766172,16.018958 c -2.824618,3.136841 -9.909443,4.887557 -11.644751,4.872192 6.135108,0.175353 10.5829,6.349238 19.04923,6.349238 -4.23316,0 -6.34974,-6.349746 -8.46632,-6.349746 2.11658,0 3.514591,-3.4725 7.89674,-3.39427 C 55.247568,17.391185 47.913533,6.9974081 34.486335,9.4385275 26.359318,10.916052 25.407472,24.775094 16.941144,24.775094 8.4748169,24.775094 6.3534111,18.425348 0.00849046,18.425856 6.3534111,18.425348 8.4748169,12.075602 25.407472,5.7258577 c 16.93266,-6.34974593 30.085926,5.4472083 37.0837,5.6237613 -1.721868,1.21e-4 -5.958682,0.197992 -7.507664,2.19275"
       id="path887"
       sodipodi:nodetypes="cccccszczcc" />
    <path
       style="font-variation-settings:normal;vector-effect:none;fill:none;fill-opacity:1;stroke:#124aba;stroke-width:0.9;stroke-linecap:square;stroke-linejoin:miter;stroke-miterlimit:3;stroke-dasharray:none;stroke-dashoffset:0;stroke-opacity:1;paint-order:normal;stop-color:#000000"
       d="m 202.88355,25.097862 0.22887,-0.230961"
       id="path3398"
       sodipodi:nodetypes="cc" />
    <path
       style="font-variation-settings:normal;vector-effect:none;fill:none;fill-opacity:1;stroke:#124aba;stroke-width:0.889;stroke-linecap:butt;stroke-linejoin:miter;stroke-miterlimit:3;stroke-dasharray:none;stroke-dashoffset:0;stroke-opacity:1;paint-order:normal;stop-color:#000000"
       d="m 204.90066,23.200131 c 0.46441,-0.571981 1.93591,-0.682331 3.32849,-0.592167 6.28878,0.407167 13.2158,9.052464 17.45328,9.052464 -4.23748,0 -10.62127,8.46639 -16.93189,8.46658 -6.31062,1.9e-4 -12.70457,-8.46759 -16.93444,-8.46658 2.61959,-6.19e-4 6.53415,-2.169358 9.27079,-4.870818"
       id="path98"
       sodipodi:nodetypes="cscscc" />
    <path
       style="font-variation-settings:normal;vector-effect:none;fill:none;fill-opacity:1;stroke:#000000;stroke-width:0.9;stroke-linecap:square;stroke-linejoin:miter;stroke-miterlimit:3;stroke-dasharray:none;stroke-dashoffset:0;stroke-opacity:1;paint-order:normal;stop-color:#000000"
       d="m 217.5841,25.16793 c 1.46414,-2.317659 6.10366,-4.167452 8.12416,-4.136992 -6.71217,-0.467778 -14.3191,-8.948724 -22.69784,-8.959861 -2.73015,0 -4.7584,1.349346 -6.2707,3.384105"
       id="path3359" />
    <path
       style="font-variation-settings:normal;vector-effect:none;fill:none;fill-opacity:1;stroke:#000000;stroke-width:0.9;stroke-linecap:square;stroke-linejoin:miter;stroke-miterlimit:3;stroke-dasharray:none;stroke-dashoffset:0;stroke-opacity:1;paint-order:normal;stop-color:#000000"
       d="m 174.6972,19.278503 c 2.81199,-4.011621 7.51229,-6.382696 11.20288,-6.282118 9.94385,0.270994 16.78341,11.667356 22.19861,13.42012 1.70391,0.55151 3.42094,0.786135 4.68264,-0.921454"
       id="path3357" />
    <path
       style="font-variation-settings:normal;vector-effect:none;fill:none;fill-opacity:1;stroke:#000000;stroke-width:0.9;stroke-linecap:square;stroke-linejoin:miter;stroke-miterlimit:3;stroke-dasharray:none;stroke-dashoffset:0;stroke-opacity:1;paint-order:normal;stop-color:#000000"
       d="m 175.77105,23.327925 c -2.22929,3.056689 -3.64013,4.630429 -5.12813,4.630429 2.11658,0 4.23317,4.23317 6.34975,4.23317 -8.4582,10e-4 -8.9965,-4.331471 -13.23779,-4.331471 1.31387,0 5.50809,-1.2505 8.96194,-5.852926"
       id="path3355" />
    <path
       style="font-variation-settings:normal;vector-effect:none;fill:none;fill-opacity:1;stroke:#000000;stroke-width:0.9;stroke-linecap:square;stroke-linejoin:miter;stroke-miterlimit:3;stroke-dasharray:none;stroke-dashoffset:0;stroke-opacity:1;paint-order:normal;stop-color:#000000"
       d="m 215.59601,27.594658 c -1.02467,1.240501 -2.153,2.181367 -3.69079,2.371543 -1.82868,0.22615 -4.0442,-0.442912 -4.67169,-0.611376 -6.3134,-1.694984 -13.80707,-15.021205 -23.06543,-13.283161 -2.75292,0.516796 -5.77823,3.067854 -6.75768,4.815389"
       id="path3353" />
    <path
       style="font-variation-settings:normal;vector-effect:none;fill:none;fill-opacity:1;stroke:#000000;stroke-width:0.9;stroke-linecap:square;stroke-linejoin:miter;stroke-miterlimit:3;stroke-dasharray:none;stroke-dashoffset:0;stroke-opacity:1;paint-order:normal;stop-color:#000000"
       d="m 192.38174,19.921541 c -0.98195,1.303445 -6.5089,3.387648 -10.19341,3.362994 -7.90345,-0.05288 -11.54994,-6.439189 -17.8949,-6.438681 6.34496,-5.08e-4 21.26503,-12.4396755 34.87106,-12.3984996 13.60604,0.041176 17.30438,9.6645466 27.07484,9.7294106 -3.07213,-5.6e-4 -6.46314,1.797264 -7.29132,2.949724"
       id="path3351" />
    <path
       style="font-variation-settings:normal;vector-effect:none;fill:none;fill-opacity:1;stroke:#000000;stroke-width:0.9;stroke-linecap:square;stroke-linejoin:miter;stroke-miterlimit:3;stroke-dasharray:none;stroke-dashoffset:0;stroke-opacity:1;paint-order:normal;stop-color:#000000"
       d="m 194.73237,17.72478 -0.27179,0.302356"
       id="path100" />
    <path
       style="font-variation-settings:normal;opacity:1;vector-effect:none;fill:none;fill-opacity:1;stroke:#000000;stroke-width:0.9;stroke-linecap:square;stroke-linejoin:miter;stroke-miterlimit:3;stroke-dasharray:none;stroke-dashoffset:0;stroke-opacity:1;paint-order:normal;stop-color:#000000;stop-opacity:1"
       d="m 136.49728,16.018958 c -2.82462,3.136841 -9.90944,4.887557 -11.64475,4.872192 6.13511,0.175353 10.5829,6.349238 19.04923,6.349238 -4.23316,0 -6.34974,-6.349746 -8.46632,-6.349746 2.11658,0 3.51459,-3.4725 7.89674,-3.39427 -4.3535,-0.105187 -11.68754,-10.4989639 -25.11474,-8.0578445 -8.12701,1.4775245 -9.07886,15.3365665 -17.54519,15.3365665 -8.466333,0 -10.587739,-6.349746 -16.932659,-6.349238 6.34492,-5.08e-4 8.466326,-6.350254 25.398989,-12.6999983 16.93266,-6.34974593 30.08593,5.4472083 37.0837,5.6237613 -1.72187,1.21e-4 -5.95868,0.197992 -7.50766,2.19275"
       id="path3345"
       sodipodi:nodetypes="cccccszczcc" />
    <path
       style="font-variation-settings:normal;opacity:1;vector-effect:none;fill:none;fill-opacity:1;stroke:#000000;stroke-width:0.889;stroke-linecap:square;stroke-linejoin:miter;stroke-miterlimit:4.33333;stroke-dasharray:none;stroke-dashoffset:0;stroke-opacity:1;stop-color:#000000;stop-opacity:1"
       d="m 214.43991,23.238231 c 0.81367,-1.442514 1.4024,-2.643235 2.471,-3.887817"
       id="path3347"
       sodipodi:nodetypes="cc" />
    <path
       style="font-variation-settings:normal;vector-effect:none;fill:none;fill-opacity:1;stroke:#000000;stroke-width:0.889;stroke-linecap:butt;stroke-linejoin:miter;stroke-miterlimit:3;stroke-dasharray:none;stroke-dashoffset:0;stroke-opacity:1;paint-order:normal;stop-color:#000000"
       d="m 272.50946,19.654628 c -1.86728,2.25026 -5.05691,3.610248 -10.94563,3.629907 -7.90358,0.02639 -11.54994,-6.439189 -17.8949,-6.438681 6.34496,-5.08e-4 21.26503,-12.4396755 34.87106,-12.3984996 13.60604,0.041176 17.30438,9.6645466 27.07484,9.7294106 -3.07213,-5.6e-4 -6.60667,1.938947 -7.43485,3.091407"
       id="path3414"
       sodipodi:nodetypes="cscscc" />
    <path
       style="font-variation-settings:normal;opacity:1;vector-effect:none;fill:none;fill-opacity:1;stroke:#000000;stroke-width:0.889;stroke-linecap:square;stroke-linejoin:miter;stroke-miterlimit:4.33333;stroke-dasharray:none;stroke-dashoffset:0;stroke-opacity:1;stop-color:#000000;stop-opacity:1"
       d="m 293.78822,22.964832 c 0.81367,-1.442514 1.42959,-2.369836 2.49819,-3.614418"
       id="path3416"
       sodipodi:nodetypes="cc" />
  </g>
  <g
     inkscape:groupmode="layer"
     id="layer2"
     inkscape:label="Arrows"
     transform="translate(1.2615456,0.40693688)">
    <path
       style="font-variation-settings:normal;opacity:1;vector-effect:none;fill:none;fill-opacity:1;stroke:#808080;stroke-width:0.6;stroke-linecap:square;stroke-linejoin:miter;stroke-miterlimit:4.33333;stroke-dasharray:none;stroke-dashoffset:0;stroke-opacity:1;marker-end:url(#marker5412);stop-color:#000000;stop-opacity:1"
       d="M 66.143122,22.664595 H 83.075778"
       id="path905" />
    <path
       style="font-variation-settings:normal;opacity:1;vector-effect:none;fill:none;fill-opacity:1;stroke:#808080;stroke-width:0.6;stroke-linecap:square;stroke-linejoin:miter;stroke-miterlimit:4.33333;stroke-dasharray:none;stroke-dashoffset:0;stroke-opacity:1;marker-end:url(#marker5222);stop-color:#000000;stop-opacity:1"
       d="M 144.45674,22.664595 H 161.3894"
       id="path907" />
    <path
       style="font-variation-settings:normal;opacity:1;vector-effect:none;fill:none;fill-opacity:1;stroke:#808080;stroke-width:0.6;stroke-linecap:square;stroke-linejoin:miter;stroke-miterlimit:4.33333;stroke-dasharray:none;stroke-dashoffset:0;stroke-opacity:1;marker-end:url(#marker5624);stop-color:#000000;stop-opacity:1"
       d="m 226.74956,22.664595 h 16.93266"
       id="path911" />
    <path
       style="font-variation-settings:normal;opacity:1;vector-effect:none;fill:none;fill-opacity:1;stroke:#808080;stroke-width:0.762;stroke-linecap:butt;stroke-linejoin:miter;stroke-miterlimit:4.33333;stroke-dasharray:1.524, 1.524;stroke-dashoffset:0;stroke-opacity:1;stop-color:#000000;stop-opacity:1"
       d="m 179.21114,32.210281 11.5515,-0.266057"
       id="path2921"
       sodipodi:nodetypes="cc" />
  </g>
</svg>
