<?xml version="1.0" encoding="UTF-8" standalone="no"?>
<svg
   xmlns:dc="http://purl.org/dc/elements/1.1/"
   xmlns:cc="http://creativecommons.org/ns#"
   xmlns:rdf="http://www.w3.org/1999/02/22-rdf-syntax-ns#"
   xmlns:svg="http://www.w3.org/2000/svg"
   xmlns="http://www.w3.org/2000/svg"
   xmlns:xlink="http://www.w3.org/1999/xlink"
   xmlns:sodipodi="http://sodipodi.sourceforge.net/DTD/sodipodi-0.dtd"
   xmlns:inkscape="http://www.inkscape.org/namespaces/inkscape"
   width="12.138934in"
   height="1.9013385in"
   viewBox="0 0 308.32892 48.293995"
   version="1.1"
   id="svg8"
   inkscape:version="1.0.2 (e86c870879, 2021-01-15)"
   sodipodi:docname="cobordism-movie-l-3-short.svg">
  <defs
     id="defs2">
    <linearGradient
       inkscape:collect="always"
       id="linearGradient7270">
      <stop
         style="stop-color:#000000;stop-opacity:1"
         offset="0"
         id="stop7266" />
      <stop
         style="stop-color:#124aba;stop-opacity:1"
         offset="1"
         id="stop7268" />
    </linearGradient>
    <rect
       x="62.859093"
       y="18.45768"
       width="31.585524"
       height="14.165893"
       id="rect7090" />
    <marker
       style="overflow:visible"
       id="marker1128"
       refX="0"
       refY="0"
       orient="auto"
       inkscape:stockid="Arrow1Mend"
       inkscape:isstock="true">
      <path
         transform="matrix(-0.4,0,0,-0.4,-4,0)"
         style="fill:#808080;fill-opacity:1;fill-rule:evenodd;stroke:#808080;stroke-width:1pt;stroke-opacity:1"
         d="M 0,0 5,-5 -12.5,0 5,5 Z"
         id="path1126" />
    </marker>
    <marker
       style="overflow:visible"
       id="marker1118"
       refX="0"
       refY="0"
       orient="auto"
       inkscape:stockid="Arrow2Mend"
       inkscape:isstock="true">
      <path
         transform="scale(-0.6)"
         d="M 8.7185878,4.0337352 -2.2072895,0.01601326 8.7185884,-4.0017078 c -1.7454984,2.3720609 -1.7354408,5.6174519 -6e-7,8.035443 z"
         style="fill:#000000;fill-opacity:0.968907;fill-rule:evenodd;stroke:#000000;stroke-width:0.625;stroke-linejoin:round;stroke-opacity:0.968907"
         id="path1116" />
    </marker>
    <marker
       style="overflow:visible"
       id="marker5624"
       refX="0"
       refY="0"
       orient="auto"
       inkscape:stockid="Arrow1Mend"
       inkscape:isstock="true">
      <path
         transform="matrix(-0.4,0,0,-0.4,-4,0)"
         style="fill:#808080;fill-opacity:1;fill-rule:evenodd;stroke:#808080;stroke-width:1pt;stroke-opacity:1"
         d="M 0,0 5,-5 -12.5,0 5,5 Z"
         id="path5622" />
    </marker>
    <marker
       style="overflow:visible"
       id="marker5412"
       refX="0"
       refY="0"
       orient="auto"
       inkscape:stockid="Arrow1Mend"
       inkscape:isstock="true">
      <path
         transform="matrix(-0.4,0,0,-0.4,-4,0)"
         style="fill:#808080;fill-opacity:1;fill-rule:evenodd;stroke:#808080;stroke-width:1pt;stroke-opacity:1"
         d="M 0,0 5,-5 -12.5,0 5,5 Z"
         id="path5410" />
    </marker>
    <marker
       style="overflow:visible"
       id="marker5222"
       refX="0"
       refY="0"
       orient="auto"
       inkscape:stockid="Arrow1Mend"
       inkscape:isstock="true">
      <path
         transform="matrix(-0.4,0,0,-0.4,-4,0)"
         style="fill:#808080;fill-opacity:1;fill-rule:evenodd;stroke:#808080;stroke-width:1pt;stroke-opacity:1"
         d="M 0,0 5,-5 -12.5,0 5,5 Z"
         id="path5220" />
    </marker>
    <marker
       style="overflow:visible"
       id="marker5038"
       refX="0"
       refY="0"
       orient="auto"
       inkscape:stockid="Arrow1Mend"
       inkscape:isstock="true">
      <path
         transform="matrix(-0.4,0,0,-0.4,-4,0)"
         style="fill:#808080;fill-opacity:1;fill-rule:evenodd;stroke:#808080;stroke-width:1pt;stroke-opacity:1"
         d="M 0,0 5,-5 -12.5,0 5,5 Z"
         id="path5036" />
    </marker>
    <marker
       style="overflow:visible"
       id="marker4584"
       refX="0"
       refY="0"
       orient="auto"
       inkscape:stockid="Arrow1Mend"
       inkscape:isstock="true">
      <path
         transform="matrix(-0.4,0,0,-0.4,-4,0)"
         style="fill:#000000;fill-opacity:0.968907;fill-rule:evenodd;stroke:#000000;stroke-width:1pt;stroke-opacity:0.968907"
         d="M 0,0 5,-5 -12.5,0 5,5 Z"
         id="path4582" />
    </marker>
    <marker
       style="overflow:visible"
       id="marker4574"
       refX="0"
       refY="0"
       orient="auto"
       inkscape:stockid="Arrow1Mend"
       inkscape:isstock="true">
      <path
         transform="matrix(-0.4,0,0,-0.4,-4,0)"
         style="fill:#000000;fill-opacity:0.968907;fill-rule:evenodd;stroke:#000000;stroke-width:1pt;stroke-opacity:0.968907"
         d="M 0,0 5,-5 -12.5,0 5,5 Z"
         id="path4572" />
    </marker>
    <marker
       style="overflow:visible"
       id="marker4396"
       refX="0"
       refY="0"
       orient="auto"
       inkscape:stockid="Arrow1Mend"
       inkscape:isstock="true">
      <path
         transform="matrix(-0.4,0,0,-0.4,-4,0)"
         style="fill:#000000;fill-opacity:0.968907;fill-rule:evenodd;stroke:#000000;stroke-width:1pt;stroke-opacity:0.968907"
         d="M 0,0 5,-5 -12.5,0 5,5 Z"
         id="path4394" />
    </marker>
    <marker
       style="overflow:visible"
       id="marker4230"
       refX="0"
       refY="0"
       orient="auto"
       inkscape:stockid="Arrow1Mend"
       inkscape:isstock="true">
      <path
         transform="matrix(-0.4,0,0,-0.4,-4,0)"
         style="fill:#000000;fill-opacity:0.968907;fill-rule:evenodd;stroke:#000000;stroke-width:1pt;stroke-opacity:0.968907"
         d="M 0,0 5,-5 -12.5,0 5,5 Z"
         id="path4228" />
    </marker>
    <marker
       style="overflow:visible"
       id="marker4070"
       refX="0"
       refY="0"
       orient="auto"
       inkscape:stockid="Arrow1Mend"
       inkscape:isstock="true">
      <path
         transform="matrix(-0.4,0,0,-0.4,-4,0)"
         style="fill:#000000;fill-opacity:0.968907;fill-rule:evenodd;stroke:#000000;stroke-width:1pt;stroke-opacity:0.968907"
         d="M 0,0 5,-5 -12.5,0 5,5 Z"
         id="path4068" />
    </marker>
    <marker
       style="overflow:visible"
       id="marker3656"
       refX="0"
       refY="0"
       orient="auto"
       inkscape:stockid="Arrow1Send"
       inkscape:isstock="true">
      <path
         transform="matrix(-0.2,0,0,-0.2,-1.2,0)"
         style="fill:#000000;fill-opacity:0.968907;fill-rule:evenodd;stroke:#000000;stroke-width:1pt;stroke-opacity:0.968907"
         d="M 0,0 5,-5 -12.5,0 5,5 Z"
         id="path3654" />
    </marker>
    <marker
       style="overflow:visible"
       id="marker3640"
       refX="0"
       refY="0"
       orient="auto"
       inkscape:stockid="Arrow1Send"
       inkscape:isstock="true">
      <path
         transform="matrix(-0.2,0,0,-0.2,-1.2,0)"
         style="fill:#000000;fill-opacity:0.968907;fill-rule:evenodd;stroke:#000000;stroke-width:1pt;stroke-opacity:0.968907"
         d="M 0,0 5,-5 -12.5,0 5,5 Z"
         id="path3638" />
    </marker>
    <marker
       style="overflow:visible"
       id="marker3624"
       refX="0"
       refY="0"
       orient="auto"
       inkscape:stockid="Arrow1Send"
       inkscape:isstock="true">
      <path
         transform="matrix(-0.2,0,0,-0.2,-1.2,0)"
         style="fill:#000000;fill-opacity:0.968907;fill-rule:evenodd;stroke:#000000;stroke-width:1pt;stroke-opacity:0.968907"
         d="M 0,0 5,-5 -12.5,0 5,5 Z"
         id="path3622" />
    </marker>
    <marker
       style="overflow:visible"
       id="marker3476"
       refX="0"
       refY="0"
       orient="auto"
       inkscape:stockid="Arrow1Send"
       inkscape:isstock="true">
      <path
         transform="matrix(-0.2,0,0,-0.2,-1.2,0)"
         style="fill:#000000;fill-opacity:0.968907;fill-rule:evenodd;stroke:#000000;stroke-width:1pt;stroke-opacity:0.968907"
         d="M 0,0 5,-5 -12.5,0 5,5 Z"
         id="path3474" />
    </marker>
    <marker
       style="overflow:visible"
       id="marker3328"
       refX="0"
       refY="0"
       orient="auto"
       inkscape:stockid="Arrow1Send"
       inkscape:isstock="true">
      <path
         transform="matrix(-0.2,0,0,-0.2,-1.2,0)"
         style="fill:#000000;fill-opacity:0.968907;fill-rule:evenodd;stroke:#000000;stroke-width:1pt;stroke-opacity:0.968907"
         d="M 0,0 5,-5 -12.5,0 5,5 Z"
         id="path3326" />
    </marker>
    <marker
       style="overflow:visible"
       id="marker2911"
       refX="0"
       refY="0"
       orient="auto"
       inkscape:stockid="Arrow1Send"
       inkscape:isstock="true">
      <path
         transform="matrix(-0.2,0,0,-0.2,-1.2,0)"
         style="fill:#000000;fill-opacity:0.968907;fill-rule:evenodd;stroke:#000000;stroke-width:1pt;stroke-opacity:0.968907"
         d="M 0,0 5,-5 -12.5,0 5,5 Z"
         id="path2909" />
    </marker>
    <marker
       style="overflow:visible"
       id="marker2585"
       refX="0"
       refY="0"
       orient="auto"
       inkscape:stockid="Arrow1Send"
       inkscape:isstock="true">
      <path
         transform="matrix(-0.2,0,0,-0.2,-1.2,0)"
         style="fill:#000000;fill-opacity:0.968907;fill-rule:evenodd;stroke:#000000;stroke-width:1pt;stroke-opacity:0.968907"
         d="M 0,0 5,-5 -12.5,0 5,5 Z"
         id="path2583" />
    </marker>
    <marker
       style="overflow:visible"
       id="marker2343"
       refX="0"
       refY="0"
       orient="auto"
       inkscape:stockid="Arrow1Send"
       inkscape:isstock="true">
      <path
         transform="matrix(-0.2,0,0,-0.2,-1.2,0)"
         style="fill:#000000;fill-opacity:0.968907;fill-rule:evenodd;stroke:#000000;stroke-width:1pt;stroke-opacity:0.968907"
         d="M 0,0 5,-5 -12.5,0 5,5 Z"
         id="path2341" />
    </marker>
    <marker
       style="overflow:visible"
       id="marker2231"
       refX="0"
       refY="0"
       orient="auto"
       inkscape:stockid="Arrow1Send"
       inkscape:isstock="true">
      <path
         transform="matrix(-0.2,0,0,-0.2,-1.2,0)"
         style="fill:#000000;fill-opacity:0.968907;fill-rule:evenodd;stroke:#000000;stroke-width:1pt;stroke-opacity:0.968907"
         d="M 0,0 5,-5 -12.5,0 5,5 Z"
         id="path2229" />
    </marker>
    <marker
       style="overflow:visible"
       id="marker2053"
       refX="0"
       refY="0"
       orient="auto"
       inkscape:stockid="Arrow1Mend"
       inkscape:isstock="true">
      <path
         transform="matrix(-0.4,0,0,-0.4,-4,0)"
         style="fill:#000000;fill-opacity:0.968907;fill-rule:evenodd;stroke:#000000;stroke-width:1pt;stroke-opacity:0.968907"
         d="M 0,0 5,-5 -12.5,0 5,5 Z"
         id="path2051" />
    </marker>
    <marker
       style="overflow:visible"
       id="marker1959"
       refX="0"
       refY="0"
       orient="auto"
       inkscape:stockid="Arrow1Mend"
       inkscape:isstock="true">
      <path
         transform="matrix(-0.4,0,0,-0.4,-4,0)"
         style="fill:#000000;fill-opacity:0.968907;fill-rule:evenodd;stroke:#000000;stroke-width:1pt;stroke-opacity:0.968907"
         d="M 0,0 5,-5 -12.5,0 5,5 Z"
         id="path1957" />
    </marker>
    <marker
       style="overflow:visible"
       id="marker1871"
       refX="0"
       refY="0"
       orient="auto"
       inkscape:stockid="Arrow1Mend"
       inkscape:isstock="true">
      <path
         transform="matrix(-0.4,0,0,-0.4,-4,0)"
         style="fill:#000000;fill-opacity:0.968907;fill-rule:evenodd;stroke:#000000;stroke-width:1pt;stroke-opacity:0.968907"
         d="M 0,0 5,-5 -12.5,0 5,5 Z"
         id="path1869" />
    </marker>
    <marker
       style="overflow:visible"
       id="marker1651"
       refX="0"
       refY="0"
       orient="auto"
       inkscape:stockid="Arrow1Lend"
       inkscape:isstock="true">
      <path
         transform="matrix(-0.8,0,0,-0.8,-10,0)"
         style="fill:#000000;fill-opacity:0.968907;fill-rule:evenodd;stroke:#000000;stroke-width:1pt;stroke-opacity:0.968907"
         d="M 0,0 5,-5 -12.5,0 5,5 Z"
         id="path1649" />
    </marker>
    <marker
       style="overflow:visible"
       id="marker1641"
       refX="0"
       refY="0"
       orient="auto"
       inkscape:stockid="Arrow1Lend"
       inkscape:isstock="true">
      <path
         transform="matrix(-0.8,0,0,-0.8,-10,0)"
         style="fill:#000000;fill-opacity:0.968907;fill-rule:evenodd;stroke:#000000;stroke-width:1pt;stroke-opacity:0.968907"
         d="M 0,0 5,-5 -12.5,0 5,5 Z"
         id="path1639" />
    </marker>
    <marker
       style="overflow:visible"
       id="marker1577"
       refX="0"
       refY="0"
       orient="auto"
       inkscape:stockid="Arrow1Lend"
       inkscape:isstock="true">
      <path
         transform="matrix(-0.8,0,0,-0.8,-10,0)"
         style="fill:#000000;fill-opacity:0.968907;fill-rule:evenodd;stroke:#000000;stroke-width:1pt;stroke-opacity:0.968907"
         d="M 0,0 5,-5 -12.5,0 5,5 Z"
         id="path1575" />
    </marker>
    <marker
       style="overflow:visible"
       id="marker1519"
       refX="0"
       refY="0"
       orient="auto"
       inkscape:stockid="Arrow1Lend"
       inkscape:isstock="true">
      <path
         transform="matrix(-0.8,0,0,-0.8,-10,0)"
         style="fill:#000000;fill-opacity:0.968907;fill-rule:evenodd;stroke:#000000;stroke-width:1pt;stroke-opacity:0.968907"
         d="M 0,0 5,-5 -12.5,0 5,5 Z"
         id="path1517" />
    </marker>
    <marker
       style="overflow:visible"
       id="marker1467"
       refX="0"
       refY="0"
       orient="auto"
       inkscape:stockid="Arrow1Lend"
       inkscape:isstock="true">
      <path
         transform="matrix(-0.8,0,0,-0.8,-10,0)"
         style="fill:#000000;fill-opacity:0.968907;fill-rule:evenodd;stroke:#000000;stroke-width:1pt;stroke-opacity:0.968907"
         d="M 0,0 5,-5 -12.5,0 5,5 Z"
         id="path1465" />
    </marker>
    <marker
       style="overflow:visible"
       id="marker1293"
       refX="0"
       refY="0"
       orient="auto"
       inkscape:stockid="Arrow1Mstart"
       inkscape:isstock="true">
      <path
         transform="matrix(0.4,0,0,0.4,4,0)"
         style="fill:#000000;fill-opacity:0.968907;fill-rule:evenodd;stroke:#000000;stroke-width:1pt;stroke-opacity:0.968907"
         d="M 0,0 5,-5 -12.5,0 5,5 Z"
         id="path1291" />
    </marker>
    <marker
       style="overflow:visible"
       id="marker1283"
       refX="0"
       refY="0"
       orient="auto"
       inkscape:stockid="Arrow1Mstart"
       inkscape:isstock="true">
      <path
         transform="matrix(0.4,0,0,0.4,4,0)"
         style="fill:#000000;fill-opacity:0.968907;fill-rule:evenodd;stroke:#000000;stroke-width:1pt;stroke-opacity:0.968907"
         d="M 0,0 5,-5 -12.5,0 5,5 Z"
         id="path1281" />
    </marker>
    <marker
       style="overflow:visible"
       id="marker1249"
       refX="0"
       refY="0"
       orient="auto"
       inkscape:stockid="Arrow1Mstart"
       inkscape:isstock="true">
      <path
         transform="matrix(0.4,0,0,0.4,4,0)"
         style="fill:#000000;fill-opacity:0.968907;fill-rule:evenodd;stroke:#000000;stroke-width:1pt;stroke-opacity:0.968907"
         d="M 0,0 5,-5 -12.5,0 5,5 Z"
         id="path1247" />
    </marker>
    <marker
       style="overflow:visible"
       id="marker1221"
       refX="0"
       refY="0"
       orient="auto"
       inkscape:stockid="Arrow1Mstart"
       inkscape:isstock="true">
      <path
         transform="matrix(0.4,0,0,0.4,4,0)"
         style="fill:#000000;fill-opacity:0.968907;fill-rule:evenodd;stroke:#000000;stroke-width:1pt;stroke-opacity:0.968907"
         d="M 0,0 5,-5 -12.5,0 5,5 Z"
         id="path1219" />
    </marker>
    <marker
       style="overflow:visible"
       id="marker1199"
       refX="0"
       refY="0"
       orient="auto"
       inkscape:stockid="Arrow1Mstart"
       inkscape:isstock="true">
      <path
         transform="matrix(0.4,0,0,0.4,4,0)"
         style="fill:#000000;fill-opacity:0.968907;fill-rule:evenodd;stroke:#000000;stroke-width:1pt;stroke-opacity:0.968907"
         d="M 0,0 5,-5 -12.5,0 5,5 Z"
         id="path1197" />
    </marker>
    <linearGradient
       inkscape:collect="always"
       xlink:href="#linearGradient7270"
       id="linearGradient7272"
       x1="255.28346"
       y1="41.194706"
       x2="272.39386"
       y2="41.023109"
       gradientUnits="userSpaceOnUse" />
    <linearGradient
       inkscape:collect="always"
       xlink:href="#linearGradient7270"
       id="linearGradient7280"
       x1="259.59241"
       y1="37.293098"
       x2="272.83572"
       y2="35.108383"
       gradientUnits="userSpaceOnUse" />
  </defs>
  <sodipodi:namedview
     id="base"
     pagecolor="#ffffff"
     bordercolor="#000000"
     borderopacity="1"
     inkscape:pageopacity="0.0"
     inkscape:pageshadow="2"
     inkscape:zoom="1.2516087"
     inkscape:cx="470.7896"
     inkscape:cy="91.058669"
     inkscape:document-units="in"
     inkscape:current-layer="layer1"
     inkscape:document-rotation="0"
     showgrid="true"
     units="mm"
     showguides="false"
     inkscape:pagecheckerboard="false"
     showborder="true"
     inkscape:showpageshadow="true"
     borderlayer="true"
     inkscape:window-width="1536"
     inkscape:window-height="864"
     inkscape:window-x="0"
     inkscape:window-y="0"
     inkscape:window-maximized="1"
     inkscape:snap-grids="true"
     fit-margin-top="0.15"
     fit-margin-left="0.05"
     fit-margin-bottom="0.1"
     fit-margin-right="0.05"
     inkscape:snap-global="false"
     lock-margins="true">
    <inkscape:grid
       type="xygrid"
       id="grid10"
       dotted="false"
       units="in"
       spacingx="25.4"
       spacingy="16.933164"
       empspacing="3"
       visible="true"
       snapvisiblegridlinesonly="true"
       empcolor="#3f3fff"
       empopacity="0.41568627"
       originx="1.2615474"
       originy="0.55069097"
       enabled="false" />
    <sodipodi:guide
       position="237.25845,38.140931"
       orientation="0,-1"
       id="guide7264" />
  </sodipodi:namedview>
  <metadata
     id="metadata5">
    <rdf:RDF>
      <cc:Work
         rdf:about="">
        <dc:format>image/svg+xml</dc:format>
        <dc:type
           rdf:resource="http://purl.org/dc/dcmitype/StillImage" />
        <dc:title />
      </cc:Work>
    </rdf:RDF>
  </metadata>
  <g
     inkscape:label="Layer 1"
     inkscape:groupmode="layer"
     id="layer1"
     transform="translate(1.2615455,0.55069366)">
    <g
       id="g2277"
       transform="translate(-16.113837,1.5614137)">
      <path
         style="font-variation-settings:normal;opacity:1;vector-effect:none;fill:none;fill-opacity:1;stroke:#124aba;stroke-width:0.9;stroke-linecap:square;stroke-linejoin:miter;stroke-miterlimit:3;stroke-dasharray:none;stroke-dashoffset:0;stroke-opacity:1;paint-order:normal;stop-color:#000000;stop-opacity:1"
         d="m 127,39.892158 c -6.31062,1.9e-4 -12.70457,-8.467597 -16.93444,-8.466581 4.22987,-0.001 10.62255,-8.466583 16.93317,-8.466582 6.31062,10e-7 12.69568,8.466582 16.93316,8.466582 -4.23748,0 -10.62127,8.466391 -16.93189,8.466581 z"
         id="path18"
         sodipodi:nodetypes="zczcz" />
    </g>
    <path
       style="font-variation-settings:normal;opacity:1;vector-effect:none;fill:none;fill-opacity:1;stroke:#000000;stroke-width:0.9;stroke-linecap:square;stroke-linejoin:miter;stroke-miterlimit:3;stroke-dasharray:none;stroke-dashoffset:0;stroke-opacity:1;paint-order:normal;stop-color:#000000;stop-opacity:1"
       d="m 51.596389,21.408013 c 1.677969,-1.785767 6.750625,-2.816219 9.2801,-2.771063 C 56.522986,18.531763 47.913533,6.9974081 34.486335,9.4385275 26.359318,10.916052 25.407472,24.775094 16.941144,24.775094 8.4748169,24.775094 6.3534111,18.425348 0.00849046,18.425856 6.3534111,18.425348 8.4748169,12.075602 25.407472,5.7258577 c 16.93266,-6.34974593 29.158977,4.2884293 36.156751,4.4649823 -1.721868,1.21e-4 -6.012824,0.783556 -7.561806,2.778314"
       id="path4421"
       sodipodi:nodetypes="ccsscscc" />
    <path
       style="font-variation-settings:normal;opacity:1;vector-effect:none;fill:none;fill-opacity:1;stroke:#000000;stroke-width:0.9;stroke-linecap:square;stroke-linejoin:miter;stroke-miterlimit:3;stroke-dasharray:none;stroke-dashoffset:0;stroke-opacity:1;paint-order:normal;stop-color:#000000;stop-opacity:1"
       d="m 46.583746,25.024305 c 1.092512,-0.147336 1.970376,-0.623332 2.529678,-1.2689"
       id="path4419" />
    <path
       style="font-variation-settings:normal;opacity:1;vector-effect:none;fill:none;fill-opacity:1;stroke:#000000;stroke-width:0.9;stroke-linecap:square;stroke-linejoin:miter;stroke-miterlimit:3;stroke-dasharray:none;stroke-dashoffset:0;stroke-opacity:1;paint-order:normal;stop-color:#000000;stop-opacity:1"
       d="m 51.390456,15.282105 c -2.234691,2.519088 -5.917788,3.708575 -8.899256,3.734712 3.243668,0.177799 5.980501,1.787888 8.133603,3.750439 1.114436,1.015808 2.09131,1.840776 3.409249,2.087014"
       id="path887" />
    <path
       style="font-variation-settings:normal;vector-effect:none;fill:none;fill-opacity:1;stroke:#124aba;stroke-width:0.9;stroke-linecap:square;stroke-linejoin:miter;stroke-miterlimit:3;stroke-dasharray:none;stroke-dashoffset:0;stroke-opacity:1;paint-order:normal;stop-color:#000000"
       d="m 202.86348,25.132188 0.3216,-0.36641"
       id="path3398"
       sodipodi:nodetypes="cc" />
    <path
       style="font-variation-settings:normal;vector-effect:none;fill:none;fill-opacity:1;stroke:#124aba;stroke-width:0.889;stroke-linecap:butt;stroke-linejoin:miter;stroke-miterlimit:3;stroke-dasharray:none;stroke-dashoffset:0;stroke-opacity:1;paint-order:normal;stop-color:#000000"
       d="m 204.92056,23.178455 c 0.44273,-0.562683 1.91601,-0.660655 3.30859,-0.570491 6.28878,0.407167 13.2158,9.052464 17.45328,9.052464 -4.23748,0 -10.62127,8.46639 -16.93189,8.46658 -6.31062,1.9e-4 -10.94059,-7.582846 -17.40185,-6.345396 3.64348,-0.854179 6.88216,-4.118336 9.69784,-6.842526"
       id="path98"
       sodipodi:nodetypes="cscscc" />
    <path
       style="font-variation-settings:normal;vector-effect:none;fill:none;fill-opacity:1;stroke:#000000;stroke-width:0.9;stroke-linecap:square;stroke-linejoin:miter;stroke-miterlimit:3;stroke-dasharray:none;stroke-dashoffset:0;stroke-opacity:1;paint-order:normal;stop-color:#000000"
       d="m 217.5841,25.16793 c 1.46414,-2.317659 6.10366,-4.167452 8.12416,-4.136992 -6.71217,-0.467778 -14.3191,-8.948724 -22.69784,-8.959861 -2.73015,0 -4.90415,1.295374 -6.41645,3.330133"
       id="path3359"
       sodipodi:nodetypes="cccc" />
    <path
       style="font-variation-settings:normal;vector-effect:none;fill:none;fill-opacity:1;stroke:#000000;stroke-width:0.9;stroke-linecap:square;stroke-linejoin:miter;stroke-miterlimit:3;stroke-dasharray:none;stroke-dashoffset:0;stroke-opacity:1;paint-order:normal;stop-color:#000000"
       d="m 174.6972,19.278503 c 2.81199,-4.011621 7.51229,-6.382696 11.20288,-6.282118 9.94385,0.270994 16.78341,11.667356 22.19861,13.42012 1.70391,0.55151 3.42094,0.786135 4.68264,-0.921454"
       id="path3357" />
    <path
       style="font-variation-settings:normal;vector-effect:none;fill:none;fill-opacity:1;stroke:#000000;stroke-width:0.9;stroke-linecap:square;stroke-linejoin:miter;stroke-miterlimit:3;stroke-dasharray:none;stroke-dashoffset:0;stroke-opacity:1;paint-order:normal;stop-color:#000000"
       d="m 215.59601,27.594658 c -1.02467,1.240501 -2.153,2.181367 -3.69079,2.371543 -4.11546,0.670671 -7.33636,-1.672689 -9.93318,-3.89777 -5.13441,-4.398258 -10.99144,-11.275657 -17.80394,-9.996767 -2.75292,0.516797 -5.7416,2.884687 -6.62321,4.691919"
       id="path3353"
       sodipodi:nodetypes="cccsc" />
    <path
       style="font-variation-settings:normal;vector-effect:none;fill:none;fill-opacity:1;stroke:#000000;stroke-width:0.9;stroke-linecap:square;stroke-linejoin:miter;stroke-miterlimit:3;stroke-dasharray:none;stroke-dashoffset:0;stroke-opacity:1;paint-order:normal;stop-color:#000000"
       d="m 192.72656,20.267942 c -2.55018,2.910923 -6.85372,3.041247 -10.53823,3.016593 -7.90345,-0.05288 -11.54994,-6.439189 -17.8949,-6.438681 6.34496,-5.08e-4 21.26503,-12.4396755 34.87106,-12.3984996 13.60604,0.041176 17.30438,9.6645466 27.07484,9.7294106 -3.07213,-5.6e-4 -6.48689,1.509186 -7.31507,2.661646"
       id="path3351"
       sodipodi:nodetypes="cscscc" />
    <path
       style="font-variation-settings:normal;vector-effect:none;fill:none;fill-opacity:1;stroke:#000000;stroke-width:0.9;stroke-linecap:square;stroke-linejoin:miter;stroke-miterlimit:3;stroke-dasharray:none;stroke-dashoffset:0;stroke-opacity:1;paint-order:normal;stop-color:#000000"
       d="m 194.73237,17.72478 -0.16859,0.224842"
       id="path100"
       sodipodi:nodetypes="cc" />
    <path
       style="font-variation-settings:normal;opacity:1;vector-effect:none;fill:none;fill-opacity:1;stroke:#000000;stroke-width:0.889;stroke-linecap:square;stroke-linejoin:miter;stroke-miterlimit:4.33333;stroke-dasharray:none;stroke-dashoffset:0;stroke-opacity:1;stop-color:#000000;stop-opacity:1"
       d="m 214.43991,23.238231 c 0.81367,-1.442514 1.4024,-2.643235 2.471,-3.887817"
       id="path3347"
       sodipodi:nodetypes="cc" />
    <path
       id="path4413"
       style="font-variation-settings:normal;opacity:1;vector-effect:none;fill:none;fill-opacity:1;stroke:#000000;stroke-width:0.889;stroke-linecap:square;stroke-linejoin:miter;stroke-miterlimit:4.33333;stroke-dasharray:none;stroke-dashoffset:0;stroke-opacity:1;stop-color:#000000;stop-opacity:1"
       d="m 52.400767,32.412849 c 0.171655,-0.197389 1.267358,-0.759843 1.912808,-0.892225 m -6.346506,0.594902 c 0.924113,0.140328 2.386281,0.554539 3.265058,1.335333 2.025155,1.79935 5.029223,4.051916 7.756301,4.0248 -3.617337,-0.0014 -4.614555,2.241832 -7.542209,2.308039 -2.782932,0.06293 -4.475741,-2.279697 -7.447648,-2.254873 2.119914,-0.03236 4.552605,-1.709158 5.888509,-3.025894"
       sodipodi:nodetypes="cccscscc" />
    <path
       style="font-variation-settings:normal;opacity:1;vector-effect:none;fill:none;fill-opacity:1;stroke:#000000;stroke-width:0.889;stroke-linecap:butt;stroke-linejoin:miter;stroke-miterlimit:4.33333;stroke-dasharray:0.889, 0.889;stroke-dashoffset:0;stroke-opacity:1;stop-color:#000000;stop-opacity:1"
       d="m 50.757545,25.026578 0.122001,6.533839"
       id="path7078"
       sodipodi:nodetypes="cc" />
    <text
       xml:space="preserve"
       style="font-size:14.1107px;line-height:1.25;font-family:'Source Serif Pro';-inkscape-font-specification:'Source Serif Pro';text-align:center;letter-spacing:0px;text-anchor:middle;fill:#4d4d4d;fill-opacity:1;stroke-width:0.293972"
       x="-46.920715"
       y="-24.180756"
       id="text7082"
       transform="matrix(-0.89859338,0.05080359,-0.06271654,-1.1093046,0,0)"><tspan
         sodipodi:role="line"
         id="tspan7080"
         x="-46.920715"
         y="-24.180756"
         style="font-size:14.1107px;fill:#4d4d4d;fill-opacity:1;stroke-width:0.293972">}</tspan></text>
    <text
       xml:space="preserve"
       style="font-size:8.83062px;line-height:1.25;font-family:'Source Serif Pro';-inkscape-font-specification:'Source Serif Pro';text-align:center;letter-spacing:0px;text-anchor:middle;fill:#4d4d4d;fill-opacity:1;stroke-width:0.367942"
       x="32.010361"
       y="31.264322"
       id="text7086"><tspan
         sodipodi:role="line"
         id="tspan7084"
         x="32.010361"
         y="31.264322"
         style="fill:#4d4d4d;fill-opacity:1;stroke-width:0.367942"><tspan
   style="font-size:7.84944px;fill:#4d4d4d;fill-opacity:1;stroke-width:0.367942"
   id="tspan7100">|</tspan><tspan
   style="font-style:italic;font-variant:normal;font-weight:normal;font-stretch:normal;font-family:'Source Serif Pro';-inkscape-font-specification:'Source Serif Pro Italic';fill:#4d4d4d;fill-opacity:1;stroke-width:0.367942"
   id="tspan7094">n</tspan><tspan
   style="font-size:7.84944px;fill:#4d4d4d;fill-opacity:1;stroke-width:0.367942"
   id="tspan7096">|</tspan><tspan
   style="font-size:7.84944px;fill:#4d4d4d;fill-opacity:1;stroke-width:0.367942"
   id="tspan7106">−</tspan>2</tspan></text>
    <text
       xml:space="preserve"
       id="text7088"
       style="font-size:6.35px;line-height:1.25;font-family:'Source Serif Pro';-inkscape-font-specification:'Source Serif Pro';text-align:center;letter-spacing:0px;white-space:pre;shape-inside:url(#rect7090);" />
    <path
       style="font-variation-settings:normal;opacity:1;vector-effect:none;fill:none;fill-opacity:1;stroke:#000000;stroke-width:0.9;stroke-linecap:square;stroke-linejoin:miter;stroke-miterlimit:3;stroke-dasharray:none;stroke-dashoffset:0;stroke-opacity:1;paint-order:normal;stop-color:#000000;stop-opacity:1"
       d="m 133.73999,21.408013 c 1.67797,-1.785767 6.75062,-2.816219 9.2801,-2.771063 -4.3535,-0.105187 -12.96296,-11.6395419 -26.39016,-9.1984225 -8.12701,1.4775245 -9.07886,15.3365665 -17.545187,15.3365665 -8.466327,0 -10.587733,-6.349746 -16.932653,-6.349238 6.34492,-5.08e-4 8.466326,-6.350254 25.39898,-12.6999983 16.93266,-6.34974593 29.15898,4.2884293 36.15675,4.4649823 -1.72187,1.21e-4 -6.01282,0.783556 -7.5618,2.778314"
       id="path7138"
       sodipodi:nodetypes="ccsscscc" />
    <path
       style="font-variation-settings:normal;opacity:1;vector-effect:none;fill:none;fill-opacity:1;stroke:#000000;stroke-width:0.9;stroke-linecap:square;stroke-linejoin:miter;stroke-miterlimit:3;stroke-dasharray:none;stroke-dashoffset:0;stroke-opacity:1;paint-order:normal;stop-color:#000000;stop-opacity:1"
       d="m 128.72735,25.024305 c 1.09251,-0.147336 1.97037,-0.623332 2.52967,-1.2689"
       id="path7140" />
    <path
       style="font-variation-settings:normal;opacity:1;vector-effect:none;fill:none;fill-opacity:1;stroke:#000000;stroke-width:0.9;stroke-linecap:square;stroke-linejoin:miter;stroke-miterlimit:3;stroke-dasharray:none;stroke-dashoffset:0;stroke-opacity:1;paint-order:normal;stop-color:#000000;stop-opacity:1"
       d="m 133.53406,15.282105 c -2.2347,2.519088 -5.91779,3.708575 -8.89926,3.734712 3.24367,0.177799 5.9805,1.787888 8.1336,3.750439 1.11444,1.015808 2.09131,1.840776 3.40925,2.087014"
       id="path7142" />
    <path
       id="path7144"
       style="font-variation-settings:normal;opacity:1;vector-effect:none;fill:none;fill-opacity:1;stroke:#000000;stroke-width:0.889;stroke-linecap:square;stroke-linejoin:miter;stroke-miterlimit:4.33333;stroke-dasharray:none;stroke-dashoffset:0;stroke-opacity:1;stop-color:#000000;stop-opacity:1"
       d="m 134.54437,32.412849 c 0.17165,-0.197389 1.08137,-0.716118 1.72682,-0.8485 m -6.11861,0.487504 c 0.92411,0.140328 2.34437,0.618212 3.22315,1.399006 2.02515,1.79935 5.02922,4.051916 7.7563,4.0248 -3.61734,-0.0014 -4.61456,2.241832 -7.54221,2.308039 -2.78293,0.06293 -4.47574,-2.279697 -7.44765,-2.254873 2.11991,-0.03236 4.55261,-1.709158 5.88851,-3.025894"
       sodipodi:nodetypes="cccscscc" />
    <path
       style="font-variation-settings:normal;opacity:1;vector-effect:none;fill:none;fill-opacity:1;stroke:#000000;stroke-width:0.889;stroke-linecap:butt;stroke-linejoin:miter;stroke-miterlimit:4.33333;stroke-dasharray:0.889, 0.889;stroke-dashoffset:0;stroke-opacity:1;stop-color:#000000;stop-opacity:1"
       d="m 132.90114,25.026578 0.12201,6.533839"
       id="path7146"
       sodipodi:nodetypes="cc" />
    <path
       style="font-variation-settings:normal;opacity:1;vector-effect:none;fill:none;fill-opacity:1;stroke:#000000;stroke-width:0.889;stroke-linecap:square;stroke-linejoin:miter;stroke-miterlimit:3.66667;stroke-dasharray:none;stroke-dashoffset:0;stroke-opacity:1;paint-order:normal;stop-color:#000000;stop-opacity:1"
       d="m 168.53712,29.566041 c 0.86044,-0.116039 1.4777,-0.427798 1.9182,-0.936236"
       id="path7228"
       sodipodi:nodetypes="cc" />
    <path
       style="font-variation-settings:normal;opacity:1;vector-effect:none;fill:none;fill-opacity:1;stroke:#000000;stroke-width:0.889;stroke-linecap:square;stroke-linejoin:miter;stroke-miterlimit:3.66667;stroke-dasharray:none;stroke-dashoffset:0;stroke-opacity:1;paint-order:normal;stop-color:#000000;stop-opacity:1"
       d="m 172.7754,22.273035 c -1.6265,2.204566 -4.25838,3.325151 -6.7476,3.653106 2.44693,-0.345132 4.3396,0.450014 6.03534,1.995687 0.87772,0.800033 1.64709,1.449764 2.68507,1.643697"
       id="path7230"
       sodipodi:nodetypes="ccsc" />
    <path
       id="path7232"
       style="font-variation-settings:normal;opacity:1;vector-effect:none;fill:none;fill-opacity:1;stroke:#000000;stroke-width:0.889;stroke-linecap:square;stroke-linejoin:miter;stroke-miterlimit:3.66667;stroke-dasharray:none;stroke-dashoffset:0;stroke-opacity:1;stop-color:#000000;stop-opacity:1"
       d="m 173.53566,35.342372 c 0.13519,-0.15546 0.77788,-0.387839 1.28622,-0.4921 m -4.81891,0.38395 c 0.72781,0.11052 1.84639,0.486893 2.5385,1.101833 1.59497,1.417138 4.78091,3.932848 6.94218,3.433779 -2.15227,0.510953 -4.34672,2.032172 -7.92469,2.044905 -2.19233,0.0078 -3.76053,-2.480091 -6.10115,-2.46054 1.6696,-0.02549 4.89072,-1.043628 5.94285,-2.080667"
       sodipodi:nodetypes="cccscscc" />
    <path
       style="font-variation-settings:normal;opacity:1;vector-effect:none;fill:none;fill-opacity:1;stroke:#000000;stroke-width:0.7366;stroke-linecap:butt;stroke-linejoin:miter;stroke-miterlimit:3.66667;stroke-dasharray:0.7366, 0.7366;stroke-dashoffset:0;stroke-opacity:1;stop-color:#000000;stop-opacity:1"
       d="m 172.16769,29.701232 0.0961,5.145943"
       id="path7234"
       sodipodi:nodetypes="cc" />
    <path
       style="font-variation-settings:normal;opacity:1;vector-effect:none;fill:none;fill-opacity:1;stroke:#000000;stroke-width:0.889;stroke-linecap:butt;stroke-linejoin:miter;stroke-miterlimit:4.33333;stroke-dasharray:none;stroke-dashoffset:0;stroke-opacity:1;stop-color:#000000;stop-opacity:1"
       d="m 172.53296,26.648554 c 0.58697,-0.816277 3.20853,-2.299364 3.53772,-3.110579"
       id="path7236"
       sodipodi:nodetypes="cc" />
    <path
       style="font-variation-settings:normal;vector-effect:none;fill:none;fill-opacity:1;stroke:#124aba;stroke-width:0.9;stroke-linecap:square;stroke-linejoin:miter;stroke-miterlimit:3;stroke-dasharray:none;stroke-dashoffset:0;stroke-opacity:1;paint-order:normal;stop-color:#000000"
       d="m 282.41854,25.132188 0.3216,-0.36641"
       id="path7238"
       sodipodi:nodetypes="cc" />
    <path
       style="font-variation-settings:normal;vector-effect:none;fill:none;fill-opacity:1;stroke:url(#linearGradient7272);stroke-width:0.889;stroke-linecap:butt;stroke-linejoin:miter;stroke-miterlimit:3;stroke-dasharray:none;stroke-dashoffset:0;stroke-opacity:1;paint-order:normal;stop-color:#000000"
       d="m 284.47562,23.178455 c 0.44273,-0.562683 1.91601,-0.660655 3.30859,-0.570491 6.28878,0.407167 13.2158,9.052464 17.45328,9.052464 -4.23748,0 -4.35718,6.327523 -13.79234,9.787207 -7.52523,3.253347 -21.8517,4.219131 -30.44965,2.3678 -8.74241,-1.882439 -9.43489,-4.253209 -13.34969,-4.015127 1.7866,-0.06274 2.54413,-1.417789 3.59626,-2.454828"
       id="path7240"
       sodipodi:nodetypes="csccscc" />
    <path
       style="font-variation-settings:normal;vector-effect:none;fill:none;fill-opacity:1;stroke:#000000;stroke-width:0.9;stroke-linecap:square;stroke-linejoin:miter;stroke-miterlimit:3;stroke-dasharray:none;stroke-dashoffset:0;stroke-opacity:1;paint-order:normal;stop-color:#000000"
       d="m 297.13916,25.16793 c 1.46414,-2.317659 6.10366,-4.167452 8.12416,-4.136992 -6.71217,-0.467778 -14.3191,-8.948724 -22.69784,-8.959861 -2.73015,0 -4.90415,1.295374 -6.41645,3.330133"
       id="path7242"
       sodipodi:nodetypes="cccc" />
    <path
       style="font-variation-settings:normal;vector-effect:none;fill:none;fill-opacity:1;stroke:#000000;stroke-width:0.9;stroke-linecap:square;stroke-linejoin:miter;stroke-miterlimit:3;stroke-dasharray:none;stroke-dashoffset:0;stroke-opacity:1;paint-order:normal;stop-color:#000000"
       d="m 254.25226,19.278503 c 2.81199,-4.011621 7.51229,-6.382696 11.20288,-6.282118 9.94385,0.270994 16.78341,11.667356 22.19861,13.42012 1.70391,0.55151 3.42094,0.786135 4.68264,-0.921454"
       id="path7244" />
    <path
       style="font-variation-settings:normal;vector-effect:none;fill:none;fill-opacity:1;stroke:#000000;stroke-width:0.9;stroke-linecap:square;stroke-linejoin:miter;stroke-miterlimit:3;stroke-dasharray:none;stroke-dashoffset:0;stroke-opacity:1;paint-order:normal;stop-color:#000000"
       d="m 295.15107,27.594658 c -1.02467,1.240501 -2.153,2.181367 -3.69079,2.371543 -4.11546,0.670671 -7.33636,-1.672689 -9.93318,-3.89777 -5.13441,-4.398258 -10.99144,-11.275657 -17.80394,-9.996767 -2.75292,0.516797 -5.7416,2.884687 -6.62321,4.691919"
       id="path7246"
       sodipodi:nodetypes="cccsc" />
    <path
       style="font-variation-settings:normal;vector-effect:none;fill:none;fill-opacity:1;stroke:#000000;stroke-width:0.9;stroke-linecap:square;stroke-linejoin:miter;stroke-miterlimit:3;stroke-dasharray:none;stroke-dashoffset:0;stroke-opacity:1;paint-order:normal;stop-color:#000000"
       d="m 272.28162,20.267942 c -2.55018,2.910923 -6.85372,3.041247 -10.53823,3.016593 -7.90345,-0.05288 -11.54994,-6.439189 -17.8949,-6.438681 6.34496,-5.08e-4 21.26503,-12.4396755 34.87106,-12.3984996 13.60604,0.041176 17.30438,9.6645466 27.07484,9.7294106 -3.07213,-5.6e-4 -6.48689,1.509186 -7.31507,2.661646"
       id="path7248"
       sodipodi:nodetypes="cscscc" />
    <path
       style="font-variation-settings:normal;vector-effect:none;fill:none;fill-opacity:1;stroke:#000000;stroke-width:0.9;stroke-linecap:square;stroke-linejoin:miter;stroke-miterlimit:3;stroke-dasharray:none;stroke-dashoffset:0;stroke-opacity:1;paint-order:normal;stop-color:#000000"
       d="m 274.28743,17.72478 -0.16859,0.224842"
       id="path7250"
       sodipodi:nodetypes="cc" />
    <path
       style="font-variation-settings:normal;opacity:1;vector-effect:none;fill:none;fill-opacity:1;stroke:#000000;stroke-width:0.889;stroke-linecap:square;stroke-linejoin:miter;stroke-miterlimit:4.33333;stroke-dasharray:none;stroke-dashoffset:0;stroke-opacity:1;stop-color:#000000;stop-opacity:1"
       d="m 293.99497,23.238231 c 0.81367,-1.442514 1.4024,-2.643235 2.471,-3.887817"
       id="path7252"
       sodipodi:nodetypes="cc" />
    <path
       style="font-variation-settings:normal;opacity:1;vector-effect:none;fill:none;fill-opacity:1;stroke:#000000;stroke-width:0.889;stroke-linecap:square;stroke-linejoin:miter;stroke-miterlimit:3.66667;stroke-dasharray:none;stroke-dashoffset:0;stroke-opacity:1;paint-order:normal;stop-color:#000000;stop-opacity:1"
       d="m 248.09218,29.566041 c 0.86044,-0.116039 1.4777,-0.427798 1.9182,-0.936236"
       id="path7254"
       sodipodi:nodetypes="cc" />
    <path
       style="font-variation-settings:normal;opacity:1;vector-effect:none;fill:none;fill-opacity:1;stroke:#000000;stroke-width:0.889;stroke-linecap:square;stroke-linejoin:miter;stroke-miterlimit:3.66667;stroke-dasharray:none;stroke-dashoffset:0;stroke-opacity:1;paint-order:normal;stop-color:#000000;stop-opacity:1"
       d="m 252.33046,22.273035 c -1.6265,2.204566 -4.25838,3.325151 -6.7476,3.653106 2.44693,-0.345132 4.3396,0.450014 6.03534,1.995687 0.87772,0.800033 1.64709,1.449764 2.68507,1.643697"
       id="path7256"
       sodipodi:nodetypes="ccsc" />
    <path
       id="path7258"
       style="font-variation-settings:normal;opacity:1;vector-effect:none;fill:none;fill-opacity:1;stroke:url(#linearGradient7280);stroke-width:0.889;stroke-linecap:square;stroke-linejoin:miter;stroke-miterlimit:3.66667;stroke-dasharray:none;stroke-dashoffset:0;stroke-opacity:1;stop-color:#000000;stop-opacity:1"
       d="m 253.21327,35.310946 c 0.13519,-0.15546 0.65533,-0.356413 1.16367,-0.460674 m -4.81891,0.38395 c 0.72781,0.11052 1.82346,0.513704 2.5385,1.101833 5.18368,4.263663 9.18799,4.532805 13.86206,3.917032 5.34944,-0.704748 7.4077,-2.446472 8.99972,-4.252128 2.49194,-2.826331 2.886,-6.206931 5.64328,-9.061873"
       sodipodi:nodetypes="cccsssc" />
    <path
       style="font-variation-settings:normal;opacity:1;vector-effect:none;fill:none;fill-opacity:1;stroke:#000000;stroke-width:0.7366;stroke-linecap:butt;stroke-linejoin:miter;stroke-miterlimit:3.66667;stroke-dasharray:0.7366, 0.7366;stroke-dashoffset:0;stroke-opacity:1;stop-color:#000000;stop-opacity:1"
       d="m 251.72275,29.701232 0.0961,5.145943"
       id="path7260"
       sodipodi:nodetypes="cc" />
    <path
       style="font-variation-settings:normal;opacity:1;vector-effect:none;fill:none;fill-opacity:1;stroke:#000000;stroke-width:0.889;stroke-linecap:butt;stroke-linejoin:miter;stroke-miterlimit:4.33333;stroke-dasharray:none;stroke-dashoffset:0;stroke-opacity:1;stop-color:#000000;stop-opacity:1"
       d="m 252.08802,26.648554 c 0.58697,-0.816277 3.20853,-2.299364 3.53772,-3.110579"
       id="path7262"
       sodipodi:nodetypes="cc" />
    <path
       style="font-variation-settings:normal;opacity:1;vector-effect:none;fill:none;fill-opacity:1;stroke:#808080;stroke-width:0.762;stroke-linecap:butt;stroke-linejoin:miter;stroke-miterlimit:4.33333;stroke-dasharray:1.524, 1.52400000000000002;stroke-dashoffset:0;stroke-opacity:1;stop-color:#000000;stop-opacity:1"
       d="m 180.80231,39.266511 9.34796,-4.888855"
       id="path2038"
       sodipodi:nodetypes="cc" />
  </g>
  <g
     inkscape:groupmode="layer"
     id="layer2"
     inkscape:label="Arrows"
     transform="translate(1.2615455,0.55069366)">
    <path
       style="font-variation-settings:normal;opacity:1;vector-effect:none;fill:none;fill-opacity:1;stroke:#808080;stroke-width:0.6;stroke-linecap:square;stroke-linejoin:miter;stroke-miterlimit:4.33333;stroke-dasharray:none;stroke-dashoffset:0;stroke-opacity:1;marker-end:url(#marker5412);stop-color:#000000;stop-opacity:1"
       d="M 62.438953,26.630559 H 79.371609"
       id="path905" />
    <path
       style="font-variation-settings:normal;opacity:1;vector-effect:none;fill:none;fill-opacity:1;stroke:#808080;stroke-width:0.6;stroke-linecap:square;stroke-linejoin:miter;stroke-miterlimit:4.33333;stroke-dasharray:none;stroke-dashoffset:0;stroke-opacity:1;marker-end:url(#marker5222);stop-color:#000000;stop-opacity:1"
       d="m 143.27133,26.630559 h 16.93266"
       id="path907" />
    <path
       style="font-variation-settings:normal;opacity:1;vector-effect:none;fill:none;fill-opacity:1;stroke:#808080;stroke-width:0.6;stroke-linecap:square;stroke-linejoin:miter;stroke-miterlimit:4.33333;stroke-dasharray:none;stroke-dashoffset:0;stroke-opacity:1;marker-end:url(#marker5624);stop-color:#000000;stop-opacity:1"
       d="m 224.6329,26.630559 h 16.93266"
       id="path911" />
  </g>
</svg>
