<?xml version="1.0" encoding="UTF-8" standalone="no"?>
<svg
   xmlns:dc="http://purl.org/dc/elements/1.1/"
   xmlns:cc="http://creativecommons.org/ns#"
   xmlns:rdf="http://www.w3.org/1999/02/22-rdf-syntax-ns#"
   xmlns:svg="http://www.w3.org/2000/svg"
   xmlns="http://www.w3.org/2000/svg"
   xmlns:sodipodi="http://sodipodi.sourceforge.net/DTD/sodipodi-0.dtd"
   xmlns:inkscape="http://www.inkscape.org/namespaces/inkscape"
   width="9.3336573in"
   height="4.452642in"
   viewBox="0 0 237.07489 113.0971"
   version="1.1"
   id="svg8"
   inkscape:version="1.0.2 (e86c870879, 2021-01-15)"
   sodipodi:docname="cobordism-movie.svg">
  <defs
     id="defs2">
    <marker
       style="overflow:visible"
       id="marker1128"
       refX="0"
       refY="0"
       orient="auto"
       inkscape:stockid="Arrow1Mend"
       inkscape:isstock="true">
      <path
         transform="matrix(-0.4,0,0,-0.4,-4,0)"
         style="fill:#808080;fill-opacity:1;fill-rule:evenodd;stroke:#808080;stroke-width:1pt;stroke-opacity:1"
         d="M 0,0 5,-5 -12.5,0 5,5 Z"
         id="path1126" />
    </marker>
    <marker
       style="overflow:visible"
       id="marker1118"
       refX="0"
       refY="0"
       orient="auto"
       inkscape:stockid="Arrow2Mend"
       inkscape:isstock="true">
      <path
         transform="scale(-0.6)"
         d="M 8.7185878,4.0337352 -2.2072895,0.01601326 8.7185884,-4.0017078 c -1.7454984,2.3720609 -1.7354408,5.6174519 -6e-7,8.035443 z"
         style="fill:#000000;fill-opacity:0.968907;fill-rule:evenodd;stroke:#000000;stroke-width:0.625;stroke-linejoin:round;stroke-opacity:0.968907"
         id="path1116" />
    </marker>
    <marker
       style="overflow:visible"
       id="marker5624"
       refX="0"
       refY="0"
       orient="auto"
       inkscape:stockid="Arrow1Mend"
       inkscape:isstock="true">
      <path
         transform="matrix(-0.4,0,0,-0.4,-4,0)"
         style="fill:#808080;fill-opacity:1;fill-rule:evenodd;stroke:#808080;stroke-width:1pt;stroke-opacity:1"
         d="M 0,0 5,-5 -12.5,0 5,5 Z"
         id="path5622" />
    </marker>
    <marker
       style="overflow:visible"
       id="marker5614"
       refX="0"
       refY="0"
       orient="auto"
       inkscape:stockid="Arrow1Mend"
       inkscape:isstock="true"
       inkscape:collect="always">
      <path
         transform="matrix(-0.4,0,0,-0.4,-4,0)"
         style="fill:#808080;fill-opacity:1;fill-rule:evenodd;stroke:#808080;stroke-width:1pt;stroke-opacity:1"
         d="M 0,0 5,-5 -12.5,0 5,5 Z"
         id="path5612" />
    </marker>
    <marker
       style="overflow:visible"
       id="marker5412"
       refX="0"
       refY="0"
       orient="auto"
       inkscape:stockid="Arrow1Mend"
       inkscape:isstock="true">
      <path
         transform="matrix(-0.4,0,0,-0.4,-4,0)"
         style="fill:#808080;fill-opacity:1;fill-rule:evenodd;stroke:#808080;stroke-width:1pt;stroke-opacity:1"
         d="M 0,0 5,-5 -12.5,0 5,5 Z"
         id="path5410" />
    </marker>
    <marker
       style="overflow:visible"
       id="marker5222"
       refX="0"
       refY="0"
       orient="auto"
       inkscape:stockid="Arrow1Mend"
       inkscape:isstock="true">
      <path
         transform="matrix(-0.4,0,0,-0.4,-4,0)"
         style="fill:#808080;fill-opacity:1;fill-rule:evenodd;stroke:#808080;stroke-width:1pt;stroke-opacity:1"
         d="M 0,0 5,-5 -12.5,0 5,5 Z"
         id="path5220" />
    </marker>
    <marker
       style="overflow:visible"
       id="marker5038"
       refX="0"
       refY="0"
       orient="auto"
       inkscape:stockid="Arrow1Mend"
       inkscape:isstock="true">
      <path
         transform="matrix(-0.4,0,0,-0.4,-4,0)"
         style="fill:#808080;fill-opacity:1;fill-rule:evenodd;stroke:#808080;stroke-width:1pt;stroke-opacity:1"
         d="M 0,0 5,-5 -12.5,0 5,5 Z"
         id="path5036" />
    </marker>
    <marker
       style="overflow:visible"
       id="marker4584"
       refX="0"
       refY="0"
       orient="auto"
       inkscape:stockid="Arrow1Mend"
       inkscape:isstock="true">
      <path
         transform="matrix(-0.4,0,0,-0.4,-4,0)"
         style="fill:#000000;fill-opacity:0.968907;fill-rule:evenodd;stroke:#000000;stroke-width:1pt;stroke-opacity:0.968907"
         d="M 0,0 5,-5 -12.5,0 5,5 Z"
         id="path4582" />
    </marker>
    <marker
       style="overflow:visible"
       id="marker4574"
       refX="0"
       refY="0"
       orient="auto"
       inkscape:stockid="Arrow1Mend"
       inkscape:isstock="true">
      <path
         transform="matrix(-0.4,0,0,-0.4,-4,0)"
         style="fill:#000000;fill-opacity:0.968907;fill-rule:evenodd;stroke:#000000;stroke-width:1pt;stroke-opacity:0.968907"
         d="M 0,0 5,-5 -12.5,0 5,5 Z"
         id="path4572" />
    </marker>
    <marker
       style="overflow:visible"
       id="marker4396"
       refX="0"
       refY="0"
       orient="auto"
       inkscape:stockid="Arrow1Mend"
       inkscape:isstock="true">
      <path
         transform="matrix(-0.4,0,0,-0.4,-4,0)"
         style="fill:#000000;fill-opacity:0.968907;fill-rule:evenodd;stroke:#000000;stroke-width:1pt;stroke-opacity:0.968907"
         d="M 0,0 5,-5 -12.5,0 5,5 Z"
         id="path4394" />
    </marker>
    <marker
       style="overflow:visible"
       id="marker4230"
       refX="0"
       refY="0"
       orient="auto"
       inkscape:stockid="Arrow1Mend"
       inkscape:isstock="true">
      <path
         transform="matrix(-0.4,0,0,-0.4,-4,0)"
         style="fill:#000000;fill-opacity:0.968907;fill-rule:evenodd;stroke:#000000;stroke-width:1pt;stroke-opacity:0.968907"
         d="M 0,0 5,-5 -12.5,0 5,5 Z"
         id="path4228" />
    </marker>
    <marker
       style="overflow:visible"
       id="marker4070"
       refX="0"
       refY="0"
       orient="auto"
       inkscape:stockid="Arrow1Mend"
       inkscape:isstock="true">
      <path
         transform="matrix(-0.4,0,0,-0.4,-4,0)"
         style="fill:#000000;fill-opacity:0.968907;fill-rule:evenodd;stroke:#000000;stroke-width:1pt;stroke-opacity:0.968907"
         d="M 0,0 5,-5 -12.5,0 5,5 Z"
         id="path4068" />
    </marker>
    <marker
       style="overflow:visible"
       id="marker3656"
       refX="0"
       refY="0"
       orient="auto"
       inkscape:stockid="Arrow1Send"
       inkscape:isstock="true">
      <path
         transform="matrix(-0.2,0,0,-0.2,-1.2,0)"
         style="fill:#000000;fill-opacity:0.968907;fill-rule:evenodd;stroke:#000000;stroke-width:1pt;stroke-opacity:0.968907"
         d="M 0,0 5,-5 -12.5,0 5,5 Z"
         id="path3654" />
    </marker>
    <marker
       style="overflow:visible"
       id="marker3640"
       refX="0"
       refY="0"
       orient="auto"
       inkscape:stockid="Arrow1Send"
       inkscape:isstock="true">
      <path
         transform="matrix(-0.2,0,0,-0.2,-1.2,0)"
         style="fill:#000000;fill-opacity:0.968907;fill-rule:evenodd;stroke:#000000;stroke-width:1pt;stroke-opacity:0.968907"
         d="M 0,0 5,-5 -12.5,0 5,5 Z"
         id="path3638" />
    </marker>
    <marker
       style="overflow:visible"
       id="marker3624"
       refX="0"
       refY="0"
       orient="auto"
       inkscape:stockid="Arrow1Send"
       inkscape:isstock="true">
      <path
         transform="matrix(-0.2,0,0,-0.2,-1.2,0)"
         style="fill:#000000;fill-opacity:0.968907;fill-rule:evenodd;stroke:#000000;stroke-width:1pt;stroke-opacity:0.968907"
         d="M 0,0 5,-5 -12.5,0 5,5 Z"
         id="path3622" />
    </marker>
    <marker
       style="overflow:visible"
       id="marker3476"
       refX="0"
       refY="0"
       orient="auto"
       inkscape:stockid="Arrow1Send"
       inkscape:isstock="true">
      <path
         transform="matrix(-0.2,0,0,-0.2,-1.2,0)"
         style="fill:#000000;fill-opacity:0.968907;fill-rule:evenodd;stroke:#000000;stroke-width:1pt;stroke-opacity:0.968907"
         d="M 0,0 5,-5 -12.5,0 5,5 Z"
         id="path3474" />
    </marker>
    <marker
       style="overflow:visible"
       id="marker3328"
       refX="0"
       refY="0"
       orient="auto"
       inkscape:stockid="Arrow1Send"
       inkscape:isstock="true">
      <path
         transform="matrix(-0.2,0,0,-0.2,-1.2,0)"
         style="fill:#000000;fill-opacity:0.968907;fill-rule:evenodd;stroke:#000000;stroke-width:1pt;stroke-opacity:0.968907"
         d="M 0,0 5,-5 -12.5,0 5,5 Z"
         id="path3326" />
    </marker>
    <marker
       style="overflow:visible"
       id="marker2911"
       refX="0"
       refY="0"
       orient="auto"
       inkscape:stockid="Arrow1Send"
       inkscape:isstock="true">
      <path
         transform="matrix(-0.2,0,0,-0.2,-1.2,0)"
         style="fill:#000000;fill-opacity:0.968907;fill-rule:evenodd;stroke:#000000;stroke-width:1pt;stroke-opacity:0.968907"
         d="M 0,0 5,-5 -12.5,0 5,5 Z"
         id="path2909" />
    </marker>
    <marker
       style="overflow:visible"
       id="marker2585"
       refX="0"
       refY="0"
       orient="auto"
       inkscape:stockid="Arrow1Send"
       inkscape:isstock="true">
      <path
         transform="matrix(-0.2,0,0,-0.2,-1.2,0)"
         style="fill:#000000;fill-opacity:0.968907;fill-rule:evenodd;stroke:#000000;stroke-width:1pt;stroke-opacity:0.968907"
         d="M 0,0 5,-5 -12.5,0 5,5 Z"
         id="path2583" />
    </marker>
    <marker
       style="overflow:visible"
       id="marker2343"
       refX="0"
       refY="0"
       orient="auto"
       inkscape:stockid="Arrow1Send"
       inkscape:isstock="true">
      <path
         transform="matrix(-0.2,0,0,-0.2,-1.2,0)"
         style="fill:#000000;fill-opacity:0.968907;fill-rule:evenodd;stroke:#000000;stroke-width:1pt;stroke-opacity:0.968907"
         d="M 0,0 5,-5 -12.5,0 5,5 Z"
         id="path2341" />
    </marker>
    <marker
       style="overflow:visible"
       id="marker2231"
       refX="0"
       refY="0"
       orient="auto"
       inkscape:stockid="Arrow1Send"
       inkscape:isstock="true">
      <path
         transform="matrix(-0.2,0,0,-0.2,-1.2,0)"
         style="fill:#000000;fill-opacity:0.968907;fill-rule:evenodd;stroke:#000000;stroke-width:1pt;stroke-opacity:0.968907"
         d="M 0,0 5,-5 -12.5,0 5,5 Z"
         id="path2229" />
    </marker>
    <marker
       style="overflow:visible"
       id="marker2053"
       refX="0"
       refY="0"
       orient="auto"
       inkscape:stockid="Arrow1Mend"
       inkscape:isstock="true">
      <path
         transform="matrix(-0.4,0,0,-0.4,-4,0)"
         style="fill:#000000;fill-opacity:0.968907;fill-rule:evenodd;stroke:#000000;stroke-width:1pt;stroke-opacity:0.968907"
         d="M 0,0 5,-5 -12.5,0 5,5 Z"
         id="path2051" />
    </marker>
    <marker
       style="overflow:visible"
       id="marker1959"
       refX="0"
       refY="0"
       orient="auto"
       inkscape:stockid="Arrow1Mend"
       inkscape:isstock="true">
      <path
         transform="matrix(-0.4,0,0,-0.4,-4,0)"
         style="fill:#000000;fill-opacity:0.968907;fill-rule:evenodd;stroke:#000000;stroke-width:1pt;stroke-opacity:0.968907"
         d="M 0,0 5,-5 -12.5,0 5,5 Z"
         id="path1957" />
    </marker>
    <marker
       style="overflow:visible"
       id="marker1871"
       refX="0"
       refY="0"
       orient="auto"
       inkscape:stockid="Arrow1Mend"
       inkscape:isstock="true">
      <path
         transform="matrix(-0.4,0,0,-0.4,-4,0)"
         style="fill:#000000;fill-opacity:0.968907;fill-rule:evenodd;stroke:#000000;stroke-width:1pt;stroke-opacity:0.968907"
         d="M 0,0 5,-5 -12.5,0 5,5 Z"
         id="path1869" />
    </marker>
    <marker
       style="overflow:visible"
       id="marker1651"
       refX="0"
       refY="0"
       orient="auto"
       inkscape:stockid="Arrow1Lend"
       inkscape:isstock="true">
      <path
         transform="matrix(-0.8,0,0,-0.8,-10,0)"
         style="fill:#000000;fill-opacity:0.968907;fill-rule:evenodd;stroke:#000000;stroke-width:1pt;stroke-opacity:0.968907"
         d="M 0,0 5,-5 -12.5,0 5,5 Z"
         id="path1649" />
    </marker>
    <marker
       style="overflow:visible"
       id="marker1641"
       refX="0"
       refY="0"
       orient="auto"
       inkscape:stockid="Arrow1Lend"
       inkscape:isstock="true">
      <path
         transform="matrix(-0.8,0,0,-0.8,-10,0)"
         style="fill:#000000;fill-opacity:0.968907;fill-rule:evenodd;stroke:#000000;stroke-width:1pt;stroke-opacity:0.968907"
         d="M 0,0 5,-5 -12.5,0 5,5 Z"
         id="path1639" />
    </marker>
    <marker
       style="overflow:visible"
       id="marker1577"
       refX="0"
       refY="0"
       orient="auto"
       inkscape:stockid="Arrow1Lend"
       inkscape:isstock="true">
      <path
         transform="matrix(-0.8,0,0,-0.8,-10,0)"
         style="fill:#000000;fill-opacity:0.968907;fill-rule:evenodd;stroke:#000000;stroke-width:1pt;stroke-opacity:0.968907"
         d="M 0,0 5,-5 -12.5,0 5,5 Z"
         id="path1575" />
    </marker>
    <marker
       style="overflow:visible"
       id="marker1519"
       refX="0"
       refY="0"
       orient="auto"
       inkscape:stockid="Arrow1Lend"
       inkscape:isstock="true">
      <path
         transform="matrix(-0.8,0,0,-0.8,-10,0)"
         style="fill:#000000;fill-opacity:0.968907;fill-rule:evenodd;stroke:#000000;stroke-width:1pt;stroke-opacity:0.968907"
         d="M 0,0 5,-5 -12.5,0 5,5 Z"
         id="path1517" />
    </marker>
    <marker
       style="overflow:visible"
       id="marker1467"
       refX="0"
       refY="0"
       orient="auto"
       inkscape:stockid="Arrow1Lend"
       inkscape:isstock="true">
      <path
         transform="matrix(-0.8,0,0,-0.8,-10,0)"
         style="fill:#000000;fill-opacity:0.968907;fill-rule:evenodd;stroke:#000000;stroke-width:1pt;stroke-opacity:0.968907"
         d="M 0,0 5,-5 -12.5,0 5,5 Z"
         id="path1465" />
    </marker>
    <marker
       style="overflow:visible"
       id="marker1293"
       refX="0"
       refY="0"
       orient="auto"
       inkscape:stockid="Arrow1Mstart"
       inkscape:isstock="true">
      <path
         transform="matrix(0.4,0,0,0.4,4,0)"
         style="fill:#000000;fill-opacity:0.968907;fill-rule:evenodd;stroke:#000000;stroke-width:1pt;stroke-opacity:0.968907"
         d="M 0,0 5,-5 -12.5,0 5,5 Z"
         id="path1291" />
    </marker>
    <marker
       style="overflow:visible"
       id="marker1283"
       refX="0"
       refY="0"
       orient="auto"
       inkscape:stockid="Arrow1Mstart"
       inkscape:isstock="true">
      <path
         transform="matrix(0.4,0,0,0.4,4,0)"
         style="fill:#000000;fill-opacity:0.968907;fill-rule:evenodd;stroke:#000000;stroke-width:1pt;stroke-opacity:0.968907"
         d="M 0,0 5,-5 -12.5,0 5,5 Z"
         id="path1281" />
    </marker>
    <marker
       style="overflow:visible"
       id="marker1249"
       refX="0"
       refY="0"
       orient="auto"
       inkscape:stockid="Arrow1Mstart"
       inkscape:isstock="true">
      <path
         transform="matrix(0.4,0,0,0.4,4,0)"
         style="fill:#000000;fill-opacity:0.968907;fill-rule:evenodd;stroke:#000000;stroke-width:1pt;stroke-opacity:0.968907"
         d="M 0,0 5,-5 -12.5,0 5,5 Z"
         id="path1247" />
    </marker>
    <marker
       style="overflow:visible"
       id="marker1221"
       refX="0"
       refY="0"
       orient="auto"
       inkscape:stockid="Arrow1Mstart"
       inkscape:isstock="true">
      <path
         transform="matrix(0.4,0,0,0.4,4,0)"
         style="fill:#000000;fill-opacity:0.968907;fill-rule:evenodd;stroke:#000000;stroke-width:1pt;stroke-opacity:0.968907"
         d="M 0,0 5,-5 -12.5,0 5,5 Z"
         id="path1219" />
    </marker>
    <marker
       style="overflow:visible"
       id="marker1199"
       refX="0"
       refY="0"
       orient="auto"
       inkscape:stockid="Arrow1Mstart"
       inkscape:isstock="true">
      <path
         transform="matrix(0.4,0,0,0.4,4,0)"
         style="fill:#000000;fill-opacity:0.968907;fill-rule:evenodd;stroke:#000000;stroke-width:1pt;stroke-opacity:0.968907"
         d="M 0,0 5,-5 -12.5,0 5,5 Z"
         id="path1197" />
    </marker>
  </defs>
  <sodipodi:namedview
     id="base"
     pagecolor="#ffffff"
     bordercolor="#000000"
     borderopacity="1"
     inkscape:pageopacity="0.0"
     inkscape:pageshadow="2"
     inkscape:zoom="2.4217678"
     inkscape:cx="373.87717"
     inkscape:cy="356.10882"
     inkscape:document-units="mm"
     inkscape:current-layer="layer1"
     inkscape:document-rotation="0"
     showgrid="true"
     units="mm"
     showguides="true"
     inkscape:pagecheckerboard="false"
     showborder="true"
     inkscape:showpageshadow="true"
     borderlayer="true"
     inkscape:window-width="1536"
     inkscape:window-height="834"
     inkscape:window-x="0"
     inkscape:window-y="0"
     inkscape:window-maximized="1"
     inkscape:snap-grids="true"
     fit-margin-top="0.25"
     fit-margin-left="0.25"
     fit-margin-bottom="0.25"
     fit-margin-right="0.25"
     inkscape:snap-global="false">
    <inkscape:grid
       type="xygrid"
       id="grid10"
       dotted="false"
       units="in"
       spacingx="25.4"
       spacingy="16.933164"
       empspacing="3"
       visible="true"
       snapvisiblegridlinesonly="true"
       empcolor="#3f3fff"
       empopacity="0.41568627"
       originx="6.3415353"
       originy="6.439568" />
  </sodipodi:namedview>
  <metadata
     id="metadata5">
    <rdf:RDF>
      <cc:Work
         rdf:about="">
        <dc:format>image/svg+xml</dc:format>
        <dc:type
           rdf:resource="http://purl.org/dc/dcmitype/StillImage" />
        <dc:title />
      </cc:Work>
    </rdf:RDF>
  </metadata>
  <g
     inkscape:label="Layer 1"
     inkscape:groupmode="layer"
     id="layer1"
     transform="translate(6.3415336,6.4395706)">
    <path
       style="font-variation-settings:normal;opacity:1;vector-effect:none;fill:none;fill-opacity:1;stroke:#124aba;stroke-width:0.9;stroke-linecap:square;stroke-linejoin:miter;stroke-miterlimit:3;stroke-dasharray:none;stroke-dashoffset:0;stroke-opacity:1;stop-color:#000000;stop-opacity:1;paint-order:normal"
       d="m 127,39.892158 c -6.31062,1.9e-4 -12.70457,-8.467597 -16.93444,-8.466581 4.22987,-0.001 10.62255,-8.466583 16.93317,-8.466582 6.31062,10e-7 12.69568,8.466582 16.93316,8.466582 -4.23748,0 -10.62127,8.466391 -16.93189,8.466581 z"
       id="path18"
       sodipodi:nodetypes="zczcz" />
    <path
       style="font-variation-settings:normal;opacity:1;vector-effect:none;fill:none;fill-opacity:1;stroke:#000000;stroke-width:0.9;stroke-linecap:square;stroke-linejoin:miter;stroke-miterlimit:3;stroke-dasharray:none;stroke-dashoffset:0;stroke-opacity:1;stop-color:#000000;stop-opacity:1;paint-order:normal"
       d="m 80.430116,14.492413 c 6.344921,-5.08e-4 8.466328,-6.3502528 25.398984,-12.6999969 16.93266,-6.3497459 33.86531,8.4663249 38.09848,8.4663249 -4.23317,0 -8.46633,4.233164 -10.58291,4.233164 2.11658,0 4.23316,6.349746 8.46632,6.349746 -8.46633,0 -12.6944,-6.349746 -19.04923,-6.349238 4.23316,0 6.34974,-4.233672 10.58291,-4.233672 -4.23317,0 -8.46633,-4.2331616 -14.81608,-4.2331616 -6.34974,0 -12.69949,14.8160716 -21.165818,14.8160716 -8.466328,0 -10.587735,-6.349746 -16.932656,-6.349238 z"
       id="path20"
       sodipodi:nodetypes="czccccczzc" />
    <path
       style="font-variation-settings:normal;opacity:1;vector-effect:none;fill:none;fill-opacity:1;stroke:#124aba;stroke-width:0.9;stroke-linecap:square;stroke-linejoin:miter;stroke-miterlimit:3;stroke-dasharray:none;stroke-dashoffset:0;stroke-opacity:1;stop-color:#000000;stop-opacity:1;paint-order:normal"
       d="m 207.43384,39.892158 c -6.31062,1.9e-4 -12.70457,-8.467597 -16.93444,-8.466581 4.22987,-0.001 10.62255,-8.466583 16.93317,-8.466582 6.31062,10e-7 12.69568,8.466582 16.93316,8.466582 -4.23748,0 -10.62127,8.466391 -16.93189,8.466581 z"
       id="path883"
       sodipodi:nodetypes="zczcz" />
    <path
       style="font-variation-settings:normal;opacity:1;vector-effect:none;fill:none;fill-opacity:1;stroke:#000000;stroke-width:0.9;stroke-linecap:square;stroke-linejoin:miter;stroke-miterlimit:3;stroke-dasharray:none;stroke-dashoffset:0;stroke-opacity:1;paint-order:normal;stop-color:#000000;stop-opacity:1"
       d="m 211.16587,26.107164 c -0.80496,1.095244 -1.77486,1.2574 -2.55711,1.2574 2.11658,0 5.16622,4.059997 7.2828,4.059997 -8.4582,10e-4 -8.4582,-4.233164 -12.69949,-4.233164 2.07406,0 2.89405,-0.61944 4.4498,-2.692663 m 1.90896,-2.867322 c 1.18867,-1.45379 2.06504,-2.906343 4.22415,-2.906343 -4.23317,0 -4.23317,-6.349746 -16.93266,-6.349746 -12.69949,0 -10.5829,6.349746 -19.04924,6.349746 -8.46638,0 -8.47111,-4.233164 -14.81607,-4.232656 6.34496,-5.08e-4 12.69949,-10.5834149 29.63215,-10.5834149 16.93265,0 23.28239,14.8160709 27.51556,14.8160709 -2.66867,0 -5.19119,1.954258 -6.85136,4.232229"
       id="path885"
       sodipodi:nodetypes="ccccccczzczcc" />
    <path
       style="font-variation-settings:normal;opacity:1;vector-effect:none;fill:none;fill-opacity:1;stroke:#000000;stroke-width:0.9;stroke-linecap:square;stroke-linejoin:miter;stroke-miterlimit:3;stroke-dasharray:none;stroke-dashoffset:0;stroke-opacity:1;stop-color:#000000;stop-opacity:1;paint-order:normal"
       d="M 0.00849046,17.986322 C 6.3534111,17.985814 8.4748169,11.636068 25.407472,5.2863237 c 16.93266,-6.3497459 33.86531,8.4663263 38.09848,8.4663263 -4.23317,0 -8.46633,4.233164 -10.58291,4.233164 2.11658,0 4.23316,6.349746 8.46632,6.349746 -8.46633,0 -12.6944,-6.349746 -19.04923,-6.349238 4.23316,0 6.34974,-4.233672 10.58291,-4.233672 -4.23317,0 -8.46633,-4.2331637 -14.81608,-4.2331637 -6.34974,0 -12.69949,14.8160737 -21.165818,14.8160737 -8.4663271,0 -10.5877329,-6.349746 -16.93265354,-6.349238 z"
       id="path887"
       sodipodi:nodetypes="czccccczzc" />
    <path
       style="font-variation-settings:normal;opacity:1;vector-effect:none;fill:none;fill-opacity:1;stroke:#124aba;stroke-width:0.9;stroke-linecap:square;stroke-linejoin:miter;stroke-miterlimit:3;stroke-dasharray:none;stroke-dashoffset:0;stroke-opacity:1;paint-order:normal;stop-color:#000000;stop-opacity:1"
       d="m 42.911319,81.391006 c 0.217632,-0.24189 1.748226,-0.580184 3.140814,-0.49002 6.288774,0.407167 13.215795,9.052464 17.453275,9.052464 -4.23748,0 -10.62127,8.46639 -16.93189,8.46658 -6.31062,1.9e-4 -12.70457,-8.46759 -16.93444,-8.46658 2.619596,-6.19e-4 6.247664,-1.98305 8.984298,-4.68451 m 1.821575,-1.707516 0.56311,-0.502624"
       id="path889"
       sodipodi:nodetypes="csczcccc" />
    <path
       style="font-variation-settings:normal;opacity:1;vector-effect:none;fill:none;fill-opacity:1;stroke:#000000;stroke-width:0.9;stroke-linecap:square;stroke-linejoin:miter;stroke-miterlimit:3;stroke-dasharray:none;stroke-dashoffset:0;stroke-opacity:1;paint-order:normal;stop-color:#000000;stop-opacity:1"
       d="m 32.555349,76.017802 -0.271791,0.302356 m -2.078834,1.894405 C 28.910029,79.30771 22.288085,81.980708 18.603574,81.956054 10.700123,81.90317 8.4613709,75.138368 2.1164124,75.138876 8.4613709,75.138368 14.816178,62.43687 31.748838,62.43687 c 16.93265,0 27.530356,15.327691 31.763526,15.327691 -2.683784,0 -6.137089,2.275006 -8.252116,5.656628 M 53.300507,85.7694 c -0.909192,1.271875 -3.637114,2.068968 -6.735875,2.068968 -6.348222,0 -17.002413,-14.782046 -22.723195,-14.782046 -5.720782,0 -6.908953,2.082554 -9.025535,2.082554 2.11658,0 4.23317,4.23317 6.34975,4.23317 -8.4582,0.001 -8.4582,-4.23317 -12.6994891,-4.23317 2.1165751,0 7.3930991,-4.867345 15.4552531,-4.666146 8.062153,0.2012 16.585054,12.484033 22.000257,14.236797 1.703903,0.55151 4.739754,0.189141 5.29603,-0.502815 m 1.449906,-2.24309 c 1.464142,-2.317659 3.695534,-4.330267 5.148099,-4.330267 -2.116582,0 -7.433791,-5.910055 -15.812526,-5.921192 -2.730155,0 -6.478488,1.722766 -7.259774,2.468541"
       id="path891"
       sodipodi:nodetypes="cccsczcccczccczsccccc" />
    <path
       style="font-variation-settings:normal;opacity:1;vector-effect:none;fill:none;fill-opacity:1;stroke:#000000;stroke-width:0.9;stroke-linecap:square;stroke-linejoin:miter;stroke-miterlimit:3;stroke-dasharray:none;stroke-dashoffset:0;stroke-opacity:1;paint-order:normal;stop-color:#000000;stop-opacity:1"
       d="m 202.48511,80.962387 c 0.21763,-0.24189 2.97342,-1.262292 6.813,0.62396 3.92022,1.925864 9.89274,8.367103 14.13022,8.367103 -4.23748,0 -10.62127,8.46639 -16.93189,8.46658 -6.31062,1.9e-4 -15.69401,-6.166891 -23.99592,-6.931958 -8.30192,-0.765066 -15.65677,-7.357408 -19.65283,-7.132598 2.63028,-0.102585 3.93263,-1.651247 6.29631,-4.568484 m 30.68675,3.101043 0.56311,-0.502624"
       id="path94"
       sodipodi:nodetypes="csczzcccc" />
    <path
       style="font-variation-settings:normal;opacity:1;vector-effect:none;fill:none;fill-opacity:1;stroke:#000000;stroke-width:0.9;stroke-linecap:square;stroke-linejoin:miter;stroke-miterlimit:3;stroke-dasharray:none;stroke-dashoffset:0;stroke-opacity:1;paint-order:normal;stop-color:#000000;stop-opacity:1"
       d="m 192.47827,76.017802 -0.27179,0.302356 m -2.07884,1.894405 c -1.29469,1.093147 -7.91663,3.766145 -11.60115,3.741491 -7.90345,-0.05288 -10.1422,-6.817686 -16.48716,-6.817178 6.34496,-5.08e-4 12.69977,-12.702006 29.63243,-12.702006 16.93265,0 27.53035,15.327691 31.76352,15.327691 -2.68378,0 -6.06745,2.641198 -8.44513,5.676851 m -1.78349,2.499756 c -0.90919,1.271875 -3.62035,1.8972 -6.71911,1.8972 -6.34822,0 -15.61647,-13.948251 -22.77779,-13.579841 -7.16132,0.36841 -9.09343,3.19017 -10.32228,4.816076 m -1.74931,2.479335 c -0.60181,0.795463 -1.32483,2.388996 -3.07237,2.399849 3.29153,0.574427 9.31669,4.723025 15.81104,4.73902 6.49434,0.016 10.63712,-1.217168 13.37376,-3.918628 m -26.72262,-7.08103 c 2.82605,-3.44496 6.44207,-5.890097 11.11915,-6.348243 10.82697,-1.060563 18.28226,11.611857 23.69746,13.364621 1.70391,0.551513 4.55788,0.321359 5.11415,-0.370597 m 1.63179,-2.375308 c 1.46414,-2.317659 3.69553,-4.330267 5.1481,-4.330267 -2.11658,0 -7.43379,-5.910055 -15.81253,-5.921192 -2.73015,0 -6.47849,1.722766 -7.25977,2.468541"
       id="path96"
       sodipodi:nodetypes="cccsczcccczccczccssccccc" />
    <path
       style="font-variation-settings:normal;opacity:1;vector-effect:none;fill:none;fill-opacity:1;stroke:#124aba;stroke-width:0.9;stroke-linecap:square;stroke-linejoin:miter;stroke-miterlimit:3;stroke-dasharray:none;stroke-dashoffset:0;stroke-opacity:1;paint-order:normal;stop-color:#000000;stop-opacity:1"
       d="m 123.02712,81.288964 c 0.21763,-0.24189 1.54535,-0.478142 2.93793,-0.387978 6.28878,0.407167 13.2158,9.052464 17.45328,9.052464 -4.23748,0 -10.62127,8.46639 -16.93189,8.46658 -6.31062,1.9e-4 -12.70457,-8.46759 -16.93444,-8.46658 2.61959,-6.19e-4 6.24766,-1.98305 8.9843,-4.68451 m 2.00962,-1.81477 0.37506,-0.39537"
       id="path98"
       sodipodi:nodetypes="csczcccc" />
    <path
       style="font-variation-settings:normal;opacity:1;vector-effect:none;fill:none;fill-opacity:1;stroke:#000000;stroke-width:0.9;stroke-linecap:square;stroke-linejoin:miter;stroke-miterlimit:3;stroke-dasharray:none;stroke-dashoffset:0;stroke-opacity:1;paint-order:normal;stop-color:#000000;stop-opacity:1"
       d="m 112.46827,76.017802 -0.27179,0.302356 m -2.07884,1.894405 c -0.98195,1.303445 -6.5089,3.387648 -10.193412,3.362994 -7.903447,-0.05288 -11.549934,-6.439189 -17.894893,-6.438681 6.344959,-5.08e-4 12.699766,-12.702006 29.632425,-12.702006 16.93265,0 27.53035,15.327691 31.76352,15.327691 -2.68378,0 -5.85261,2.6102 -8.25211,5.656628 m -1.84126,2.466491 c -0.90919,1.271875 -3.7556,1.950688 -6.85436,1.950688 -6.34822,0 -15.31519,-15.211726 -24.57355,-13.473682 -2.752914,0.516796 -5.778231,3.067854 -6.757676,4.815389 m -1.63937,2.440872 c -2.229288,3.056689 -3.640134,4.630429 -5.128129,4.630429 2.11658,0 4.233168,4.23317 6.349745,4.23317 -8.458195,0.001 -8.458195,-4.23317 -12.699484,-4.23317 1.313867,0 5.746693,-0.597179 9.005393,-5.715776 m 1.787852,-2.705514 c 1.823455,-3.787291 7.123064,-6.641257 10.813649,-6.540679 9.94385,0.270994 16.78341,11.667356 22.19861,13.42012 1.70391,0.55151 4.56916,0.370571 5.12543,-0.321385 m 1.62051,-2.42452 c 1.46414,-2.317659 3.69553,-4.330267 5.1481,-4.330267 -2.11658,0 -7.43379,-5.910055 -15.81253,-5.921192 -2.73015,0 -6.47849,1.722766 -7.25977,2.468541"
       id="path100"
       sodipodi:nodetypes="cccsczccccscccccccssccccc" />
  </g>
  <g
     inkscape:groupmode="layer"
     id="layer2"
     inkscape:label="Arrows"
     transform="translate(6.3415336,6.4395706)">
    <path
       style="font-variation-settings:normal;opacity:1;vector-effect:none;fill:none;fill-opacity:1;stroke:#808080;stroke-width:0.6;stroke-linecap:square;stroke-linejoin:miter;stroke-miterlimit:4.33333;stroke-dasharray:none;stroke-dashoffset:0;stroke-opacity:1;marker-end:url(#marker5412);stop-color:#000000;stop-opacity:1"
       d="M 66.672289,20.107314 H 83.604945"
       id="path905" />
    <path
       style="font-variation-settings:normal;opacity:1;vector-effect:none;fill:none;fill-opacity:1;stroke:#808080;stroke-width:0.6;stroke-linecap:square;stroke-linejoin:miter;stroke-miterlimit:4.33333;stroke-dasharray:none;stroke-dashoffset:0;stroke-opacity:1;marker-end:url(#marker5222);stop-color:#000000;stop-opacity:1"
       d="m 144.98591,20.107314 h 16.93266"
       id="path907" />
    <path
       style="font-variation-settings:normal;opacity:1;vector-effect:none;fill:none;fill-opacity:1;stroke:#808080;stroke-width:0.6;stroke-linecap:square;stroke-linejoin:miter;stroke-miterlimit:4.33333;stroke-dasharray:none;stroke-dashoffset:0;stroke-opacity:1;marker-end:url(#marker5038);stop-color:#000000;stop-opacity:1"
       d="M 66.672289,81.488621 H 83.604945"
       id="path909" />
    <path
       style="font-variation-settings:normal;opacity:1;vector-effect:none;fill:none;fill-opacity:1;stroke:#808080;stroke-width:0.6;stroke-linecap:square;stroke-linejoin:miter;stroke-miterlimit:4.33333;stroke-dasharray:none;stroke-dashoffset:0;stroke-opacity:1;marker-end:url(#marker5624);stop-color:#000000;stop-opacity:1"
       d="m 144.98591,81.488621 h 16.93266"
       id="path911" />
    <path
       style="font-variation-settings:normal;opacity:1;vector-effect:none;fill:none;fill-opacity:1;stroke:#808080;stroke-width:0.6;stroke-linecap:square;stroke-linejoin:miter;stroke-miterlimit:4.33333;stroke-dasharray:none;stroke-dashoffset:0;stroke-opacity:1;marker-end:url(#marker1128);stop-color:#000000;stop-opacity:1"
       d="m 114.29543,50.79799 c -38.098475,-7.62e-4 -60.318951,0.0537 -63.495428,0.0015 -12.742771,-0.209339 -12.64364,-0.0025 -12.701526,7.935809"
       id="path93"
       sodipodi:nodetypes="ccc" />
    <path
       style="font-variation-settings:normal;opacity:1;vector-effect:none;fill:none;fill-opacity:1;stroke:#808080;stroke-width:0.6;stroke-linecap:square;stroke-linejoin:miter;stroke-miterlimit:4.33333;stroke-dasharray:none;stroke-dashoffset:0;stroke-opacity:1;marker-end:url(#marker5614);stop-color:#000000;stop-opacity:1"
       d="m 190.88571,42.197144 c -0.11429,8.593653 0.10993,8.456781 -9.71489,8.602346 -9.82482,0.145564 -28.77692,-7.6e-4 -66.87539,-0.0015"
       id="path913"
       sodipodi:nodetypes="csc" />
  </g>
</svg>
