<?xml version="1.0" encoding="UTF-8" standalone="no"?>
<svg
   xmlns:dc="http://purl.org/dc/elements/1.1/"
   xmlns:cc="http://creativecommons.org/ns#"
   xmlns:rdf="http://www.w3.org/1999/02/22-rdf-syntax-ns#"
   xmlns:svg="http://www.w3.org/2000/svg"
   xmlns="http://www.w3.org/2000/svg"
   xmlns:sodipodi="http://sodipodi.sourceforge.net/DTD/sodipodi-0.dtd"
   xmlns:inkscape="http://www.inkscape.org/namespaces/inkscape"
   width="9in"
   height="9in"
   viewBox="0 0 228.60001 228.60001"
   version="1.1"
   id="svg8"
   inkscape:version="1.0.2 (e86c870879, 2021-01-15)"
   sodipodi:docname="isotopy_-1.svg">
  <defs
     id="defs2">
    <marker
       style="overflow:visible"
       id="marker3012"
       refX="0"
       refY="0"
       orient="auto"
       inkscape:stockid="Arrow1Send"
       inkscape:isstock="true">
      <path
         transform="matrix(-0.2,0,0,-0.2,-1.2,0)"
         style="fill:#000000;fill-opacity:1;fill-rule:evenodd;stroke:#000000;stroke-width:1pt;stroke-opacity:1"
         d="M 0,0 5,-5 -12.5,0 5,5 Z"
         id="path3010" />
    </marker>
    <marker
       style="overflow:visible"
       id="marker2910"
       refX="0"
       refY="0"
       orient="auto"
       inkscape:stockid="Arrow1Send"
       inkscape:isstock="true"
       inkscape:collect="always">
      <path
         transform="matrix(-0.2,0,0,-0.2,-1.2,0)"
         style="fill:#000000;fill-opacity:1;fill-rule:evenodd;stroke:#000000;stroke-width:1pt;stroke-opacity:1"
         d="M 0,0 5,-5 -12.5,0 5,5 Z"
         id="path2908" />
    </marker>
    <marker
       style="overflow:visible"
       id="marker2748"
       refX="0"
       refY="0"
       orient="auto"
       inkscape:stockid="Arrow1Send"
       inkscape:isstock="true">
      <path
         transform="matrix(-0.2,0,0,-0.2,-1.2,0)"
         style="fill:#000000;fill-opacity:1;fill-rule:evenodd;stroke:#000000;stroke-width:1pt;stroke-opacity:1"
         d="M 0,0 5,-5 -12.5,0 5,5 Z"
         id="path2746" />
    </marker>
    <marker
       style="overflow:visible"
       id="marker2738"
       refX="0"
       refY="0"
       orient="auto"
       inkscape:stockid="Arrow1Send"
       inkscape:isstock="true">
      <path
         transform="matrix(-0.2,0,0,-0.2,-1.2,0)"
         style="fill:#000000;fill-opacity:1;fill-rule:evenodd;stroke:#000000;stroke-width:1pt;stroke-opacity:1"
         d="M 0,0 5,-5 -12.5,0 5,5 Z"
         id="path2736" />
    </marker>
    <marker
       style="overflow:visible"
       id="marker2728"
       refX="0"
       refY="0"
       orient="auto"
       inkscape:stockid="Arrow1Send"
       inkscape:isstock="true"
       inkscape:collect="always">
      <path
         transform="matrix(-0.2,0,0,-0.2,-1.2,0)"
         style="fill:#000000;fill-opacity:1;fill-rule:evenodd;stroke:#000000;stroke-width:1pt;stroke-opacity:1"
         d="M 0,0 5,-5 -12.5,0 5,5 Z"
         id="path2726" />
    </marker>
    <marker
       style="overflow:visible"
       id="marker2544"
       refX="0"
       refY="0"
       orient="auto"
       inkscape:stockid="Arrow1Send"
       inkscape:isstock="true"
       inkscape:collect="always">
      <path
         transform="matrix(-0.2,0,0,-0.2,-1.2,0)"
         style="fill:#000000;fill-opacity:1;fill-rule:evenodd;stroke:#000000;stroke-width:1pt;stroke-opacity:1"
         d="M 0,0 5,-5 -12.5,0 5,5 Z"
         id="path2542" />
    </marker>
    <marker
       style="overflow:visible"
       id="marker2406"
       refX="0"
       refY="0"
       orient="auto"
       inkscape:stockid="Arrow1Send"
       inkscape:isstock="true"
       inkscape:collect="always">
      <path
         transform="matrix(-0.2,0,0,-0.2,-1.2,0)"
         style="fill:#000000;fill-opacity:1;fill-rule:evenodd;stroke:#000000;stroke-width:1pt;stroke-opacity:1"
         d="M 0,0 5,-5 -12.5,0 5,5 Z"
         id="path2404" />
    </marker>
    <marker
       style="overflow:visible"
       id="marker2356"
       refX="0"
       refY="0"
       orient="auto"
       inkscape:stockid="Arrow1Send"
       inkscape:isstock="true"
       inkscape:collect="always">
      <path
         transform="matrix(-0.2,0,0,-0.2,-1.2,0)"
         style="fill:#000000;fill-opacity:1;fill-rule:evenodd;stroke:#000000;stroke-width:1pt;stroke-opacity:1"
         d="M 0,0 5,-5 -12.5,0 5,5 Z"
         id="path2354" />
    </marker>
    <marker
       style="overflow:visible"
       id="marker2284"
       refX="0"
       refY="0"
       orient="auto"
       inkscape:stockid="Arrow1Mend"
       inkscape:isstock="true">
      <path
         transform="matrix(-0.4,0,0,-0.4,-4,0)"
         style="fill:#000000;fill-opacity:1;fill-rule:evenodd;stroke:#000000;stroke-width:1pt;stroke-opacity:1"
         d="M 0,0 5,-5 -12.5,0 5,5 Z"
         id="path2282" />
    </marker>
    <marker
       style="overflow:visible"
       id="marker2274"
       refX="0"
       refY="0"
       orient="auto"
       inkscape:stockid="Arrow1Mend"
       inkscape:isstock="true">
      <path
         transform="matrix(-0.4,0,0,-0.4,-4,0)"
         style="fill:#000000;fill-opacity:1;fill-rule:evenodd;stroke:#000000;stroke-width:1pt;stroke-opacity:1"
         d="M 0,0 5,-5 -12.5,0 5,5 Z"
         id="path2272" />
    </marker>
    <marker
       style="overflow:visible"
       id="marker2252"
       refX="0"
       refY="0"
       orient="auto"
       inkscape:stockid="Arrow1Mend"
       inkscape:isstock="true">
      <path
         transform="matrix(-0.4,0,0,-0.4,-4,0)"
         style="fill:#000000;fill-opacity:1;fill-rule:evenodd;stroke:#000000;stroke-width:1pt;stroke-opacity:1"
         d="M 0,0 5,-5 -12.5,0 5,5 Z"
         id="path2250" />
    </marker>
  </defs>
  <sodipodi:namedview
     id="base"
     pagecolor="#ffffff"
     bordercolor="#666666"
     borderopacity="1.0"
     inkscape:pageopacity="0.0"
     inkscape:pageshadow="2"
     inkscape:zoom="0.58590893"
     inkscape:cx="1006.9217"
     inkscape:cy="538.1706"
     inkscape:document-units="in"
     inkscape:current-layer="layer1"
     inkscape:document-rotation="0"
     showgrid="true"
     units="in"
     inkscape:window-width="1536"
     inkscape:window-height="834"
     inkscape:window-x="0"
     inkscape:window-y="0"
     inkscape:window-maximized="1"
     inkscape:snap-grids="false"
     inkscape:object-nodes="false">
    <inkscape:grid
       type="xygrid"
       id="grid10"
       spacingx="25.400001"
       units="in"
       spacingy="25.400001"
       empspacing="3"
       empcolor="#1414ff"
       empopacity="0.48627451"
       color="#3f3fff"
       opacity="0.10588235" />
  </sodipodi:namedview>
  <metadata
     id="metadata5">
    <rdf:RDF>
      <cc:Work
         rdf:about="">
        <dc:format>image/svg+xml</dc:format>
        <dc:type
           rdf:resource="http://purl.org/dc/dcmitype/StillImage" />
        <dc:title></dc:title>
      </cc:Work>
    </rdf:RDF>
  </metadata>
  <g
     inkscape:label="Layer 1"
     inkscape:groupmode="layer"
     id="layer1">
    <g
       stroke-linecap="square"
       id="g463"
       style="fill:none;stroke:#000000"
       transform="matrix(0.48172442,0,0,0.48172442,-3.8750125,-6.8701225)">
      <path
         d="M 36,86 26,76 51,51 h 25 l 25,25 -10,10"
         id="path443" />
      <path
         d="m 41,66 10,10 -25,25 10,10"
         id="path445" />
      <path
         d="m 41,117 10,10 h 25 l 10,-10"
         id="path449" />
      <path
         d="m 86,91 -10,10 25,25 26.55294,-0.0881 1.01331,-24.87723 6.88666,-6.236903"
         id="path451"
         sodipodi:nodetypes="cccccc" />
      <path
         d="M 91,112 101,102 76,77 86,67"
         id="path453" />
      <path
         d="m 91,61 10,-10 28.60292,-0.08141 0.10967,26.680711 22.85256,28.785129 0.4351,32.61557 h -127 L 26,126 51,101 41,91"
         id="path455"
         sodipodi:nodetypes="cccccccccc" />
      <path
         d="M 36,61 26,51 26.00025,38 h 127 l 0.47972,38.809722 -9.3522,10.343517"
         id="path457"
         sodipodi:nodetypes="cccccc" />
    </g>
    <g
       id="g611">
      <g
         stroke-linecap="square"
         id="g553"
         style="fill:none;stroke:#000000"
         transform="matrix(0.43960953,0,0,0.43960953,70.852175,-0.99509542)">
        <path
           d="m 67.147073,49.831354 5.103491,-15.871121 c 8.32849,-4.544611 18.260615,-5.015132 25.147407,-5.209057 0,0 15.256929,-1.776365 20.220819,5.593521 4.96388,7.369886 -2.25873,26.051422 -2.25873,26.051422 L 94.304485,75.77533"
           id="path533"
           sodipodi:nodetypes="ccczcc" />
        <path
           d="m 51.951093,115.50932 10.908152,0.33387"
           id="path539"
           sodipodi:nodetypes="cc" />
        <path
           d="M 87.242614,77.328204 74.687043,82.683662 64.98702,105.43974 67.743976,126.29701 126,126 138.43918,100.38011"
           id="path541"
           sodipodi:nodetypes="cccccc" />
        <path
           d="M 69.273035,115.53215 89.536701,110.18949 90.173049,85.835377 89.225354,64.292419 101,51 113.52091,50.889253 m 8.43847,0.508043 L 126,51 l 13.49912,37.5 10.57711,35.41362 -11.22142,14.07959 -89.3624,-3.04378 -1.665541,-27.10273 4.461826,-12.985039 8.408046,-25.712164"
           id="path543"
           sodipodi:nodetypes="ccccccccccccccc" />
        <path
           d="m 144.35952,91.604237 6.72667,-41.580145 -10.18554,-6.741617 -15.42759,0.262491 M 114.06595,43.075818 98.808234,42.341947 C 65.585168,52.653307 68.583855,52.68686 51,76 l -18.0819,20.88402 0.699528,14.91202 10.838796,2.93658"
           id="path547"
           sodipodi:nodetypes="cccccccccc" />
      </g>
    </g>
    <g
       id="g295"
       transform="translate(-231.40353,78.371644)">
      <g
         stroke-linecap="square"
         id="g665"
         style="fill:none;stroke:#000000"
         transform="matrix(0.43960953,0,0,0.43960953,224.68775,-0.47492517)">
        <path
           d="m 141.70059,65.374377 13.51944,-7.774635 c 3.96333,-5.264103 -2.27741,-16.006923 -6.26115,-18.611328 0,0 -9.8895,-10.205743 -22.83109,-5.161605 -12.9416,5.044137 -5.15585,19.375617 -10.76773,26.56931 -5.61188,7.193693 -21.055575,15.379211 -21.055575,15.379211"
           id="path649"
           sodipodi:nodetypes="ccczzc" />
        <path
           d="m 51.951093,115.50932 8.295173,0.24162"
           id="path653"
           sodipodi:nodetypes="cc" />
        <path
           d="m 87.242614,77.328204 -12.555571,5.355458 -24.937482,19.961268 -1.002836,34.13812 86.607235,2.39479 3.02328,-11.92116 0.77294,-27.267037 -13.95655,-13.488499 4.79195,-4.841121"
           id="path655"
           sodipodi:nodetypes="ccccccccc" />
        <path
           d="m 66.751646,115.45782 c 0,0 13.7165,-0.91522 18.750434,-7.0789 5.033934,-6.16368 4.670969,-22.543543 4.670969,-22.543543 0,0 0.107966,-14.328252 2.296461,-20.505598 2.188495,-6.177346 4.777439,-10.276275 9.37007,-12.367887 4.59263,-2.091613 11.68133,-2.072639 11.68133,-2.072639 m 8.43847,0.508043 3.17179,0.160293 0.36826,21.685445 12.21008,11.643277 -3.92228,4.323579"
           id="path657"
           sodipodi:nodetypes="czczzcccccc" />
        <path
           d="m 134.5067,77.68254 3.75633,-4.291233 2.63762,-30.108832 -17.93811,0.0199 M 114.06595,43.075818 98.808234,42.341947 C 65.585168,52.653307 68.583855,52.68686 51,76 l -18.0819,20.88402 0.699528,14.91202 10.838796,2.93658"
           id="path659"
           sodipodi:nodetypes="cccccccccc" />
      </g>
      <path
         style="font-variation-settings:normal;vector-effect:none;fill:none;fill-opacity:1;stroke:#000000;stroke-width:0.499999;stroke-linecap:square;stroke-linejoin:miter;stroke-miterlimit:4.33333;stroke-dasharray:none;stroke-dashoffset:0;stroke-opacity:1;stop-color:#000000"
         d="m 281.158,30.636122 3.44951,-1.293234"
         id="path673"
         sodipodi:nodetypes="cc" />
      <path
         style="font-variation-settings:normal;vector-effect:none;fill:none;fill-opacity:1;stroke:#000000;stroke-width:0.499999;stroke-linecap:square;stroke-linejoin:miter;stroke-miterlimit:4.33333;stroke-dasharray:none;stroke-dashoffset:0;stroke-opacity:1;stop-color:#000000"
         d="m 277.9476,31.940786 -12.42789,5.322677"
         id="path675"
         sodipodi:nodetypes="cc" />
      <path
         style="font-variation-settings:normal;vector-effect:none;fill:none;fill-opacity:1;stroke:#000000;stroke-width:0.499999;stroke-linecap:square;stroke-linejoin:miter;stroke-miterlimit:4.33333;stroke-dasharray:none;stroke-dashoffset:0;stroke-opacity:1;stop-color:#000000"
         d="m 262.58906,38.254549 -7.3655,2.891635 c -0.92075,2.122742 -2.17105,4.053039 -2.39059,6.317976 l -0.17142,9.003539 27.03721,0.618684 -0.0371,-10.288182 0.35999,-3.684279 1.62429,-1.614195"
         id="path677"
         sodipodi:nodetypes="cccccccc" />
    </g>
    <g
       id="g261">
      <g
         stroke-linecap="square"
         id="g579"
         style="fill:none;stroke:#000000"
         transform="matrix(0.43960953,0,0,0.43960953,147.42937,-0.47492517)">
        <path
           d="m 141.70059,65.374377 13.51944,-7.774635 c 3.96333,-5.264103 -2.27741,-16.006923 -6.26115,-18.611328 0,0 -9.8895,-10.205743 -22.83109,-5.161605 -12.9416,5.044137 -5.15585,19.375617 -10.76773,26.56931 -5.61188,7.193693 -21.055575,15.379211 -21.055575,15.379211"
           id="path563"
           sodipodi:nodetypes="ccczzc" />
        <path
           d="m 51.951093,115.50932 10.908152,0.33387"
           id="path567"
           sodipodi:nodetypes="cc" />
        <path
           d="m 87.242614,77.328204 -12.555571,5.355458 -9.700023,22.756078 2.756956,20.85727 60.317994,-1.44848 -1.33667,-26.781436 4.15105,-5.862151"
           id="path569"
           sodipodi:nodetypes="ccccccc" />
        <path
           d="M 69.273035,115.53215 89.536701,110.18949 90.173049,85.835377 89.225354,64.292419 101,51 113.52091,50.889253 m 8.43847,0.508043 3.17179,0.160293 0.36826,21.685445 13.81646,22.211534 1.04465,34.701152 -4.17086,5.51637 -86.69727,-0.72266 -1.665541,-27.10273 3.717502,-4.07155 14.094482,-7.663724"
           id="path571"
           sodipodi:nodetypes="cccccccccccccccc" />
        <path
           d="m 135.39727,83.105409 3.63728,-5.677727 1.8661,-34.145207 -17.93811,0.0199 M 114.06595,43.075818 98.808234,42.341947 C 65.585168,52.653307 68.583855,52.68686 51,76 l -18.0819,20.88402 0.699528,14.91202 10.838796,2.93658"
           id="path573"
           sodipodi:nodetypes="cccccccccc" />
      </g>
      <path
         style="font-variation-settings:normal;vector-effect:none;fill:none;fill-opacity:1;stroke:#000000;stroke-width:0.499999;stroke-linecap:square;stroke-linejoin:miter;stroke-miterlimit:4.33333;stroke-dasharray:none;stroke-dashoffset:0;stroke-opacity:1;stop-color:#000000"
         d="m 203.89962,30.636122 3.44951,-1.293234"
         id="path626"
         sodipodi:nodetypes="cc" />
      <path
         style="font-variation-settings:normal;vector-effect:none;fill:none;fill-opacity:1;stroke:#000000;stroke-width:0.499999;stroke-linecap:square;stroke-linejoin:miter;stroke-miterlimit:4.33333;stroke-dasharray:none;stroke-dashoffset:0;stroke-opacity:1;stop-color:#000000"
         d="m 200.68922,31.940786 -12.42789,5.322677"
         id="path628"
         sodipodi:nodetypes="cc" />
      <path
         style="font-variation-settings:normal;vector-effect:none;fill:none;fill-opacity:1;stroke:#000000;stroke-width:0.499999;stroke-linecap:square;stroke-linejoin:miter;stroke-miterlimit:4.33333;stroke-dasharray:none;stroke-dashoffset:0;stroke-opacity:1;stop-color:#000000"
         d="m 179.64553,40.515795 5.68515,-2.261246"
         id="path630"
         sodipodi:nodetypes="cc" />
    </g>
    <g
       stroke-linecap="square"
       id="g824"
       style="fill:none;stroke:#000000"
       transform="matrix(0.43960953,0,0,0.43960953,75.607329,72.933506)">
      <path
         d="m 103.39487,140.87114 c 0,0 6.82331,19.62896 18.0076,21.68512 11.18429,2.05616 56.36316,-8.95626 27.79162,-28.5583 C 120.62255,114.39592 91.330463,98.97045 91.330463,98.97045"
         id="path812"
         sodipodi:nodetypes="czzc" />
      <path
         d="m 51.951093,115.50932 8.295173,0.24162"
         id="path814"
         sodipodi:nodetypes="cc" />
      <path
         d="m 85.214064,97.149538 -15.232791,-6.31963 -20.231712,11.815022 -1.002836,34.13812 c 30.418088,0.29467 5.786168,-0.44773 88.702575,1.02085 l -0.36863,-8.7604"
         id="path816"
         sodipodi:nodetypes="cccccc" />
      <path
         d="m 66.751646,115.45782 c 0,0 13.7165,-0.91522 18.750434,-7.0789 5.033934,-6.16368 4.986164,-34.263972 4.986164,-34.263972 0,0 -31.455684,-11.718359 -29.267189,-17.895705 2.188495,-6.177346 8.278711,-12.362182 12.871342,-14.453794 16.238176,0.220909 36.023953,2.706065 51.038773,9.79214 l -0.16563,11.340378 15.52701,19.173026 -6.32326,6.472114"
         id="path818"
         sodipodi:nodetypes="czczccccc" />
      <path
         d="m 134.89335,68.49113 2.65418,-3.159794 -1.08991,-11.940397 -2.94706,-8.416681 c 0,0 -42.372759,-14.090406 -58.659901,-13.379906 C 58.563516,32.304851 56.22099,47.786283 38.637135,71.099423 L 32.9181,96.88402 l 0.699528,14.91202 10.838796,2.93658"
         id="path820"
         sodipodi:nodetypes="cccczcccc" />
    </g>
    <path
       style="font-variation-settings:normal;vector-effect:none;fill:none;fill-opacity:1;stroke:#000000;stroke-width:0.499999;stroke-linecap:square;stroke-linejoin:miter;stroke-miterlimit:4.33333;stroke-dasharray:none;stroke-dashoffset:0;stroke-opacity:1;stop-color:#000000"
       d="m 120.26451,131.11828 0.29869,1.41476"
       id="path830"
       sodipodi:nodetypes="cc" />
    <path
       style="font-variation-settings:normal;vector-effect:none;fill:none;fill-opacity:1;stroke:#000000;stroke-width:0.499999;stroke-linecap:square;stroke-linejoin:miter;stroke-miterlimit:4.33333;stroke-dasharray:none;stroke-dashoffset:0;stroke-opacity:1;stop-color:#000000"
       d="m 120.11505,128.92167 c -0.73594,-4.18887 -1.69711,-5.98103 -4.91885,-8.60978"
       id="path832"
       sodipodi:nodetypes="cc" />
    <path
       style="font-variation-settings:normal;vector-effect:none;fill:none;fill-opacity:1;stroke:#000000;stroke-width:0.499999;stroke-linecap:square;stroke-linejoin:miter;stroke-miterlimit:4.33333;stroke-dasharray:none;stroke-dashoffset:0;stroke-opacity:1;stop-color:#000000"
       d="m 112.19206,118.96899 -4.00327,-1.47525 c -2.78326,-0.53079 -4.2167,1.11391 -4.43624,3.37885 l -0.17142,9.00354 26.54315,0.0824 0.11609,-3.5379 m -0.23679,-3.37103 -0.22638,-5.77058 2.10134,-1.94521"
       id="path834"
       sodipodi:nodetypes="ccccccccc" />
    <g
       stroke-linecap="square"
       id="g945"
       style="fill:none;stroke:#000000"
       transform="matrix(0.36541466,0.26519589,-0.26519589,0.36541466,19.996467,125.72178)">
      <path
         d="m 68.058002,94.479428 c -4.551607,-7.346925 -0.56236,-12.875115 9.957198,-10.186002 5.259778,1.344557 5.903239,12.986132 12.068085,15.049118 5.641448,1.887836 24.904265,-7.431046 31.601715,-11.219893 6.69745,-3.788847 7.81465,-1.030968 9.43301,0.388966"
         id="path937"
         sodipodi:nodetypes="csszc" />
      <path
         d="M 92.295385,82.917789 C 91.528374,53.238185 111.2084,36.669022 123.0909,36.396691 c 11.8825,-0.272332 38.63536,28.345381 43.6856,41.615977"
         id="path939"
         sodipodi:nodetypes="czc" />
      <path
         d="m 134.79807,91.432269 c 0,0 5.54091,3.649278 13.83158,6.603981 8.29068,2.9547 31.11163,3.02417 28.58032,-13.743332 m -2.6696,-6.414223 C 167.16436,59.239129 139.20162,26.392456 122.82526,27.535426 103.24974,28.901678 43.887112,50.155556 38.637135,71.099424 18.853431,116.56052 83.59983,129.28603 89.534368,101.43068"
         id="path941"
         sodipodi:nodetypes="ccccscc" />
      <path
         d="m 122.61234,90.889786 c 2.7577,6.000102 12.62509,-4.172143 15.7816,-3.940855 3.15651,0.231289 9.96296,1.678879 15.76148,2.548449 8.07983,1.1953 14.16522,1.185708 14.22002,-5.409311"
         id="path943"
         sodipodi:nodetypes="czcc" />
    </g>
    <path
       style="font-variation-settings:normal;vector-effect:none;fill:none;fill-opacity:1;stroke:#000000;stroke-width:0.513528;stroke-linecap:square;stroke-linejoin:miter;stroke-miterlimit:4.33333;stroke-dasharray:none;stroke-dashoffset:0;stroke-opacity:1;stop-color:#000000"
       d="m 14.083597,183.89482 c 0,0 2.96461,-2.82201 4.24577,-3.88951 1.28114,-1.06751 3.662724,-1.06996 7.049814,-0.26337"
       id="path951"
       sodipodi:nodetypes="czc" />
    <path
       style="font-variation-settings:normal;opacity:1;vector-effect:none;fill:none;fill-opacity:1;stroke:#000000;stroke-width:0.465463;stroke-linecap:square;stroke-linejoin:miter;stroke-miterlimit:4.33333;stroke-dasharray:none;stroke-dashoffset:0;stroke-opacity:1;stop-color:#000000;stop-opacity:1"
       d="m 19.486377,180.99509 c -0.47281,1.98336 -1.25681,5.34705 -1.68624,5.17088"
       id="path957"
       sodipodi:nodetypes="cc" />
    <path
       style="font-variation-settings:normal;opacity:1;vector-effect:none;fill:none;fill-opacity:1;stroke:#000000;stroke-width:0.465463;stroke-linecap:square;stroke-linejoin:miter;stroke-miterlimit:4.33333;stroke-dasharray:none;stroke-dashoffset:0;stroke-opacity:1;stop-color:#000000;stop-opacity:1"
       d="m 17.139697,189.39231 c -3.62828,8.9129 -0.63398,14.26235 8.404004,14.70978 7.28471,0.36063 16.72873,-0.0572 21.60606,-2.39568 m 2.31332,-0.97855 2.04809,-1.0619 m 1.95308,-1.13167 c 1.76146,-1.39501 4.02947,-0.15516 8.964,2.83144 6.70143,4.05601 -1.89723,16.34716 -9.45724,17.36392 -7.56002,1.01676 -36.273034,1.1617 -40.697134,-1.78973 -6.0514602,-4.46235 -10.7293102,-12.57417 -0.57745,-30.10041"
       id="path959"
       sodipodi:nodetypes="csccccsscc" />
    <g
       stroke-linecap="square"
       id="g973"
       style="fill:none;stroke:#000000"
       transform="matrix(0.42571188,0,0,0.42571188,151.11663,71.382523)">
      <path
         d="m 96.108421,119.99955 c 0,0 3.183429,1.0427 5.099899,0.94888 m 4.18018,-1.33978 c 18.33239,-9.02181 37.52098,9.25524 43.80559,14.38931 12.56923,10.26814 -13.90966,33.53754 -27.79162,28.5583 -13.88196,-4.97924 -46.766809,-31.7796 -50.738438,-44.7206"
         id="path963"
         sodipodi:nodetypes="cccszc" />
      <path
         d="m 80.052082,109.80994 c -0.88363,-4.51802 -5.627138,-6.30528 -5.442047,-15.491858 m -0.400882,-4.874708 c 0.231371,-7.139761 1.771215,-8.7155 6.752465,-7.262324 4.981251,1.453177 11.525283,50.11296 24.920952,55.09828 13.39566,4.98531 31.02413,-3.05162 31.1981,-8.23583 m 0.27283,-7.80543 0.21502,-15.2904 -0.27929,-13.577399 -13.49328,-12.125504 6.16882,-6.483288"
         id="path965"
         sodipodi:nodetypes="ccczzcccccc" />
      <path
         d="M 95.888898,94.65608 C 108.94454,81.422419 59.03256,62.396589 61.221055,56.219243 63.40955,50.041897 69.499766,43.857061 74.092397,41.765449 c 16.238176,0.220909 36.023953,2.706065 51.038773,9.79214 l -0.16563,11.340378 14.00417,15.7326 -4.95563,4.839413"
         id="path967"
         sodipodi:nodetypes="czccccc" />
      <path
         d="m 134.8314,69.071501 2.71613,-3.740165 -1.08991,-11.940397 -2.94706,-8.416681 c 0,0 -42.372759,-14.090405 -58.659901,-13.379906 -16.287142,0.7105 -32.165151,19.005877 -36.213524,39.505071 -4.048373,20.499194 1.215797,43.959177 24.861821,44.504997 0,0 18.252382,-0.35974 23.943549,-9.72463"
         id="path969"
         sodipodi:nodetypes="cccczzcc" />
    </g>
    <path
       style="font-variation-settings:normal;vector-effect:none;fill:none;fill-opacity:1;stroke:#000000;stroke-width:0.484192;stroke-linecap:square;stroke-linejoin:miter;stroke-miterlimit:4.33333;stroke-dasharray:none;stroke-dashoffset:0;stroke-opacity:1;stop-color:#000000"
       d="m 180.32987,118.97589 c 0,0 -0.80943,-3.72268 -0.42299,-5.24679 0.19322,-0.76205 3.79531,-4.71906 5.80053,-4.61952 m 2.51122,0.007 c 4.4651,0.92004 5.62055,13.44099 8.81542,17.37162 2.79577,2.13827 7.78721,1.09015 7.64723,-3.30406 m -0.0162,-2.71352 -1.34636,-7.76365 2.67204,-2.98689"
       id="path979"
       sodipodi:nodetypes="csccccccc" />
    <path
       style="font-variation-settings:normal;opacity:1;vector-effect:none;fill:none;fill-opacity:1;stroke:#000000;stroke-width:0.438872;stroke-linecap:square;stroke-linejoin:miter;stroke-miterlimit:4.33333;stroke-dasharray:none;stroke-dashoffset:0;stroke-opacity:1;stop-color:#000000;stop-opacity:1"
       d="m 185.87596,119.83637 c 0.47964,1.66724 2.96458,1.80054 4.02247,2.0558"
       id="path983"
       sodipodi:nodetypes="cc" />
    <path
       style="font-variation-settings:normal;opacity:1;vector-effect:none;fill:none;fill-opacity:1;stroke:#000000;stroke-width:0.438872;stroke-linecap:square;stroke-linejoin:miter;stroke-miterlimit:4.33333;stroke-dasharray:none;stroke-dashoffset:0;stroke-opacity:1;stop-color:#000000;stop-opacity:1"
       d="m 189.5172,115.03854 1.36331,-1.58869"
       id="path985"
       sodipodi:nodetypes="cc" />
    <path
       style="font-variation-settings:normal;opacity:1;vector-effect:none;fill:none;fill-opacity:1;stroke:#000000;stroke-width:0.465463;stroke-linecap:square;stroke-linejoin:miter;stroke-miterlimit:4.33333;stroke-dasharray:none;stroke-dashoffset:0;stroke-opacity:1;stop-color:#000000;stop-opacity:1"
       d="m 27.733921,180.48358 c 0,0 13.56831,-1.60072 12.79954,8.10361"
       id="path987"
       sodipodi:nodetypes="cc" />
    <path
       style="font-variation-settings:normal;opacity:1;vector-effect:none;fill:none;fill-opacity:1;stroke:#000000;stroke-width:0.465463;stroke-linecap:square;stroke-linejoin:miter;stroke-miterlimit:4.33333;stroke-dasharray:none;stroke-dashoffset:0;stroke-opacity:1;stop-color:#000000;stop-opacity:1"
       d="m 27.427901,185.07423 2.3706,-2.44164"
       id="path991"
       sodipodi:nodetypes="cc" />
    <g
       stroke-linecap="square"
       id="g1046"
       style="fill:none;stroke:#000000"
       transform="matrix(0.3576942,0.25959284,-0.25959284,0.3576942,94.872801,128.13387)">
      <path
         d="M 92.295385,82.917789 C 91.528374,53.238185 111.2084,36.669022 123.0909,36.396691 c 11.8825,-0.272332 38.63536,28.345381 43.6856,41.615977"
         id="path1040"
         sodipodi:nodetypes="czc" />
      <path
         d="M 174.54037,77.878695 C 167.16436,59.239129 139.20162,26.392456 122.82526,27.535426 103.24974,28.901678 43.887112,50.155556 38.637135,71.099424 18.853431,116.56052 83.59983,129.28603 89.534368,101.43068"
         id="path1042"
         sodipodi:nodetypes="cscc" />
    </g>
    <path
       style="font-variation-settings:normal;vector-effect:none;fill:none;fill-opacity:1;stroke:#000000;stroke-width:0.502679;stroke-linecap:square;stroke-linejoin:miter;stroke-miterlimit:4.33333;stroke-dasharray:none;stroke-dashoffset:0;stroke-opacity:1;stop-color:#000000"
       d="m 89.084861,185.07783 c 2.72055,-3.59136 6.14665,-4.74403 8.98454,-4.41079 2.837889,0.33324 11.694809,4.09309 16.190229,7.72661 4.49542,3.63351 10.67243,9.95426 12.52079,11.77056 2.57982,2.52501 4.75902,4.10131 6.49064,1.75653"
       id="path1052"
       sodipodi:nodetypes="czzcc" />
    <path
       style="font-variation-settings:normal;opacity:1;vector-effect:none;fill:none;fill-opacity:1;stroke:#000000;stroke-width:0.455629;stroke-linecap:square;stroke-linejoin:miter;stroke-miterlimit:4.33333;stroke-dasharray:none;stroke-dashoffset:0;stroke-opacity:1;stop-color:#000000;stop-opacity:1"
       d="m 92.722871,187.301 c 1.96004,-2.95436 5.32283,-1.93952 8.971799,-0.44827 3.64897,1.49125 6.85402,2.98097 10.60199,5.74576 3.74797,2.76479 8.09209,5.97649 10.2906,9.18557 2.1985,3.20908 10.34339,9.15809 13.79068,2.50334"
       id="path1054"
       sodipodi:nodetypes="czzcc" />
    <path
       style="font-variation-settings:normal;opacity:1;vector-effect:none;fill:none;fill-opacity:1;stroke:#000000;stroke-width:0.455629;stroke-linecap:square;stroke-linejoin:miter;stroke-miterlimit:4.33333;stroke-dasharray:none;stroke-dashoffset:0;stroke-opacity:1;stop-color:#000000;stop-opacity:1"
       d="m 92.076381,190.45917 c -3.55162,8.7246 -0.62058,13.96102 8.226459,14.399 7.1308,0.35301 16.37528,-0.056 21.14956,-2.34506 m 2.26445,-0.95788 2.00482,-1.03947 m 1.91181,-1.10776 c 1.72425,-1.36553 3.94434,-0.15188 8.77461,2.77162 6.55985,3.97032 -1.85714,16.00178 -9.25743,16.99706 -7.40029,0.99528 -35.506659,1.13715 -39.837289,-1.75191 -5.9236,-4.36808 -10.50262,-12.30852 -0.56525,-29.46446"
       id="path1056"
       sodipodi:nodetypes="csccccsscc" />
    <path
       style="font-variation-settings:normal;opacity:1;vector-effect:none;fill:none;fill-opacity:1;stroke:#000000;stroke-width:0.455629;stroke-linecap:square;stroke-linejoin:miter;stroke-miterlimit:4.33333;stroke-dasharray:none;stroke-dashoffset:0;stroke-opacity:1;stop-color:#000000;stop-opacity:1"
       d="m 102.67231,185.89276 1.79543,-2.05049"
       id="path1062"
       sodipodi:nodetypes="cc" />
    <path
       style="font-variation-settings:normal;opacity:1;vector-effect:none;fill:none;fill-opacity:1;stroke:#000000;stroke-width:0.462766;stroke-linecap:square;stroke-linejoin:miter;stroke-miterlimit:4.33333;stroke-dasharray:none;stroke-dashoffset:0;stroke-opacity:1;stop-color:#000000;stop-opacity:1"
       d="m 175.58743,187.00702 -4.65437,4.65435 -12.25275,-12.7425 21.5809,-21.58101 33.71426,33.71438 -5.28472,5.28472"
       id="path1064"
       sodipodi:nodetypes="cccccc" />
    <path
       style="font-variation-settings:normal;opacity:1;vector-effect:none;fill:none;fill-opacity:1;stroke:#000000;stroke-width:0.462766;stroke-linecap:square;stroke-linejoin:miter;stroke-miterlimit:4.33333;stroke-dasharray:none;stroke-dashoffset:0;stroke-opacity:1;stop-color:#000000;stop-opacity:1"
       d="m 194.61954,195.07419 5.14413,-5.14415 13.23228,13.23236 -21.5809,21.58092 -33.71426,-33.71435 5.28472,-5.28475"
       id="path1066"
       sodipodi:nodetypes="cccccc" />
    <path
       style="font-variation-settings:normal;opacity:1;vector-effect:none;fill:none;fill-opacity:1;stroke:#000000;stroke-width:0.462766;stroke-linecap:square;stroke-linejoin:miter;stroke-miterlimit:4.33333;stroke-dasharray:none;stroke-dashoffset:0;stroke-opacity:1;stop-color:#000000;stop-opacity:1"
       d="m 203.45308,195.2339 -5.01645,5.04645 -24.82203,-24.18116 -8.29342,7.83075"
       id="path1068"
       sodipodi:nodetypes="cccc" />
    <path
       style="font-variation-settings:normal;opacity:1;vector-effect:none;fill:none;fill-opacity:1;stroke:#000000;stroke-width:0.462766;stroke-linecap:square;stroke-linejoin:miter;stroke-miterlimit:4.33333;stroke-dasharray:none;stroke-dashoffset:0;stroke-opacity:1;stop-color:#000000;stop-opacity:1"
       d="m 205.33792,193.68789 2.74761,-2.74759 -18.09265,-18.19388 -9.40198,9.402"
       id="path1070"
       sodipodi:nodetypes="cccc" />
    <path
       style="font-variation-settings:normal;opacity:1;vector-effect:none;fill:none;fill-opacity:1;stroke:#000000;stroke-width:0.462766;stroke-linecap:square;stroke-linejoin:miter;stroke-miterlimit:4.33333;stroke-dasharray:none;stroke-dashoffset:0;stroke-opacity:1;stop-color:#000000;stop-opacity:1"
       d="m 206.24173,198.45609 -8.27626,8.12043 -24.69874,-24.02517 -4.58333,4.58575"
       id="path1074"
       sodipodi:nodetypes="cccc" />
    <path
       style="font-variation-settings:normal;opacity:1;vector-effect:none;fill:none;fill-opacity:1;stroke:#000000;stroke-width:0.462766;stroke-linecap:square;stroke-linejoin:miter;stroke-miterlimit:4.33333;stroke-dasharray:none;stroke-dashoffset:0;stroke-opacity:1;stop-color:#000000;stop-opacity:1"
       d="m 166.69178,189.23351 -2.60005,2.60005 16.94098,16.94096 8.49861,-8.49861"
       id="path1076"
       sodipodi:nodetypes="cccc" />
    <path
       style="font-variation-settings:normal;opacity:1;vector-effect:none;fill:none;fill-opacity:1;stroke:#000000;stroke-width:0.462766;stroke-linecap:square;stroke-linejoin:miter;stroke-miterlimit:4.33333;stroke-dasharray:none;stroke-dashoffset:0;stroke-opacity:1;stop-color:#000000;stop-opacity:1"
       d="m 191.29211,198.39158 1.60345,-1.64303"
       id="path1082"
       sodipodi:nodetypes="cc" />
    <path
       style="font-variation-settings:normal;opacity:1;vector-effect:none;fill:none;fill-opacity:1;stroke:#000000;stroke-width:0.462766;stroke-linecap:square;stroke-linejoin:miter;stroke-miterlimit:4.33333;stroke-dasharray:none;stroke-dashoffset:0;stroke-opacity:1;stop-color:#000000;stop-opacity:1"
       d="m 177.41474,185.32157 1.68252,-1.62728"
       id="path1086"
       sodipodi:nodetypes="cc" />
    <path
       style="font-variation-settings:normal;opacity:1;vector-effect:none;fill:none;fill-opacity:1;stroke:#000000;stroke-width:1;stroke-linecap:square;stroke-linejoin:miter;stroke-miterlimit:4.33333;stroke-dasharray:none;stroke-dashoffset:0;stroke-opacity:1;marker-end:url(#marker2356);stop-color:#000000;stop-opacity:1"
       d="M 71.605404,36.981094 H 81.956325"
       id="path1139" />
    <path
       style="font-variation-settings:normal;opacity:1;vector-effect:none;fill:none;fill-opacity:1;stroke:#000000;stroke-width:1;stroke-linecap:square;stroke-linejoin:miter;stroke-miterlimit:4.33333;stroke-dasharray:none;stroke-dashoffset:0;stroke-opacity:1;marker-end:url(#marker2406);stop-color:#000000;stop-opacity:1"
       d="m 144.72354,36.241671 h 13.61354"
       id="path1141" />
    <path
       style="font-variation-settings:normal;opacity:1;vector-effect:none;fill:none;fill-opacity:1;stroke:#000000;stroke-width:1;stroke-linecap:square;stroke-linejoin:miter;stroke-miterlimit:4.33333;stroke-dasharray:none;stroke-dashoffset:0;stroke-opacity:1;marker-end:url(#marker2544);stop-color:#000000;stop-opacity:1"
       d="M 71.605404,111.21342 H 81.956325"
       id="path2480" />
    <path
       style="font-variation-settings:normal;opacity:1;vector-effect:none;fill:none;fill-opacity:1;stroke:#000000;stroke-width:1;stroke-linecap:square;stroke-linejoin:miter;stroke-miterlimit:4.33333;stroke-dasharray:none;stroke-dashoffset:0;stroke-opacity:1;marker-end:url(#marker2748);stop-color:#000000;stop-opacity:1"
       d="M 71.605404,188.96767 H 81.956325"
       id="path2720" />
    <path
       style="font-variation-settings:normal;opacity:1;vector-effect:none;fill:none;fill-opacity:1;stroke:#000000;stroke-width:0.969689;stroke-linecap:square;stroke-linejoin:miter;stroke-miterlimit:4.33333;stroke-dasharray:none;stroke-dashoffset:0;stroke-opacity:1;marker-end:url(#marker2738);stop-color:#000000;stop-opacity:1"
       d="m 140.60672,190.57786 h 12.80076"
       id="path2722" />
    <path
       style="font-variation-settings:normal;opacity:1;vector-effect:none;fill:none;fill-opacity:1;stroke:#000000;stroke-width:1;stroke-linecap:square;stroke-linejoin:miter;stroke-miterlimit:4.33333;stroke-dasharray:none;stroke-dashoffset:0;stroke-opacity:1;marker-end:url(#marker2728);stop-color:#000000;stop-opacity:1"
       d="m 147.00484,111.04485 h 12.81234"
       id="path2724" />
    <path
       style="font-variation-settings:normal;opacity:1;vector-effect:none;fill:none;fill-opacity:1;stroke:#000000;stroke-width:1;stroke-linecap:square;stroke-linejoin:miter;stroke-miterlimit:4.33333;stroke-dasharray:none;stroke-dashoffset:0;stroke-opacity:1;marker-end:url(#marker2910);stop-color:#000000;stop-opacity:1"
       d="m 190.44722,67.649536 v 8.526471 H 37.75019 v 8.899721"
       id="path2900"
       sodipodi:nodetypes="cccc" />
    <path
       style="font-variation-settings:normal;opacity:1;vector-effect:none;fill:none;fill-opacity:1;stroke:#000000;stroke-width:1;stroke-linecap:square;stroke-linejoin:miter;stroke-miterlimit:4.33333;stroke-dasharray:none;stroke-dashoffset:0;stroke-opacity:1;marker-end:url(#marker3012);stop-color:#000000;stop-opacity:1"
       d="m 186.63882,139.39534 v 8.52647 H 37.221023 v 8.89972"
       id="path3008"
       sodipodi:nodetypes="cccc" />
    <text
       xml:space="preserve"
       style="font-size:6.35px;line-height:1.25;font-family:'Source Serif Pro';-inkscape-font-specification:'Source Serif Pro';text-align:center;letter-spacing:0px;text-anchor:middle;stroke-width:0.264583"
       x="14.908424"
       y="72.341728"
       id="text221"><tspan
         sodipodi:role="line"
         id="tspan219"
         x="14.908424"
         y="72.341728"
         style="stroke-width:0.264583">n = -1</tspan></text>
    <path
       style="font-variation-settings:normal;opacity:1;vector-effect:none;fill:none;fill-opacity:1;stroke:#000000;stroke-width:0.499999;stroke-linecap:square;stroke-linejoin:miter;stroke-miterlimit:4.33333;stroke-dasharray:none;stroke-dashoffset:0;stroke-opacity:1;stop-color:#000000;stop-opacity:1"
       d="m 132.06181,105.81338 -3.38671,3.10751 4.68455,5.2598 3.0036,3.80916 -0.37401,8.24107"
       id="path316"
       sodipodi:nodetypes="ccccc" />
  </g>
</svg>
