<?xml version="1.0" encoding="UTF-8" standalone="no"?>
<svg
   xmlns:dc="http://purl.org/dc/elements/1.1/"
   xmlns:cc="http://creativecommons.org/ns#"
   xmlns:rdf="http://www.w3.org/1999/02/22-rdf-syntax-ns#"
   xmlns:svg="http://www.w3.org/2000/svg"
   xmlns="http://www.w3.org/2000/svg"
   xmlns:sodipodi="http://sodipodi.sourceforge.net/DTD/sodipodi-0.dtd"
   xmlns:inkscape="http://www.inkscape.org/namespaces/inkscape"
   width="8in"
   height="4in"
   viewBox="0 0 203.2 101.6"
   version="1.1"
   id="svg8"
   inkscape:version="1.0.2 (e86c870879, 2021-01-15)"
   sodipodi:docname="mirror.svg">
  <defs
     id="defs2">
    <inkscape:perspective
       sodipodi:type="inkscape:persp3d"
       inkscape:vp_x="0 : 50.8 : 1"
       inkscape:vp_y="0 : 1000 : 0"
       inkscape:vp_z="101.6 : 16.933333 : 0"
       inkscape:persp3d-origin="101.6 : 33.866667 : 1"
       id="perspective898" />
  </defs>
  <sodipodi:namedview
     id="base"
     pagecolor="#ffffff"
     bordercolor="#666666"
     borderopacity="1.0"
     inkscape:pageopacity="0.0"
     inkscape:pageshadow="2"
     inkscape:zoom="0.81285127"
     inkscape:cx="221.16538"
     inkscape:cy="107.92819"
     inkscape:document-units="mm"
     inkscape:current-layer="layer2"
     inkscape:document-rotation="0"
     showgrid="true"
     units="in"
     inkscape:window-width="1536"
     inkscape:window-height="834"
     inkscape:window-x="0"
     inkscape:window-y="0"
     inkscape:window-maximized="1"
     inkscape:snap-grids="true"
     inkscape:snap-intersection-paths="false">
    <inkscape:grid
       type="xygrid"
       id="grid10"
       units="in"
       spacingx="12.7"
       spacingy="12.7"
       empspacing="4" />
  </sodipodi:namedview>
  <metadata
     id="metadata5">
    <rdf:RDF>
      <cc:Work
         rdf:about="">
        <dc:format>image/svg+xml</dc:format>
        <dc:type
           rdf:resource="http://purl.org/dc/dcmitype/StillImage" />
        <dc:title />
      </cc:Work>
    </rdf:RDF>
  </metadata>
  <g
     inkscape:label="Layer 1"
     inkscape:groupmode="layer"
     id="layer1"
     sodipodi:insensitive="true"
     style="display:none">
    <circle
       style="fill:none;stroke:#94d5a0;stroke-width:0.5;stroke-linecap:square;stroke-linejoin:round;stroke-miterlimit:4.33333;stroke-dasharray:0.5, 1;stroke-dashoffset:0;stroke-opacity:1;paint-order:stroke fill markers"
       id="path12"
       cx="50.799988"
       cy="50.799995"
       r="38.361149" />
    <ellipse
       style="fill:none;stroke:#94d5a0;stroke-width:0.308358;stroke-linecap:square;stroke-linejoin:round;stroke-miterlimit:4.33333;stroke-dasharray:0.308358, 0.616715;stroke-dashoffset:0;stroke-opacity:1;paint-order:stroke fill markers"
       id="circle841"
       cx="50.799938"
       cy="50.799908"
       rx="23.65741"
       ry="23.658417" />
    <path
       id="path932"
       style="font-variation-settings:normal;opacity:1;vector-effect:none;fill:none;fill-opacity:1;stroke:#c70000;stroke-width:0.5;stroke-linecap:square;stroke-linejoin:miter;stroke-miterlimit:4.33333;stroke-dasharray:0.5, 1.5;stroke-dashoffset:0;stroke-opacity:1;stop-color:#000000;stop-opacity:1"
       d="M 50.799999,50.799999 V 107.59613 M 1.61311,22.401936 50.799999,50.799999 99.986888,22.401935"
       inkscape:transform-center-x="-0.0001271463"
       inkscape:transform-center-y="14.197591" />
    <path
       id="path937"
       style="font-variation-settings:normal;opacity:1;vector-effect:none;fill:none;fill-opacity:1;stroke:#6400c7;stroke-width:0.5;stroke-linecap:square;stroke-linejoin:miter;stroke-miterlimit:4.33333;stroke-dasharray:0.5, 1.5;stroke-dashoffset:0;stroke-opacity:1;stop-color:#000000;stop-opacity:1"
       d="M 50.798686,50.80061 99.985578,79.198676 M 1.6117977,79.198674 50.798686,50.80061 V -5.9955173"
       inkscape:transform-center-x="0.0011840037"
       inkscape:transform-center-y="-14.199862" />
  </g>
  <g
     inkscape:groupmode="layer"
     id="layer2"
     inkscape:label="Layer 2">
    <g
       id="g1014">
      <path
         id="path941"
         style="color:#000000;font-style:normal;font-variant:normal;font-weight:normal;font-stretch:normal;font-size:medium;line-height:normal;font-family:sans-serif;font-variant-ligatures:normal;font-variant-position:normal;font-variant-caps:normal;font-variant-numeric:normal;font-variant-alternates:normal;font-variant-east-asian:normal;font-feature-settings:normal;font-variation-settings:normal;text-indent:0;text-align:start;text-decoration:none;text-decoration-line:none;text-decoration-style:solid;text-decoration-color:#000000;letter-spacing:normal;word-spacing:normal;text-transform:none;writing-mode:lr-tb;direction:ltr;text-orientation:mixed;dominant-baseline:auto;baseline-shift:baseline;text-anchor:start;white-space:normal;shape-padding:0;shape-margin:0;inline-size:0;clip-rule:nonzero;display:inline;overflow:visible;visibility:visible;opacity:1;isolation:auto;mix-blend-mode:normal;color-interpolation:sRGB;color-interpolation-filters:linearRGB;solid-color:#000000;solid-opacity:1;vector-effect:none;fill:#000000;fill-opacity:1;fill-rule:nonzero;stroke:none;stroke-width:3.77953;stroke-linecap:square;stroke-linejoin:miter;stroke-miterlimit:4.33333;stroke-dasharray:none;stroke-dashoffset:0;stroke-opacity:1;color-rendering:auto;image-rendering:auto;shape-rendering:auto;text-rendering:auto;enable-background:accumulate;stop-color:#000000;stop-opacity:1"
         d="m 192.13477,45.214844 c -24.50981,0 -44.48345,12.828707 -58.1543,31.955078 -13.67086,19.126363 -21.18554,44.554498 -21.18555,70.253908 10e-6,46.74698 27.52084,99.06723 66.28906,127.75781 7.4e-4,5.4e-4 0.001,10e-4 0.002,0.002 1.24987,0.92494 2.51245,1.82439 3.78515,2.69922 1.27769,-0.65169 2.54339,-1.32591 3.79883,-2.02343 -40.43278,-26.84266 -70.23633,-81.12187 -70.23633,-128.53126 0,-24.95968 7.3581,-49.687472 20.48633,-68.054682 13.12824,-18.367208 31.87768,-30.369141 55.07617,-30.369141 12.35001,0 23.43583,3.355588 33.08399,9.248047 8.54257,5.187295 15.96149,12.361034 22.13476,20.958984 11.40985,15.891308 18.44948,36.652572 20.09375,58.419922 1.27279,0.65 2.5312,1.32004 3.77539,2.00781 -1.33671,-23.26104 -8.63304,-45.579926 -20.9414,-62.722654 -5.55391,-7.735313 -12.14872,-14.416726 -19.66406,-19.623047 -0.54764,-0.37938 -1.10083,-0.747767 -1.65821,-1.111328 -10.59067,-6.874207 -22.92287,-10.867189 -36.68554,-10.867187 z"
         transform="scale(0.26458333)"
         inkscape:transform-center-y="-8.0573742"
         inkscape:transform-center-x="0.015870317" />
      <path
         id="path1007"
         style="color:#000000;font-style:normal;font-variant:normal;font-weight:normal;font-stretch:normal;font-size:medium;line-height:normal;font-family:sans-serif;font-variant-ligatures:normal;font-variant-position:normal;font-variant-caps:normal;font-variant-numeric:normal;font-variant-alternates:normal;font-variant-east-asian:normal;font-feature-settings:normal;font-variation-settings:normal;text-indent:0;text-align:start;text-decoration:none;text-decoration-line:none;text-decoration-style:solid;text-decoration-color:#000000;letter-spacing:normal;word-spacing:normal;text-transform:none;writing-mode:lr-tb;direction:ltr;text-orientation:mixed;dominant-baseline:auto;baseline-shift:baseline;text-anchor:start;white-space:normal;shape-padding:0;shape-margin:0;inline-size:0;clip-rule:nonzero;display:inline;overflow:visible;visibility:visible;opacity:1;isolation:auto;mix-blend-mode:normal;color-interpolation:sRGB;color-interpolation-filters:linearRGB;solid-color:#000000;solid-opacity:1;vector-effect:none;fill:#000000;fill-opacity:1;fill-rule:nonzero;stroke:none;stroke-width:1;stroke-linecap:square;stroke-linejoin:miter;stroke-miterlimit:4.33333;stroke-dasharray:none;stroke-dashoffset:0;stroke-opacity:1;color-rendering:auto;image-rendering:auto;shape-rendering:auto;text-rendering:auto;enable-background:accumulate;stop-color:#000000;stop-opacity:1"
         d="M 84.41614,70.25022 C 87.658583,64.634143 87.361412,58.360335 84.787414,52.697593 82.213418,47.03485 77.38105,41.949037 71.492394,38.549217 60.780982,32.364983 45.151759,31.74946 33.449005,36.837126 c -2.22e-4,9.8e-5 -3.61e-4,9.6e-5 -7.23e-4,1.93e-4 -0.377284,0.164029 -0.750409,0.334341 -1.119232,0.51023 -0.0197,0.378977 -0.03266,0.758188 -0.03891,1.138131 11.499537,-5.713541 27.879613,-5.361917 38.742805,0.909951 5.719159,3.301957 10.411768,8.259243 12.883599,13.69722 2.47183,5.43798 2.741509,11.321905 -0.327458,16.637511 -1.633803,2.829831 -3.869251,4.926074 -6.495795,6.35729 -2.318707,1.271174 -4.943929,2.022089 -7.7307,2.299169 -5.150697,0.512119 -10.839132,-0.621392 -16.044336,-3.124269 -0.317318,0.205652 -0.637325,0.405358 -0.959514,0.59946 5.506774,2.770954 11.586076,4.051705 17.142383,3.499258 2.507174,-0.249282 4.910564,-0.876495 7.097736,-1.909776 0.159378,-0.07529 0.316971,-0.153316 0.474012,-0.232936 2.976185,-1.517302 5.522568,-3.814813 7.343254,-6.968335 z"
         inkscape:transform-center-y="5.6537419"
         inkscape:transform-center-x="-8.736731" />
      <path
         id="path1009"
         style="color:#000000;font-style:normal;font-variant:normal;font-weight:normal;font-stretch:normal;font-size:medium;line-height:normal;font-family:sans-serif;font-variant-ligatures:normal;font-variant-position:normal;font-variant-caps:normal;font-variant-numeric:normal;font-variant-alternates:normal;font-variant-east-asian:normal;font-feature-settings:normal;font-variation-settings:normal;text-indent:0;text-align:start;text-decoration:none;text-decoration-line:none;text-decoration-style:solid;text-decoration-color:#000000;letter-spacing:normal;word-spacing:normal;text-transform:none;writing-mode:lr-tb;direction:ltr;text-orientation:mixed;dominant-baseline:auto;baseline-shift:baseline;text-anchor:start;white-space:normal;shape-padding:0;shape-margin:0;inline-size:0;clip-rule:nonzero;display:inline;overflow:visible;visibility:visible;opacity:1;isolation:auto;mix-blend-mode:normal;color-interpolation:sRGB;color-interpolation-filters:linearRGB;solid-color:#000000;solid-opacity:1;vector-effect:none;fill:#000000;fill-opacity:1;fill-rule:nonzero;stroke:none;stroke-width:1;stroke-linecap:square;stroke-linejoin:miter;stroke-miterlimit:4.33333;stroke-dasharray:none;stroke-dashoffset:0;stroke-opacity:1;color-rendering:auto;image-rendering:auto;shape-rendering:auto;text-rendering:auto;enable-background:accumulate;stop-color:#000000;stop-opacity:1"
         d="m 17.147767,70.188208 c 3.242443,5.616077 8.824306,8.495623 15.015383,9.097847 6.191078,0.602225 13.011705,-1.039822 18.900363,-4.439637 10.71141,-6.184238 19.05908,-19.411781 20.504409,-32.090496 2.6e-5,-2.41e-4 9.8e-5,-3.61e-4 1.95e-4,-7.23e-4 0.04659,-0.408752 0.08566,-0.817044 0.117743,-1.224398 C 71.367507,41.324252 71.04558,41.123422 70.719665,40.928038 69.917968,53.7437 61.423415,67.75345 50.560222,74.025316 44.841064,77.327275 38.201624,78.91255 32.256282,78.33423 26.310938,77.755908 21.08047,75.047494 18.011504,69.731888 16.3777,66.902057 15.680024,63.917981 15.753827,60.927719 c 0.05848,-2.643646 0.720784,-5.292612 1.874211,-7.844567 2.13184,-4.716694 5.957707,-9.076268 10.727864,-12.332668 -0.01944,-0.377631 -0.03239,-0.754619 -0.03939,-1.130693 -5.153104,3.383529 -9.301918,8.007983 -11.601638,13.09611 -1.037703,2.295917 -1.696215,4.69092 -1.894954,7.101707 -0.01449,0.175671 -0.02571,0.351163 -0.03528,0.526975 -0.174071,3.336103 0.542441,6.69009 2.363128,9.843612 z"
         inkscape:transform-center-y="8.7136164"
         inkscape:transform-center-x="7.5772653" />
    </g>
    <g
       id="g1022"
       transform="matrix(-1,0,0,1,203.14043,0)">
      <path
         id="path1016"
         style="color:#000000;font-style:normal;font-variant:normal;font-weight:normal;font-stretch:normal;font-size:medium;line-height:normal;font-family:sans-serif;font-variant-ligatures:normal;font-variant-position:normal;font-variant-caps:normal;font-variant-numeric:normal;font-variant-alternates:normal;font-variant-east-asian:normal;font-feature-settings:normal;font-variation-settings:normal;text-indent:0;text-align:start;text-decoration:none;text-decoration-line:none;text-decoration-style:solid;text-decoration-color:#000000;letter-spacing:normal;word-spacing:normal;text-transform:none;writing-mode:lr-tb;direction:ltr;text-orientation:mixed;dominant-baseline:auto;baseline-shift:baseline;text-anchor:start;white-space:normal;shape-padding:0;shape-margin:0;inline-size:0;clip-rule:nonzero;display:inline;overflow:visible;visibility:visible;opacity:1;isolation:auto;mix-blend-mode:normal;color-interpolation:sRGB;color-interpolation-filters:linearRGB;solid-color:#000000;solid-opacity:1;vector-effect:none;fill:#000000;fill-opacity:1;fill-rule:nonzero;stroke:none;stroke-width:3.77953;stroke-linecap:square;stroke-linejoin:miter;stroke-miterlimit:4.33333;stroke-dasharray:none;stroke-dashoffset:0;stroke-opacity:1;color-rendering:auto;image-rendering:auto;shape-rendering:auto;text-rendering:auto;enable-background:accumulate;stop-color:#000000;stop-opacity:1"
         d="m 192.13477,45.214844 c -24.50981,0 -44.48345,12.828707 -58.1543,31.955078 -13.67086,19.126363 -21.18554,44.554498 -21.18555,70.253908 10e-6,46.74698 27.52084,99.06723 66.28906,127.75781 7.4e-4,5.4e-4 0.001,10e-4 0.002,0.002 1.24987,0.92494 2.51245,1.82439 3.78515,2.69922 1.27769,-0.65169 2.54339,-1.32591 3.79883,-2.02343 -40.43278,-26.84266 -70.23633,-81.12187 -70.23633,-128.53126 0,-24.95968 7.3581,-49.687472 20.48633,-68.054682 13.12824,-18.367208 31.87768,-30.369141 55.07617,-30.369141 12.35001,0 23.43583,3.355588 33.08399,9.248047 8.54257,5.187295 15.96149,12.361034 22.13476,20.958984 11.40985,15.891308 18.44948,36.652572 20.09375,58.419922 1.27279,0.65 2.5312,1.32004 3.77539,2.00781 -1.33671,-23.26104 -8.63304,-45.579926 -20.9414,-62.722654 -5.55391,-7.735313 -12.14872,-14.416726 -19.66406,-19.623047 -0.54764,-0.37938 -1.10083,-0.747767 -1.65821,-1.111328 -10.59067,-6.874207 -22.92287,-10.867189 -36.68554,-10.867187 z"
         transform="scale(0.26458333)"
         inkscape:transform-center-y="-8.0573742"
         inkscape:transform-center-x="0.015870317" />
      <path
         id="path1018"
         style="color:#000000;font-style:normal;font-variant:normal;font-weight:normal;font-stretch:normal;font-size:medium;line-height:normal;font-family:sans-serif;font-variant-ligatures:normal;font-variant-position:normal;font-variant-caps:normal;font-variant-numeric:normal;font-variant-alternates:normal;font-variant-east-asian:normal;font-feature-settings:normal;font-variation-settings:normal;text-indent:0;text-align:start;text-decoration:none;text-decoration-line:none;text-decoration-style:solid;text-decoration-color:#000000;letter-spacing:normal;word-spacing:normal;text-transform:none;writing-mode:lr-tb;direction:ltr;text-orientation:mixed;dominant-baseline:auto;baseline-shift:baseline;text-anchor:start;white-space:normal;shape-padding:0;shape-margin:0;inline-size:0;clip-rule:nonzero;display:inline;overflow:visible;visibility:visible;opacity:1;isolation:auto;mix-blend-mode:normal;color-interpolation:sRGB;color-interpolation-filters:linearRGB;solid-color:#000000;solid-opacity:1;vector-effect:none;fill:#000000;fill-opacity:1;fill-rule:nonzero;stroke:none;stroke-width:1;stroke-linecap:square;stroke-linejoin:miter;stroke-miterlimit:4.33333;stroke-dasharray:none;stroke-dashoffset:0;stroke-opacity:1;color-rendering:auto;image-rendering:auto;shape-rendering:auto;text-rendering:auto;enable-background:accumulate;stop-color:#000000;stop-opacity:1"
         d="M 84.41614,70.25022 C 87.658583,64.634143 87.361412,58.360335 84.787414,52.697593 82.213418,47.03485 77.38105,41.949037 71.492394,38.549217 60.780982,32.364983 45.151759,31.74946 33.449005,36.837126 c -2.22e-4,9.8e-5 -3.61e-4,9.6e-5 -7.23e-4,1.93e-4 -0.377284,0.164029 -0.750409,0.334341 -1.119232,0.51023 -0.0197,0.378977 -0.03266,0.758188 -0.03891,1.138131 11.499537,-5.713541 27.879613,-5.361917 38.742805,0.909951 5.719159,3.301957 10.411768,8.259243 12.883599,13.69722 2.47183,5.43798 2.741509,11.321905 -0.327458,16.637511 -1.633803,2.829831 -3.869251,4.926074 -6.495795,6.35729 -2.318707,1.271174 -4.943929,2.022089 -7.7307,2.299169 -5.150697,0.512119 -10.839132,-0.621392 -16.044336,-3.124269 -0.317318,0.205652 -0.637325,0.405358 -0.959514,0.59946 5.506774,2.770954 11.586076,4.051705 17.142383,3.499258 2.507174,-0.249282 4.910564,-0.876495 7.097736,-1.909776 0.159378,-0.07529 0.316971,-0.153316 0.474012,-0.232936 2.976185,-1.517302 5.522568,-3.814813 7.343254,-6.968335 z"
         inkscape:transform-center-y="5.6537419"
         inkscape:transform-center-x="-8.736731" />
      <path
         id="path1020"
         style="color:#000000;font-style:normal;font-variant:normal;font-weight:normal;font-stretch:normal;font-size:medium;line-height:normal;font-family:sans-serif;font-variant-ligatures:normal;font-variant-position:normal;font-variant-caps:normal;font-variant-numeric:normal;font-variant-alternates:normal;font-variant-east-asian:normal;font-feature-settings:normal;font-variation-settings:normal;text-indent:0;text-align:start;text-decoration:none;text-decoration-line:none;text-decoration-style:solid;text-decoration-color:#000000;letter-spacing:normal;word-spacing:normal;text-transform:none;writing-mode:lr-tb;direction:ltr;text-orientation:mixed;dominant-baseline:auto;baseline-shift:baseline;text-anchor:start;white-space:normal;shape-padding:0;shape-margin:0;inline-size:0;clip-rule:nonzero;display:inline;overflow:visible;visibility:visible;opacity:1;isolation:auto;mix-blend-mode:normal;color-interpolation:sRGB;color-interpolation-filters:linearRGB;solid-color:#000000;solid-opacity:1;vector-effect:none;fill:#000000;fill-opacity:1;fill-rule:nonzero;stroke:none;stroke-width:1;stroke-linecap:square;stroke-linejoin:miter;stroke-miterlimit:4.33333;stroke-dasharray:none;stroke-dashoffset:0;stroke-opacity:1;color-rendering:auto;image-rendering:auto;shape-rendering:auto;text-rendering:auto;enable-background:accumulate;stop-color:#000000;stop-opacity:1"
         d="m 17.147767,70.188208 c 3.242443,5.616077 8.824306,8.495623 15.015383,9.097847 6.191078,0.602225 13.011705,-1.039822 18.900363,-4.439637 10.71141,-6.184238 19.05908,-19.411781 20.504409,-32.090496 2.6e-5,-2.41e-4 9.8e-5,-3.61e-4 1.95e-4,-7.23e-4 0.04659,-0.408752 0.08566,-0.817044 0.117743,-1.224398 C 71.367507,41.324252 71.04558,41.123422 70.719665,40.928038 69.917968,53.7437 61.423415,67.75345 50.560222,74.025316 44.841064,77.327275 38.201624,78.91255 32.256282,78.33423 26.310938,77.755908 21.08047,75.047494 18.011504,69.731888 16.3777,66.902057 15.680024,63.917981 15.753827,60.927719 c 0.05848,-2.643646 0.720784,-5.292612 1.874211,-7.844567 2.13184,-4.716694 5.957707,-9.076268 10.727864,-12.332668 -0.01944,-0.377631 -0.03239,-0.754619 -0.03939,-1.130693 -5.153104,3.383529 -9.301918,8.007983 -11.601638,13.09611 -1.037703,2.295917 -1.696215,4.69092 -1.894954,7.101707 -0.01449,0.175671 -0.02571,0.351163 -0.03528,0.526975 -0.174071,3.336103 0.542441,6.69009 2.363128,9.843612 z"
         inkscape:transform-center-y="8.7136164"
         inkscape:transform-center-x="7.5772653" />
    </g>
    <text
       xml:space="preserve"
       style="font-style:italic;font-variant:normal;font-weight:normal;font-stretch:normal;font-size:8.46667px;line-height:1.25;font-family:'Source Serif Pro';-inkscape-font-specification:'Source Serif Pro Italic';text-align:center;letter-spacing:0px;baseline-shift:baseline;text-anchor:middle;stroke-width:0.264583"
       x="49.949306"
       y="90.673805"
       id="text1026"><tspan
         sodipodi:role="line"
         id="tspan1024"
         x="49.949306"
         y="90.673805"
         style="font-style:italic;font-variant:normal;font-weight:normal;font-stretch:normal;font-size:8.46667px;font-family:'Source Serif Pro';-inkscape-font-specification:'Source Serif Pro Italic';baseline-shift:baseline;stroke-width:0.264583">3<tspan
   style="font-size:65%;baseline-shift:sub"
   id="tspan30">1</tspan></tspan></text>
    <text
       xml:space="preserve"
       style="font-style:italic;font-variant:normal;font-weight:normal;font-stretch:normal;font-size:8.46667px;line-height:1.25;font-family:'Source Serif Pro';-inkscape-font-specification:'Source Serif Pro Italic';text-align:center;letter-spacing:0px;baseline-shift:baseline;text-anchor:middle;stroke-width:0.264583"
       x="152.03329"
       y="91.000084"
       id="text1034"><tspan
         sodipodi:role="line"
         id="tspan1032"
         x="152.03329"
         y="91.000084"
         style="font-style:italic;font-variant:normal;font-weight:normal;font-stretch:normal;font-size:8.46667px;font-family:'Source Serif Pro';-inkscape-font-specification:'Source Serif Pro Italic';baseline-shift:baseline;stroke-width:0.264583">m(3<tspan
   style="font-size:65%;baseline-shift:sub"
   id="tspan32">1</tspan>)</tspan></text>
  </g>
</svg>
