<?xml version="1.0" encoding="UTF-8"?>
<svg width="6in" height="5in" version="1.1" viewBox="0 0 154 128" xmlns="http://www.w3.org/2000/svg" xmlns:cc="http://creativecommons.org/ns#" xmlns:dc="http://purl.org/dc/elements/1.1/" xmlns:osb="http://www.openswatchbook.org/uri/2009/osb" xmlns:rdf="http://www.w3.org/1999/02/22-rdf-syntax-ns#">
 <metadata>
  <rdf:RDF>
   <cc:Work rdf:about="">
    <dc:format>image/svg+xml</dc:format>
    <dc:type rdf:resource="http://purl.org/dc/dcmitype/StillImage"/>
    <dc:title/>
   </cc:Work>
  </rdf:RDF>
 </metadata>
 <g transform="translate(-12 -25)">
  <g fill="none" stroke="#000">
   <g stroke-linecap="square">
    <path d="m36 86-10-10 25-25h25l25 25-10 10"/>
    <path d="m41 66 10 10-25 25 10 10"/>
    <path d="m41 91 10 10-25 25 2.5e-4 13h127l-2e-3 -13-10-10"/>
    <path d="m41 117 10 10h25l10-10"/>
    <path d="m86 91-10 10 25 25h25l20-20"/>
    <path d="m91 112 10-10-25-25 10-10"/>
    <path d="m91 61 10-10h25l10 10"/>
    <path d="m36 61-10-10 2.5e-4 -13h127l-2e-3 13-20 20"/>
    <path d="m142 66 5.1 5.1"/>
    <path d="m137 112-5.1-5.1"/>
   </g>
   <path d="m140 70v13" stroke-dasharray="1, 4" stroke-linejoin="round"/>
   <path d="m140 108v-13" stroke-dasharray="1, 4" stroke-linejoin="round"/>
  </g>
  <text transform="matrix(1.8 0 0 1.8 -111 -70)" font-family="'Source Serif Pro'" font-size="9.9px" letter-spacing="0px" text-align="center" style="line-height:1.25;shape-inside:url(#rect970);white-space:pre" xml:space="preserve"><tspan x="136.9196" y="91.249676"><tspan font-family="'Source Serif Pro'" font-size="9.9px" font-style="italic">n</tspan></tspan></text>
 </g>
</svg>
