<?xml version="1.0" encoding="UTF-8" standalone="no"?>
<svg
   xmlns:dc="http://purl.org/dc/elements/1.1/"
   xmlns:cc="http://creativecommons.org/ns#"
   xmlns:rdf="http://www.w3.org/1999/02/22-rdf-syntax-ns#"
   xmlns:svg="http://www.w3.org/2000/svg"
   xmlns="http://www.w3.org/2000/svg"
   xmlns:sodipodi="http://sodipodi.sourceforge.net/DTD/sodipodi-0.dtd"
   xmlns:inkscape="http://www.inkscape.org/namespaces/inkscape"
   width="6in"
   height="3in"
   viewBox="0 0 152.4 76.200001"
   version="1.1"
   id="svg8"
   inkscape:version="1.0.1 (3bc2e813f5, 2020-09-07)"
   sodipodi:docname="smooth diagrams.svg"
   inkscape:export-filename="/home/rafie/Documents/Schoolwork/Sproj (Knot Theory)/Winter Writeup/images/smooth-knots.png"
   inkscape:export-xdpi="227"
   inkscape:export-ydpi="227">
  <defs
     id="defs2" />
  <sodipodi:namedview
     id="base"
     pagecolor="#ffffff"
     bordercolor="#666666"
     borderopacity="1.0"
     inkscape:pageopacity="0.0"
     inkscape:pageshadow="2"
     inkscape:zoom="1.3328765"
     inkscape:cx="293.83305"
     inkscape:cy="96.323723"
     inkscape:document-units="mm"
     inkscape:current-layer="layer1"
     inkscape:document-rotation="0"
     showgrid="true"
     units="in"
     inkscape:snap-grids="false"
     inkscape:object-nodes="false"
     inkscape:snap-others="false"
     inkscape:snap-nodes="false"
     inkscape:snap-global="false"
     inkscape:window-width="961"
     inkscape:window-height="812"
     inkscape:window-x="0"
     inkscape:window-y="0"
     inkscape:window-maximized="1">
    <inkscape:grid
       type="xygrid"
       id="grid10"
       units="in"
       spacingx="25.4"
       spacingy="25.4" />
  </sodipodi:namedview>
  <metadata
     id="metadata5">
    <rdf:RDF>
      <cc:Work
         rdf:about="">
        <dc:format>image/svg+xml</dc:format>
        <dc:type
           rdf:resource="http://purl.org/dc/dcmitype/StillImage" />
        <dc:title></dc:title>
      </cc:Work>
    </rdf:RDF>
  </metadata>
  <g
     inkscape:label="Layer 1"
     inkscape:groupmode="layer"
     id="layer1">
    <path
       style="color:#000000;font-style:normal;font-variant:normal;font-weight:normal;font-stretch:normal;font-size:medium;line-height:normal;font-family:sans-serif;font-variant-ligatures:normal;font-variant-position:normal;font-variant-caps:normal;font-variant-numeric:normal;font-variant-alternates:normal;font-variant-east-asian:normal;font-feature-settings:normal;font-variation-settings:normal;text-indent:0;text-align:start;text-decoration:none;text-decoration-line:none;text-decoration-style:solid;text-decoration-color:#000000;letter-spacing:normal;word-spacing:normal;text-transform:none;writing-mode:lr-tb;direction:ltr;text-orientation:mixed;dominant-baseline:auto;baseline-shift:baseline;text-anchor:start;white-space:normal;shape-padding:0;shape-margin:0;inline-size:0;clip-rule:nonzero;display:inline;overflow:visible;visibility:visible;opacity:1;isolation:auto;mix-blend-mode:normal;color-interpolation:sRGB;color-interpolation-filters:linearRGB;solid-color:#000000;solid-opacity:1;vector-effect:none;fill:#000000;fill-opacity:1;fill-rule:nonzero;stroke:none;stroke-width:1;stroke-linecap:butt;stroke-linejoin:miter;stroke-miterlimit:4;stroke-dasharray:none;stroke-dashoffset:0;stroke-opacity:1;color-rendering:auto;image-rendering:auto;shape-rendering:auto;text-rendering:auto;enable-background:accumulate;stop-color:#000000;stop-opacity:1"
       d="m 21.800781,25.519531 c -2.352178,0.15048 -4.616141,1.734486 -6.457031,3.96875 -1.84089,2.234264 -3.269013,5.145672 -3.880859,8.109375 -0.611846,2.963704 -0.40861,6.00068 1.113281,8.408203 1.52189,2.407524 4.356758,4.113077 8.753906,4.451172 11.912222,0.915928 12.116107,0.647327 22.001151,0.14077 l -0.160877,-0.944726 c -9.891004,0.506862 -9.857398,0.721413 -21.7641,-0.194091 -4.177852,-0.321234 -6.644965,-1.869429 -7.984375,-3.988281 -1.33941,-2.118852 -1.555945,-4.882388 -0.980469,-7.669922 0.575477,-2.787534 1.943851,-5.578083 3.673828,-7.677734 1.729978,-2.099651 3.710668,-3.454219 5.647826,-3.578148 z"
       id="path1007"
       sodipodi:nodetypes="cssssccsssscc" />
    <path
       style="color:#000000;font-style:normal;font-variant:normal;font-weight:normal;font-stretch:normal;font-size:medium;line-height:normal;font-family:sans-serif;font-variant-ligatures:normal;font-variant-position:normal;font-variant-caps:normal;font-variant-numeric:normal;font-variant-alternates:normal;font-variant-east-asian:normal;font-feature-settings:normal;font-variation-settings:normal;text-indent:0;text-align:start;text-decoration:none;text-decoration-line:none;text-decoration-style:solid;text-decoration-color:#000000;letter-spacing:normal;word-spacing:normal;text-transform:none;writing-mode:lr-tb;direction:ltr;text-orientation:mixed;dominant-baseline:auto;baseline-shift:baseline;text-anchor:start;white-space:normal;shape-padding:0;shape-margin:0;inline-size:0;clip-rule:nonzero;display:inline;overflow:visible;visibility:visible;opacity:1;isolation:auto;mix-blend-mode:normal;color-interpolation:sRGB;color-interpolation-filters:linearRGB;solid-color:#000000;solid-opacity:1;vector-effect:none;fill:#000000;fill-opacity:1;fill-rule:nonzero;stroke:none;stroke-width:1;stroke-linecap:butt;stroke-linejoin:miter;stroke-miterlimit:4;stroke-dasharray:none;stroke-dashoffset:0;stroke-opacity:1;color-rendering:auto;image-rendering:auto;shape-rendering:auto;text-rendering:auto;enable-background:accumulate;stop-color:#000000;stop-opacity:1"
       d="m 51.021484,49.050781 c -2.916193,-0.380553 -5.374035,0.304882 -5.374035,0.304882 0.07133,0.372863 -0.0076,0.101187 0.152396,0.870983 0,0 2.420266,-0.532425 5.092733,-0.183677 1.336234,0.174374 2.645183,0.598337 3.617188,1.435547 0.972005,0.83721 1.649505,2.080992 1.71875,4.076172 0.140677,4.053394 -1.623584,5.908484 -3.535157,6.662109 -0.955786,0.376812 -2.063165,0.586825 -2.869116,0.468446 -0.805951,-0.11838 -1.240007,-0.298278 -1.385479,-0.545236 l -0.6845,0.501273 c 0.410107,0.696209 1.039717,0.758917 2.025033,0.903642 0.985316,0.144725 2.150823,0.04723 3.28125,-0.398438 2.260854,-0.891326 4.317576,-3.258006 4.166015,-7.625 -0.07687,-2.215015 -0.885916,-3.78568 -2.064453,-4.800781 -1.178537,-1.015101 -2.682528,-1.479645 -4.140625,-1.669922 z"
       id="path1011"
       sodipodi:nodetypes="sccsssssccsssss" />
    <path
       style="color:#000000;font-style:normal;font-variant:normal;font-weight:normal;font-stretch:normal;font-size:medium;line-height:normal;font-family:sans-serif;font-variant-ligatures:normal;font-variant-position:normal;font-variant-caps:normal;font-variant-numeric:normal;font-variant-alternates:normal;font-variant-east-asian:normal;font-feature-settings:normal;font-variation-settings:normal;text-indent:0;text-align:start;text-decoration:none;text-decoration-line:none;text-decoration-style:solid;text-decoration-color:#000000;letter-spacing:normal;word-spacing:normal;text-transform:none;writing-mode:lr-tb;direction:ltr;text-orientation:mixed;dominant-baseline:auto;baseline-shift:baseline;text-anchor:start;white-space:normal;shape-padding:0;shape-margin:0;inline-size:0;clip-rule:nonzero;display:inline;overflow:visible;visibility:visible;opacity:1;isolation:auto;mix-blend-mode:normal;color-interpolation:sRGB;color-interpolation-filters:linearRGB;solid-color:#000000;solid-opacity:1;vector-effect:none;fill:#000000;fill-opacity:1;fill-rule:nonzero;stroke:none;stroke-width:1;stroke-linecap:butt;stroke-linejoin:miter;stroke-miterlimit:4;stroke-dasharray:none;stroke-dashoffset:0;stroke-opacity:1;color-rendering:auto;image-rendering:auto;shape-rendering:auto;text-rendering:auto;enable-background:accumulate;stop-color:#000000;stop-opacity:1"
       d="m 44.32382,26.672061 c -3.566594,16.949876 2.20181,33.844258 2.20181,33.844258 L 47.337891,60.0625 c 0,0 -5.712063,-16.191088 -2.217227,-32.799943 z"
       id="path1015"
       sodipodi:nodetypes="ccccc" />
    <path
       style="color:#000000;font-style:normal;font-variant:normal;font-weight:normal;font-stretch:normal;font-size:medium;line-height:normal;font-family:sans-serif;font-variant-ligatures:normal;font-variant-position:normal;font-variant-caps:normal;font-variant-numeric:normal;font-variant-alternates:normal;font-variant-east-asian:normal;font-feature-settings:normal;font-variation-settings:normal;text-indent:0;text-align:start;text-decoration:none;text-decoration-line:none;text-decoration-style:solid;text-decoration-color:#000000;letter-spacing:normal;word-spacing:normal;text-transform:none;writing-mode:lr-tb;direction:ltr;text-orientation:mixed;dominant-baseline:auto;baseline-shift:baseline;text-anchor:start;white-space:normal;shape-padding:0;shape-margin:0;inline-size:0;clip-rule:nonzero;display:inline;overflow:visible;visibility:visible;opacity:1;isolation:auto;mix-blend-mode:normal;color-interpolation:sRGB;color-interpolation-filters:linearRGB;solid-color:#000000;solid-opacity:1;vector-effect:none;fill:#000000;fill-opacity:1;fill-rule:nonzero;stroke:none;stroke-width:1;stroke-linecap:butt;stroke-linejoin:miter;stroke-miterlimit:4;stroke-dasharray:none;stroke-dashoffset:0;stroke-opacity:1;color-rendering:auto;image-rendering:auto;shape-rendering:auto;text-rendering:auto;enable-background:accumulate;stop-color:#000000;stop-opacity:1"
       d="m 50.064453,20.982422 c -0.676649,0.01396 -1.29325,0.156198 -1.835937,0.378906 -2.170749,0.890833 -3.114341,3.073094 -3.114341,3.073094 l 0.671596,0.454753 c 0,0 1.06264,-1.8794 2.823604,-2.602066 0.880482,-0.361332 1.949983,-0.478607 3.304687,0.02539 1.354705,0.503998 2.996096,1.653979 4.894532,3.869141 7.860122,9.171468 7.474108,21.988605 0.864755,27.30508 l 0.13791,0.950965 C 65.00106,48.654306 65.744965,35.07005 57.568359,25.529297 55.596341,23.228276 53.83478,21.959508 52.263672,21.375 51.478118,21.082746 50.741102,20.968463 50.064453,20.982422 Z"
       id="path1019"
       sodipodi:nodetypes="ssccsssccsss" />
    <path
       style="color:#000000;font-style:normal;font-variant:normal;font-weight:normal;font-stretch:normal;font-size:medium;line-height:normal;font-family:sans-serif;font-variant-ligatures:normal;font-variant-position:normal;font-variant-caps:normal;font-variant-numeric:normal;font-variant-alternates:normal;font-variant-east-asian:normal;font-feature-settings:normal;font-variation-settings:normal;text-indent:0;text-align:start;text-decoration:none;text-decoration-line:none;text-decoration-style:solid;text-decoration-color:#000000;letter-spacing:normal;word-spacing:normal;text-transform:none;writing-mode:lr-tb;direction:ltr;text-orientation:mixed;dominant-baseline:auto;baseline-shift:baseline;text-anchor:start;white-space:normal;shape-padding:0;shape-margin:0;inline-size:0;clip-rule:nonzero;display:inline;overflow:visible;visibility:visible;opacity:1;isolation:auto;mix-blend-mode:normal;color-interpolation:sRGB;color-interpolation-filters:linearRGB;solid-color:#000000;solid-opacity:1;vector-effect:none;fill:#000000;fill-opacity:1;fill-rule:nonzero;stroke:none;stroke-width:1;stroke-linecap:butt;stroke-linejoin:miter;stroke-miterlimit:4;stroke-dasharray:none;stroke-dashoffset:0;stroke-opacity:1;color-rendering:auto;image-rendering:auto;shape-rendering:auto;text-rendering:auto;enable-background:accumulate;stop-color:#000000;stop-opacity:1"
       d="M 19.664309,50.933449 18.75279,50.759177 c 0,0 0.207814,2.879229 1.208148,6.295511 1.000333,3.416281 2.758613,7.331666 6,9.166015 4.187527,2.369784 8.230114,2.281417 11.558593,1.328125 3.328479,-0.953292 5.971593,-2.756415 7.478516,-3.80664 3.045442,-2.122473 10.578515,-8.056426 10.578515,-8.056426 l -0.09156,-0.984234 c 0,0 -8.099041,6.157303 -11.059213,8.220347 -1.495884,1.042532 -4.039925,2.766214 -7.18164,3.666016 -3.141716,0.899801 -6.850391,0.991776 -10.791016,-1.238282 -2.835886,-1.60487 -4.56541,-5.271018 -5.533203,-8.576171 -0.967793,-3.305154 -1.255613,-5.839989 -1.255613,-5.839989 z"
       id="path1023"
       sodipodi:nodetypes="ccssssccsssscc" />
    <path
       style="color:#000000;font-style:normal;font-variant:normal;font-weight:normal;font-stretch:normal;font-size:medium;line-height:normal;font-family:sans-serif;font-variant-ligatures:normal;font-variant-position:normal;font-variant-caps:normal;font-variant-numeric:normal;font-variant-alternates:normal;font-variant-east-asian:normal;font-feature-settings:normal;font-variation-settings:normal;text-indent:0;text-align:start;text-decoration:none;text-decoration-line:none;text-decoration-style:solid;text-decoration-color:#000000;letter-spacing:normal;word-spacing:normal;text-transform:none;writing-mode:lr-tb;direction:ltr;text-orientation:mixed;dominant-baseline:auto;baseline-shift:baseline;text-anchor:start;white-space:normal;shape-padding:0;shape-margin:0;inline-size:0;clip-rule:nonzero;display:inline;overflow:visible;visibility:visible;opacity:1;isolation:auto;mix-blend-mode:normal;color-interpolation:sRGB;color-interpolation-filters:linearRGB;solid-color:#000000;solid-opacity:1;vector-effect:none;fill:#000000;fill-opacity:1;fill-rule:nonzero;stroke:none;stroke-width:1;stroke-linecap:butt;stroke-linejoin:miter;stroke-miterlimit:4;stroke-dasharray:none;stroke-dashoffset:0;stroke-opacity:1;color-rendering:auto;image-rendering:auto;shape-rendering:auto;text-rendering:auto;enable-background:accumulate;stop-color:#000000;stop-opacity:1"
       d="m 28.261719,14.880859 c -1.671625,0.05242 -3.324563,0.553866 -4.462891,1.869141 -1.138327,1.315275 -1.705827,3.374983 -1.40625,6.375 0.572502,5.733138 -0.734131,9.878324 -2.027344,13.742188 -1.293212,3.863863 -2.614428,7.02672 -1.837243,11.488405 l 0.92507,0.132964 c -0.729403,-4.187374 0.564077,-7.428842 1.861392,-11.304963 1.297315,-3.876122 2.666537,-8.226627 2.074219,-14.158203 -0.282833,-2.832341 0.257365,-4.571198 1.166016,-5.621094 0.90865,-1.049896 2.242865,-1.478497 3.738281,-1.525391 1.495415,-0.04689 3.121467,0.305965 4.466797,0.773438 1.345329,0.467472 2.268776,0.713766 2.579554,1.006598 l 0.784548,-0.491409 C 35.555459,16.631947 34.520337,16.204775 33.087891,15.707031 31.655444,15.209287 29.933343,14.82844 28.261719,14.880859 Z"
       id="path1027"
       sodipodi:nodetypes="ssssccsssssccss" />
    <path
       style="color:#000000;font-style:normal;font-variant:normal;font-weight:normal;font-stretch:normal;font-size:medium;line-height:normal;font-family:sans-serif;font-variant-ligatures:normal;font-variant-position:normal;font-variant-caps:normal;font-variant-numeric:normal;font-variant-alternates:normal;font-variant-east-asian:normal;font-feature-settings:normal;font-variation-settings:normal;text-indent:0;text-align:start;text-decoration:none;text-decoration-line:none;text-decoration-style:solid;text-decoration-color:#000000;letter-spacing:normal;word-spacing:normal;text-transform:none;writing-mode:lr-tb;direction:ltr;text-orientation:mixed;dominant-baseline:auto;baseline-shift:baseline;text-anchor:start;white-space:normal;shape-padding:0;shape-margin:0;inline-size:0;clip-rule:nonzero;display:inline;overflow:visible;visibility:visible;opacity:1;isolation:auto;mix-blend-mode:normal;color-interpolation:sRGB;color-interpolation-filters:linearRGB;solid-color:#000000;solid-opacity:1;vector-effect:none;fill:#000000;fill-opacity:1;fill-rule:nonzero;stroke:none;stroke-width:1;stroke-linecap:butt;stroke-linejoin:miter;stroke-miterlimit:4;stroke-dasharray:none;stroke-dashoffset:0;stroke-opacity:1;color-rendering:auto;image-rendering:auto;shape-rendering:auto;text-rendering:auto;enable-background:accumulate;stop-color:#000000;stop-opacity:1"
       d="m 37.630693,18.954736 -0.777059,0.486994 c 0,0 4.689095,4.988549 10.552616,8.511395 2.642975,1.587919 4.59517,2.649795 6.421875,3.25 1.826705,0.600205 3.524526,0.718921 5.548828,0.429687 l -0.34684,-0.936897 c -1.912588,0.273272 -3.196369,0.114303 -4.889488,-0.442009 -1.693119,-0.556312 -3.59381,-1.58112 -6.21875,-3.158203 -5.702253,-3.425954 -10.291182,-8.140967 -10.291182,-8.140967 z"
       id="path1031"
       sodipodi:nodetypes="ccssccssc" />
    <path
       style="color:#000000;font-style:normal;font-variant:normal;font-weight:normal;font-stretch:normal;font-size:medium;line-height:normal;font-family:sans-serif;font-variant-ligatures:normal;font-variant-position:normal;font-variant-caps:normal;font-variant-numeric:normal;font-variant-alternates:normal;font-variant-east-asian:normal;font-feature-settings:normal;font-variation-settings:normal;text-indent:0;text-align:start;text-decoration:none;text-decoration-line:none;text-decoration-style:solid;text-decoration-color:#000000;letter-spacing:normal;word-spacing:normal;text-transform:none;writing-mode:lr-tb;direction:ltr;text-orientation:mixed;dominant-baseline:auto;baseline-shift:baseline;text-anchor:start;white-space:normal;shape-padding:0;shape-margin:0;inline-size:0;clip-rule:nonzero;display:inline;overflow:visible;visibility:visible;opacity:1;isolation:auto;mix-blend-mode:normal;color-interpolation:sRGB;color-interpolation-filters:linearRGB;solid-color:#000000;solid-opacity:1;vector-effect:none;fill:#000000;fill-opacity:1;fill-rule:nonzero;stroke:none;stroke-width:1;stroke-linecap:butt;stroke-linejoin:miter;stroke-miterlimit:4;stroke-dasharray:none;stroke-dashoffset:0;stroke-opacity:1;color-rendering:auto;image-rendering:auto;shape-rendering:auto;text-rendering:auto;enable-background:accumulate;stop-color:#000000;stop-opacity:1"
       d="m 50.236328,12.615234 c -3.462316,0.323846 -7.155988,1.847545 -10.925781,3.529297 -3.766306,1.680197 -4.662417,3.299852 -6.023438,4.732422 -1.36102,1.43257 -2.67441,2.830252 -8.913643,4.464435 l -0.01248,0.999655 c 6.330259,-1.658024 8.184431,-3.231254 9.650729,-4.774637 1.466298,-1.543382 2.098637,-2.900016 5.707031,-4.509765 3.751511,-1.673596 7.373893,-3.142684 10.609375,-3.445313 3.235482,-0.302628 6.053457,0.493789 8.480469,3.433594 2.601936,3.151688 4.111516,5.855137 4.472656,7.986328 0.36114,2.131191 0.07433,3.587182 -1.872506,4.825834 l 0.490533,0.847093 c 2.200937,-1.400321 2.781427,-3.402922 2.368301,-5.840896 -0.413126,-2.437973 -2.029458,-5.235429 -4.6875,-8.455078 -2.618719,-3.172018 -5.881433,-4.116814 -9.34375,-3.792969 z"
       id="path1035"
       sodipodi:nodetypes="sssccsssssccssss" />
    <text
       xml:space="preserve"
       style="font-size:10.5833px;line-height:1.25;font-family:'Source Serif Pro';-inkscape-font-specification:'Source Serif Pro';letter-spacing:0px;stroke-width:0.264583"
       x="50.958065"
       y="67.548157"
       id="text150"><tspan
         sodipodi:role="line"
         id="tspan148"
         x="50.958065"
         y="67.548157"
         style="stroke-width:0.264583"></tspan><tspan
         sodipodi:role="line"
         x="50.958065"
         y="80.777283"
         style="stroke-width:0.264583"
         id="tspan152" /></text>
    <text
       xml:space="preserve"
       style="font-size:10.5833px;line-height:1.25;font-family:'Source Serif Pro';-inkscape-font-specification:'Source Serif Pro';letter-spacing:0px;word-spacing:0px;stroke-width:0.264583"
       x="53.888214"
       y="72.308029"
       id="text156"><tspan
         sodipodi:role="line"
         id="tspan154"
         x="53.888214"
         y="72.308029"
         style="stroke-width:0.264583"
         dx="0 0"
         dy="0 0"
         rotate="0 0 0">8<tspan
   style="font-size:65%;baseline-shift:sub"
   id="tspan162">8</tspan></tspan></text>
    <path
       style="color:#000000;font-style:normal;font-variant:normal;font-weight:normal;font-stretch:normal;font-size:medium;line-height:normal;font-family:sans-serif;font-variant-ligatures:normal;font-variant-position:normal;font-variant-caps:normal;font-variant-numeric:normal;font-variant-alternates:normal;font-variant-east-asian:normal;font-feature-settings:normal;font-variation-settings:normal;text-indent:0;text-align:start;text-decoration:none;text-decoration-line:none;text-decoration-style:solid;text-decoration-color:#000000;letter-spacing:normal;word-spacing:normal;text-transform:none;writing-mode:lr-tb;direction:ltr;text-orientation:mixed;dominant-baseline:auto;baseline-shift:baseline;text-anchor:start;white-space:normal;shape-padding:0;shape-margin:0;inline-size:0;clip-rule:nonzero;display:inline;overflow:visible;visibility:visible;opacity:1;isolation:auto;mix-blend-mode:normal;color-interpolation:sRGB;color-interpolation-filters:linearRGB;solid-color:#000000;solid-opacity:1;vector-effect:none;fill:#000000;fill-opacity:1;fill-rule:nonzero;stroke:none;stroke-width:1;stroke-linecap:butt;stroke-linejoin:miter;stroke-miterlimit:4;stroke-dasharray:none;stroke-dashoffset:0;stroke-opacity:1;color-rendering:auto;image-rendering:auto;shape-rendering:auto;text-rendering:auto;enable-background:accumulate;stop-color:#000000;stop-opacity:1"
       d="m 99.730469,28.699219 c -0.60701,-0.03271 -1.211832,0.05946 -1.792969,0.261719 -2.32455,0.809036 -4.3293,3.241006 -5.830078,6.332031 -1.500778,3.091024 -2.480353,6.872736 -2.576172,10.5 -0.09582,3.627263 0.689234,7.119526 2.822266,9.554687 4.073826,4.650854 7.055354,6.189132 10.267574,6.322266 3.21223,0.133134 5.88591,-0.94279 10.91595,-1.512768 l -0.3679,-0.926177 c -5.13168,0.581496 -7.57749,1.562316 -10.50703,1.440898 -2.929544,-0.121418 -5.567228,-1.427937 -9.556641,-5.982422 -1.898587,-2.167508 -2.665741,-5.406504 -2.574219,-8.871094 0.09152,-3.464589 1.039666,-7.134414 2.474609,-10.089843 1.434944,-2.95543 3.372748,-5.164828 5.261719,-5.822266 0.944486,-0.328719 1.866772,-0.304563 2.828122,0.175781 0.96136,0.480344 1.90859,1.23436 2.88098,2.842158 l 0.75276,-0.497671 c -1.03797,-1.716246 -1.9993,-2.64487 -3.18842,-3.239018 -0.59457,-0.297074 -1.20354,-0.455571 -1.810551,-0.488281 z"
       id="path1167"
       sodipodi:nodetypes="ssssssccssssssccss" />
    <path
       style="color:#000000;font-style:normal;font-variant:normal;font-weight:normal;font-stretch:normal;font-size:medium;line-height:normal;font-family:sans-serif;font-variant-ligatures:normal;font-variant-position:normal;font-variant-caps:normal;font-variant-numeric:normal;font-variant-alternates:normal;font-variant-east-asian:normal;font-feature-settings:normal;font-variation-settings:normal;text-indent:0;text-align:start;text-decoration:none;text-decoration-line:none;text-decoration-style:solid;text-decoration-color:#000000;letter-spacing:normal;word-spacing:normal;text-transform:none;writing-mode:lr-tb;direction:ltr;text-orientation:mixed;dominant-baseline:auto;baseline-shift:baseline;text-anchor:start;white-space:normal;shape-padding:0;shape-margin:0;inline-size:0;clip-rule:nonzero;display:inline;overflow:visible;visibility:visible;opacity:1;isolation:auto;mix-blend-mode:normal;color-interpolation:sRGB;color-interpolation-filters:linearRGB;solid-color:#000000;solid-opacity:1;vector-effect:none;fill:#000000;fill-opacity:1;fill-rule:nonzero;stroke:none;stroke-width:1;stroke-linecap:butt;stroke-linejoin:miter;stroke-miterlimit:4;stroke-dasharray:none;stroke-dashoffset:0;stroke-opacity:1;color-rendering:auto;image-rendering:auto;shape-rendering:auto;text-rendering:auto;enable-background:accumulate;stop-color:#000000;stop-opacity:1"
       d="m 105.78436,34.253221 -0.81427,0.475208 c 1.23723,1.468869 2.39272,4.138477 3.50061,7.546962 1.10789,3.408485 2.2059,7.395002 3.48438,11.232421 1.27848,3.83742 2.7348,7.527413 4.5957,10.369141 1.8609,2.841728 4.16999,4.871005 7.11524,5.181641 5.64882,0.595783 9.03439,-1.807907 10.4082,-4.998047 1.3738,-3.19014 1.05086,-6.502328 -0.82598,-9.034418 l -0.77051,0.423432 c 1.63243,2.202364 1.89483,5.390086 0.67852,8.214501 -1.21631,2.824416 -4.04605,4.961513 -9.38477,4.398438 -2.54851,-0.268793 -4.61105,-2.025779 -6.38476,-4.734375 -1.77372,-2.708596 -3.21537,-6.333595 -4.48242,-10.136719 -1.26706,-3.803124 -2.36377,-7.78301 -3.48242,-11.224609 -1.11866,-3.441599 -2.19713,-6.003498 -3.63752,-7.713576 z"
       id="path1171"
       sodipodi:nodetypes="ccsssssccsssssc" />
    <path
       style="color:#000000;font-style:normal;font-variant:normal;font-weight:normal;font-stretch:normal;font-size:medium;line-height:normal;font-family:sans-serif;font-variant-ligatures:normal;font-variant-position:normal;font-variant-caps:normal;font-variant-numeric:normal;font-variant-alternates:normal;font-variant-east-asian:normal;font-feature-settings:normal;font-variation-settings:normal;text-indent:0;text-align:start;text-decoration:none;text-decoration-line:none;text-decoration-style:solid;text-decoration-color:#000000;letter-spacing:normal;word-spacing:normal;text-transform:none;writing-mode:lr-tb;direction:ltr;text-orientation:mixed;dominant-baseline:auto;baseline-shift:baseline;text-anchor:start;white-space:normal;shape-padding:0;shape-margin:0;inline-size:0;clip-rule:nonzero;display:inline;overflow:visible;visibility:visible;opacity:1;isolation:auto;mix-blend-mode:normal;color-interpolation:sRGB;color-interpolation-filters:linearRGB;solid-color:#000000;solid-opacity:1;vector-effect:none;fill:#000000;fill-opacity:1;fill-rule:nonzero;stroke:none;stroke-width:1;stroke-linecap:butt;stroke-linejoin:miter;stroke-miterlimit:4;stroke-dasharray:none;stroke-dashoffset:0;stroke-opacity:1;color-rendering:auto;image-rendering:auto;shape-rendering:auto;text-rendering:auto;enable-background:accumulate;stop-color:#000000;stop-opacity:1"
       d="m 129.15039,15.380859 c -1.36793,0.0256 -2.43812,0.198961 -3.68983,1.251363 l 0.651,0.549781 c 2.17866,-1.831749 4.3955,-1.145675 6.19703,0.228153 1.80154,1.373829 2.83969,3.985652 1.70899,7.306641 -1.36346,4.004611 -4.43617,7.976978 -5.99219,12.619141 -1.55602,4.642162 -1.91605,9.327896 2.95107,15.841138 l 0.83144,-0.39394 c -4.71593,-6.31092 -4.31617,-10.706834 -2.83329,-15.130792 1.48288,-4.423959 4.54646,-8.372757 5.99023,-12.613282 1.24491,-3.656439 0.0985,-6.786289 -2.04882,-8.423828 -1.07368,-0.818769 -2.3977,-1.259975 -3.76563,-1.234375 z"
       id="path1175"
       sodipodi:nodetypes="sccsssccssss" />
    <path
       style="color:#000000;font-style:normal;font-variant:normal;font-weight:normal;font-stretch:normal;font-size:medium;line-height:normal;font-family:sans-serif;font-variant-ligatures:normal;font-variant-position:normal;font-variant-caps:normal;font-variant-numeric:normal;font-variant-alternates:normal;font-variant-east-asian:normal;font-feature-settings:normal;font-variation-settings:normal;text-indent:0;text-align:start;text-decoration:none;text-decoration-line:none;text-decoration-style:solid;text-decoration-color:#000000;letter-spacing:normal;word-spacing:normal;text-transform:none;writing-mode:lr-tb;direction:ltr;text-orientation:mixed;dominant-baseline:auto;baseline-shift:baseline;text-anchor:start;white-space:normal;shape-padding:0;shape-margin:0;inline-size:0;clip-rule:nonzero;display:inline;overflow:visible;visibility:visible;opacity:1;isolation:auto;mix-blend-mode:normal;color-interpolation:sRGB;color-interpolation-filters:linearRGB;solid-color:#000000;solid-opacity:1;vector-effect:none;fill:#000000;fill-opacity:1;fill-rule:nonzero;stroke:none;stroke-width:1;stroke-linecap:butt;stroke-linejoin:miter;stroke-miterlimit:4;stroke-dasharray:none;stroke-dashoffset:0;stroke-opacity:1;color-rendering:auto;image-rendering:auto;shape-rendering:auto;text-rendering:auto;enable-background:accumulate;stop-color:#000000;stop-opacity:1"
       d="m 123.54043,18.13551 c -7.61498,5.745542 -12.66345,10.709241 -17.15957,13.878162 -2.24806,1.58446 -4.27298,2.643664 -6.23438,3.027344 -1.961387,0.383679 -3.256805,0.551921 -5.396389,-0.58213 l -0.443702,0.839894 c 2.304501,1.221463 3.860792,1.149665 6.033451,0.724658 2.17267,-0.425008 4.31053,-1.565645 6.61719,-3.191407 4.61332,-3.251522 9.78304,-8.374639 17.34435,-14.07969 z"
       id="path1179"
       sodipodi:nodetypes="cssccsscc" />
    <path
       style="color:#000000;font-style:normal;font-variant:normal;font-weight:normal;font-stretch:normal;font-size:medium;line-height:normal;font-family:sans-serif;font-variant-ligatures:normal;font-variant-position:normal;font-variant-caps:normal;font-variant-numeric:normal;font-variant-alternates:normal;font-variant-east-asian:normal;font-feature-settings:normal;font-variation-settings:normal;text-indent:0;text-align:start;text-decoration:none;text-decoration-line:none;text-decoration-style:solid;text-decoration-color:#000000;letter-spacing:normal;word-spacing:normal;text-transform:none;writing-mode:lr-tb;direction:ltr;text-orientation:mixed;dominant-baseline:auto;baseline-shift:baseline;text-anchor:start;white-space:normal;shape-padding:0;shape-margin:0;inline-size:0;clip-rule:nonzero;display:inline;overflow:visible;visibility:visible;opacity:1;isolation:auto;mix-blend-mode:normal;color-interpolation:sRGB;color-interpolation-filters:linearRGB;solid-color:#000000;solid-opacity:1;vector-effect:none;fill:#000000;fill-opacity:1;fill-rule:nonzero;stroke:none;stroke-width:1;stroke-linecap:butt;stroke-linejoin:miter;stroke-miterlimit:4;stroke-dasharray:none;stroke-dashoffset:0;stroke-opacity:1;color-rendering:auto;image-rendering:auto;shape-rendering:auto;text-rendering:auto;enable-background:accumulate;stop-color:#000000;stop-opacity:1"
       d="m 107.19531,11.142578 c -8.356573,-0.141693 -15.239721,2.970571 -18.029294,5.259766 -2.701366,2.216809 -5.213063,5.234494 -5.369141,8.566406 -0.07804,1.665956 0.468191,3.391818 1.841797,5.011719 1.373605,1.619901 2.934431,2.875826 6.163682,4.270801 l 0.529293,-0.890943 c -3.135111,-1.354308 -4.69619,-2.571775 -5.931256,-4.028296 -1.235066,-1.456521 -1.670174,-2.893421 -1.603516,-4.316406 0.133315,-2.845969 2.41634,-5.716422 5.003906,-7.839844 2.499357,-2.051035 9.28221,-5.170457 17.376949,-5.033203 8.09475,0.137254 17.45799,3.281073 25.5858,14.023567 l 0.44598,-0.862373 c -8.29395,-10.962089 -17.65762,-14.0195 -26.0142,-14.161194 z"
       id="path1183"
       sodipodi:nodetypes="ssssccssssccs" />
    <path
       style="color:#000000;font-style:normal;font-variant:normal;font-weight:normal;font-stretch:normal;font-size:medium;line-height:normal;font-family:sans-serif;font-variant-ligatures:normal;font-variant-position:normal;font-variant-caps:normal;font-variant-numeric:normal;font-variant-alternates:normal;font-variant-east-asian:normal;font-feature-settings:normal;font-variation-settings:normal;text-indent:0;text-align:start;text-decoration:none;text-decoration-line:none;text-decoration-style:solid;text-decoration-color:#000000;letter-spacing:normal;word-spacing:normal;text-transform:none;writing-mode:lr-tb;direction:ltr;text-orientation:mixed;dominant-baseline:auto;baseline-shift:baseline;text-anchor:start;white-space:normal;shape-padding:0;shape-margin:0;inline-size:0;clip-rule:nonzero;display:inline;overflow:visible;visibility:visible;opacity:1;isolation:auto;mix-blend-mode:normal;color-interpolation:sRGB;color-interpolation-filters:linearRGB;solid-color:#000000;solid-opacity:1;vector-effect:none;fill:#000000;fill-opacity:1;fill-rule:nonzero;stroke:none;stroke-width:1;stroke-linecap:butt;stroke-linejoin:miter;stroke-miterlimit:4;stroke-dasharray:none;stroke-dashoffset:0;stroke-opacity:1;color-rendering:auto;image-rendering:auto;shape-rendering:auto;text-rendering:auto;enable-background:accumulate;stop-color:#000000;stop-opacity:1"
       d="m 134.8736,27.154688 -0.39955,0.844596 c 5.0219,5.438925 6.5662,9.446929 6.77204,13.155013 0.20585,3.708084 -1.44674,6.669226 -4.16406,9.111328 -5.43463,4.884204 -14.60366,7.282057 -21.1134,8.37087 l 0.38786,0.998816 c 6.59937,-1.103805 15.65349,-3.466885 21.39351,-8.625545 2.87001,-2.579331 4.71829,-5.874339 4.49414,-9.91211 -0.22415,-4.03777 -2.256,-8.403709 -7.37054,-13.942968 z"
       id="path1187"
       sodipodi:nodetypes="ccssccssc" />
    <text
       xml:space="preserve"
       style="font-size:10.5833px;line-height:1.25;font-family:'Source Serif Pro';-inkscape-font-specification:'Source Serif Pro';letter-spacing:0px;stroke-width:0.264583"
       x="93.631348"
       y="72.077888"
       id="text1191"><tspan
         sodipodi:role="line"
         id="tspan1189"
         x="93.631348"
         y="72.077888"
         style="stroke-width:0.264583">6<tspan
   style="font-size:65%;baseline-shift:sub"
   id="tspan1193">1</tspan></tspan></text>
  </g>
</svg>
