<?xml version="1.0" encoding="UTF-8" standalone="no"?>
<svg
   xmlns:dc="http://purl.org/dc/elements/1.1/"
   xmlns:cc="http://creativecommons.org/ns#"
   xmlns:rdf="http://www.w3.org/1999/02/22-rdf-syntax-ns#"
   xmlns:svg="http://www.w3.org/2000/svg"
   xmlns="http://www.w3.org/2000/svg"
   xmlns:sodipodi="http://sodipodi.sourceforge.net/DTD/sodipodi-0.dtd"
   xmlns:inkscape="http://www.inkscape.org/namespaces/inkscape"
   width="6in"
   height="4in"
   viewBox="0 0 152.4 101.6"
   version="1.1"
   id="svg8"
   sodipodi:docname="unknots.svg"
   inkscape:version="1.0.1 (3bc2e813f5, 2020-09-07)"
   inkscape:export-filename="/home/rafie/Documents/Schoolwork/Sproj (Knot Theory)/Winter Writeup/images/unknots.png"
   inkscape:export-xdpi="227"
   inkscape:export-ydpi="227">
  <defs
     id="defs2" />
  <sodipodi:namedview
     id="base"
     pagecolor="#ffffff"
     bordercolor="#666666"
     borderopacity="1.0"
     inkscape:pageopacity="0.0"
     inkscape:pageshadow="2"
     inkscape:zoom="0.6841768"
     inkscape:cx="292.19567"
     inkscape:cy="184.37971"
     inkscape:document-units="mm"
     inkscape:current-layer="layer1"
     inkscape:document-rotation="0"
     showgrid="true"
     units="in"
     inkscape:window-width="1536"
     inkscape:window-height="834"
     inkscape:window-x="0"
     inkscape:window-y="0"
     inkscape:window-maximized="1">
    <inkscape:grid
       type="xygrid"
       id="grid10"
       units="in"
       spacingx="6.35"
       spacingy="6.35"
       empspacing="4" />
  </sodipodi:namedview>
  <metadata
     id="metadata5">
    <rdf:RDF>
      <cc:Work
         rdf:about="">
        <dc:format>image/svg+xml</dc:format>
        <dc:type
           rdf:resource="http://purl.org/dc/dcmitype/StillImage" />
        <dc:title></dc:title>
      </cc:Work>
    </rdf:RDF>
  </metadata>
  <g
     inkscape:label="Layer 1"
     inkscape:groupmode="layer"
     id="layer1">
    <path
       style="fill:none;stroke:#000000;stroke-width:1;stroke-linecap:butt;stroke-linejoin:miter;stroke-miterlimit:4;stroke-dasharray:none;stroke-opacity:1"
       d="m 12.700001,19.05 c 12.7,0 12.7,-12.7 25.4,-12.7 C 50.8,6.35 50.8,19.05 63.5,19.05 c -12.699999,0 -12.7,12.7 -25.399999,12.7 -12.7,0 -12.7,-12.7 -25.4,-12.7 z"
       id="path12"
       sodipodi:nodetypes="csccc" />
    <path
       style="fill:none;stroke:#000000;stroke-width:1;stroke-linecap:butt;stroke-linejoin:miter;stroke-miterlimit:4;stroke-dasharray:none;stroke-opacity:1"
       d="m 88.9,19.05 c 12.7,0 12.7,-12.7 31.75,-12.7 12.7,0 12.7,6.35 19.05,6.35 -6.35,0 -6.35,6.35 -19.05,6.35 12.7,0 12.7,6.35 19.05,6.35 -6.35,0 -6.35,6.35 -19.05,6.35 -19.05,0 -19.05,-12.7 -31.75,-12.7 z"
       id="path14"
       sodipodi:nodetypes="ccccccc" />
    <path
       style="fill:none;stroke:#000000;stroke-width:1;stroke-linecap:butt;stroke-linejoin:miter;stroke-miterlimit:4;stroke-dasharray:none;stroke-opacity:1"
       d="m 12.700001,63.5 c 6.35,10e-7 6.35,-6.35 19.05,-6.35 19.05,0 19.05,12.7 31.75,12.7 -12.7,0 -12.7,12.7 -31.75,12.7 -12.7,0 -12.7,-6.35 -19.05,-6.35 6.35,10e-7 6.35,-6.35 19.05,-6.35 -12.7,0 -12.7,-6.35 -19.05,-6.35 z"
       id="path16"
       sodipodi:nodetypes="ccccccc" />
    <path
       style="fill:none;stroke:#000000;stroke-width:1;stroke-linecap:butt;stroke-linejoin:miter;stroke-miterlimit:4;stroke-dasharray:none;stroke-opacity:1"
       d="M 88.9,69.849999 C 95.250001,69.85 95.250001,57.15 101.6,57.15 c 6.35,0 19.05,25.4 25.4,25.399999 6.35,-10e-7 6.35,-12.699999 12.7,-12.7 -6.35,10e-7 -6.35,-12.700001 -12.7,-12.7 -6.35,10e-7 -19.05,25.399999 -25.4,25.4 -6.349999,10e-7 -6.349999,-12.699999 -12.7,-12.7 z"
       id="path36"
       sodipodi:nodetypes="czzczzc" />
    <text
       xml:space="preserve"
       style="font-size:7.76111px;line-height:1.25;font-family:'Source Serif Pro';-inkscape-font-specification:'Source Serif Pro';letter-spacing:0px;stroke-width:0.264583"
       x="37.930138"
       y="95.070076"
       id="text863"><tspan
         sodipodi:role="line"
         id="tspan861"
         x="37.930138"
         y="95.070076"
         style="font-size:7.76111px;text-align:center;text-anchor:middle;stroke-width:0.264583">tb = −2     r = −1</tspan></text>
    <text
       xml:space="preserve"
       style="font-size:7.7611px;line-height:1.25;font-family:'Source Serif Pro';-inkscape-font-specification:'Source Serif Pro';letter-spacing:0px;stroke-width:0.264583"
       x="114.1301"
       y="95.070076"
       id="text863-3"><tspan
         sodipodi:role="line"
         id="tspan861-6"
         x="114.1301"
         y="95.070076"
         style="font-size:7.7611px;text-align:center;text-anchor:middle;stroke-width:0.264583">tb = −2      r = 1</tspan></text>
    <text
       xml:space="preserve"
       style="font-size:7.7611px;line-height:1.25;font-family:'Source Serif Pro';-inkscape-font-specification:'Source Serif Pro';letter-spacing:0px;stroke-width:0.264583"
       x="114.1301"
       y="44.270077"
       id="text863-7"><tspan
         sodipodi:role="line"
         id="tspan861-5"
         x="114.1301"
         y="44.270077"
         style="font-size:7.7611px;text-align:center;text-anchor:middle;stroke-width:0.264583">tb = −2      r = 1</tspan></text>
    <text
       xml:space="preserve"
       style="font-size:7.7611px;line-height:1.25;font-family:'Source Serif Pro';-inkscape-font-specification:'Source Serif Pro';letter-spacing:0px;stroke-width:0.264583"
       x="37.930103"
       y="44.270077"
       id="text863-35"><tspan
         sodipodi:role="line"
         id="tspan861-62"
         x="37.930103"
         y="44.270077"
         style="font-size:7.7611px;text-align:center;text-anchor:middle;stroke-width:0.264583">tb = −1       r = 0</tspan></text>
  </g>
</svg>
